{
date = "2015-10-07 16:33:12 +0000";
familyName = "new Font";
fontMaster = (
{
ascender = 800;
capHeight = 700;
descender = -200;
guideLines = (
{
locked = 1;
position = "{70, 98}";
},
{
locked = 1;
position = "{70, 0}";
},
{
locked = 1;
position = "{310, -6}";
},
{
locked = 1;
position = "{378, 91}";
},
{
locked = 1;
position = "{76, 568}";
},
{
position = "{-31, -283}";
}
);
id = "51F41761-070F-43EA-B302-C90910850260";
weightValue = 400;
xHeight = 500;
},
{
ascender = 800;
capHeight = 700;
descender = -200;
guideLines = (
{
locked = 1;
position = "{99, 0}";
},
{
locked = 1;
position = "{81, 139}";
},
{
locked = 1;
position = "{379, -10}";
},
{
locked = 1;
position = "{409, 132}";
},
{
locked = 1;
position = "{92, 608}";
},
{
position = "{321, -286}";
}
);
id = "0E844BAD-773F-41FF-B6D6-C35F1E5E991C";
weight = Bold;
weightValue = 700;
xHeight = 500;
}
);
glyphs = (
{
glyphname = "alef-ar";
lastChange = "2015-10-10 01:09:35 +0000";
layers = (
{
layerId = "51F41761-070F-43EA-B302-C90910850260";
name = Regular;
paths = (
{
closed = 1;
nodes = (
"0 472 OFFCURVE",
"3 411 OFFCURVE",
"11 328 CURVE SMOOTH",
"17 268 OFFCURVE",
"25 209 OFFCURVE",
"28 189 CURVE SMOOTH",
"33 157 OFFCURVE",
"37 126 OFFCURVE",
"38 115 CURVE SMOOTH",
"41 76 OFFCURVE",
"42 28 OFFCURVE",
"40 0 CURVE",
"55 0 LINE",
"69 46 OFFCURVE",
"69 47 OFFCURVE",
"70 55 CURVE SMOOTH",
"80 129 OFFCURVE",
"94 153 OFFCURVE",
"74 403 CURVE SMOOTH",
"73 417 OFFCURVE",
"70 448 OFFCURVE",
"70 453 CURVE SMOOTH",
"66 496 OFFCURVE",
"62 530 OFFCURVE",
"63 568 CURVE",
"52 568 LINE",
"33 544 OFFCURVE",
"18 520 OFFCURVE",
"0 484 CURVE"
);
}
);
width = 104;
},
{
layerId = "0E844BAD-773F-41FF-B6D6-C35F1E5E991C";
name = Bold;
paths = (
{
closed = 1;
nodes = (
"0 509 OFFCURVE",
"0 458 OFFCURVE",
"11 347 CURVE SMOOTH",
"18 278 OFFCURVE",
"25 228 OFFCURVE",
"28 207 CURVE SMOOTH",
"33 176 OFFCURVE",
"37 146 OFFCURVE",
"38 134 CURVE SMOOTH",
"44 70 OFFCURVE",
"39 0 OFFCURVE",
"39 0 CURVE",
"88 0 LINE",
"88 0 OFFCURVE",
"99 23 OFFCURVE",
"109 71 CURVE SMOOTH",
"125 151 OFFCURVE",
"133 271 OFFCURVE",
"115 425 CURVE SMOOTH",
"114 434 OFFCURVE",
"112 451 OFFCURVE",
"110 475 CURVE SMOOTH",
"105 541 OFFCURVE",
"105 608 OFFCURVE",
"105 608 CURVE SMOOTH",
"65 608 LINE",
"52 596 OFFCURVE",
"24 556 OFFCURVE",
"0 509 CURVE"
);
}
);
width = 155;
}
);
unicode = 0627;
},
{
glyphname = "alef-ar.fina";
lastChange = "2015-10-10 01:08:20 +0000";
layers = (
{
layerId = "51F41761-070F-43EA-B302-C90910850260";
name = Regular;
paths = (
{
closed = 1;
nodes = (
"207 98 LINE SMOOTH",
"179 98 OFFCURVE",
"158 106 OFFCURVE",
"144 122 CURVE SMOOTH",
"133 135 OFFCURVE",
"127 154 OFFCURVE",
"126 178 CURVE SMOOTH",
"116 568 LINE",
"105 568 LINE",
"95 554 OFFCURVE",
"68 518 OFFCURVE",
"50 488 CURVE",
"65 391 OFFCURVE",
"69 271 OFFCURVE",
"71 146 CURVE SMOOTH",
"72 102 OFFCURVE",
"83 65 OFFCURVE",
"103 38 CURVE SMOOTH",
"122 13 OFFCURVE",
"151 0 OFFCURVE",
"189 0 CURVE SMOOTH",
"252 0 LINE",
"252 98 LINE"
);
}
);
width = 232;
},
{
layerId = "0E844BAD-773F-41FF-B6D6-C35F1E5E991C";
name = Bold;
paths = (
{
closed = 1;
nodes = (
"229 139 LINE SMOOTH",
"208 139 OFFCURVE",
"193 144 OFFCURVE",
"183 154 CURVE SMOOTH",
"173 164 OFFCURVE",
"169 179 OFFCURVE",
"168 199 CURVE SMOOTH",
"157 608 LINE",
"117 608 LINE",
"90 574 OFFCURVE",
"72 548 OFFCURVE",
"50 511 CURVE",
"65 414 OFFCURVE",
"72 277 OFFCURVE",
"72 166 CURVE SMOOTH",
"72 121 OFFCURVE",
"83 79 OFFCURVE",
"108 46 CURVE SMOOTH",
"131 16 OFFCURVE",
"167 0 OFFCURVE",
"211 0 CURVE SMOOTH",
"294 0 LINE",
"294 139 LINE"
);
}
);
width = 264;
}
);
unicode = FE8E;
},
{
glyphname = "alef-ar.short";
lastChange = "2015-10-10 01:21:33 +0000";
layers = (
{
layerId = "51F41761-070F-43EA-B302-C90910850260";
name = Regular;
paths = (
{
closed = 1;
nodes = (
"18 415 OFFCURVE",
"23 362 OFFCURVE",
"33 289 CURVE SMOOTH",
"41 231 OFFCURVE",
"46 195 OFFCURVE",
"49 166 CURVE SMOOTH",
"52 138 OFFCURVE",
"55 117 OFFCURVE",
"56 101 CURVE SMOOTH",
"58 67 OFFCURVE",
"60 25 OFFCURVE",
"58 0 CURVE",
"73 0 LINE",
"80 19 OFFCURVE",
"84 34 OFFCURVE",
"88 48 CURVE SMOOTH",
"102 101 OFFCURVE",
"112 135 OFFCURVE",
"92 355 CURVE SMOOTH",
"91 367 OFFCURVE",
"88 394 OFFCURVE",
"88 399 CURVE SMOOTH",
"84 437 OFFCURVE",
"80 467 OFFCURVE",
"81 500 CURVE",
"70 500 LINE",
"51 479 OFFCURVE",
"36 458 OFFCURVE",
"18 426 CURVE"
);
}
);
width = 104;
},
{
layerId = "0E844BAD-773F-41FF-B6D6-C35F1E5E991C";
name = Bold;
paths = (
{
closed = 1;
nodes = (
"10 478 OFFCURVE",
"14 430 OFFCURVE",
"24 326 CURVE SMOOTH",
"30 261 OFFCURVE",
"36 220 OFFCURVE",
"39 195 CURVE SMOOTH",
"43 165 OFFCURVE",
"46 131 OFFCURVE",
"47 120 CURVE SMOOTH",
"54 60 OFFCURVE",
"45 0 OFFCURVE",
"45 0 CURVE",
"88 0 LINE",
"88 0 OFFCURVE",
"98 22 OFFCURVE",
"107 67 CURVE SMOOTH",
"122 142 OFFCURVE",
"129 243 OFFCURVE",
"113 387 CURVE",
"112 403 OFFCURVE",
"111 417 OFFCURVE",
"110 444 CURVE",
"106 506 OFFCURVE",
"103 571 OFFCURVE",
"103 571 CURVE SMOOTH",
"68 571 LINE",
"57 560 OFFCURVE",
"31 523 OFFCURVE",
"10 478 CURVE"
);
}
);
width = 160;
}
);
},
{
glyphname = "alef-ar.fina.short";
lastChange = "2015-10-10 01:18:18 +0000";
layers = (
{
layerId = "51F41761-070F-43EA-B302-C90910850260";
name = Regular;
paths = (
{
closed = 1;
nodes = (
"207 98 LINE SMOOTH",
"179 98 OFFCURVE",
"158 106 OFFCURVE",
"144 122 CURVE SMOOTH",
"133 135 OFFCURVE",
"127 154 OFFCURVE",
"126 178 CURVE SMOOTH",
"116 499 LINE",
"105 499 LINE",
"95 485 OFFCURVE",
"68 449 OFFCURVE",
"50 419 CURVE",
"59 362 OFFCURVE",
"69 202 OFFCURVE",
"71 146 CURVE SMOOTH",
"73 102 OFFCURVE",
"83 65 OFFCURVE",
"103 38 CURVE SMOOTH",
"122 13 OFFCURVE",
"151 0 OFFCURVE",
"189 0 CURVE SMOOTH",
"252 0 LINE",
"252 98 LINE"
);
}
);
width = 232;
},
{
layerId = "0E844BAD-773F-41FF-B6D6-C35F1E5E991C";
name = Bold;
paths = (
{
closed = 1;
nodes = (
"224 139 LINE SMOOTH",
"203 139 OFFCURVE",
"188 144 OFFCURVE",
"178 154 CURVE SMOOTH",
"168 164 OFFCURVE",
"164 179 OFFCURVE",
"163 199 CURVE SMOOTH",
"152 571 LINE",
"112 571 LINE",
"85 539 OFFCURVE",
"72 523 OFFCURVE",
"50 493 CURVE",
"62 400 OFFCURVE",
"67 277 OFFCURVE",
"67 166 CURVE SMOOTH",
"67 121 OFFCURVE",
"78 79 OFFCURVE",
"103 46 CURVE SMOOTH",
"126 16 OFFCURVE",
"162 0 OFFCURVE",
"206 0 CURVE SMOOTH",
"289 0 LINE",
"289 139 LINE"
);
}
);
width = 259;
}
);
},
{
glyphname = "alefMadda-ar";
lastChange = "2015-10-10 01:20:06 +0000";
layers = (
{
components = (
{
name = "alef-ar.short";
}
);
layerId = "51F41761-070F-43EA-B302-C90910850260";
name = Regular;
paths = (
{
closed = 1;
nodes = (
"-101 525 OFFCURVE",
"-98 522 OFFCURVE",
"-95 520 CURVE",
"-78 543 OFFCURVE",
"-60 553 OFFCURVE",
"-35 553 CURVE SMOOTH",
"-21 553 OFFCURVE",
"-7 550 OFFCURVE",
"9 546 CURVE SMOOTH",
"31 540 OFFCURVE",
"54 534 OFFCURVE",
"86 534 CURVE SMOOTH",
"142 534 OFFCURVE",
"189 552 OFFCURVE",
"216 569 CURVE SMOOTH",
"226 575 OFFCURVE",
"240 585 OFFCURVE",
"243 588 CURVE",
"241 592 OFFCURVE",
"240 593 OFFCURVE",
"238 595 CURVE",
"209 585 OFFCURVE",
"180 580 OFFCURVE",
"151 580 CURVE SMOOTH",
"108 580 OFFCURVE",
"71 591 OFFCURVE",
"39 601 CURVE SMOOTH",
"5 611 OFFCURVE",
"-14 615 OFFCURVE",
"-28 615 CURVE SMOOTH",
"-55 615 OFFCURVE",
"-86 599 OFFCURVE",
"-103 528 CURVE"
);
}
);
width = 104;
},
{
components = (
{
name = "alef-ar.short";
}
);
layerId = "0E844BAD-773F-41FF-B6D6-C35F1E5E991C";
name = Bold;
paths = (
{
closed = 1;
nodes = (
"-119 605 OFFCURVE",
"-95 588 OFFCURVE",
"-89 585 CURVE",
"-89 585 OFFCURVE",
"-70 627 OFFCURVE",
"-33 627 CURVE SMOOTH",
"-23 627 OFFCURVE",
"-10 624 OFFCURVE",
"5 620 CURVE SMOOTH",
"26 615 OFFCURVE",
"53 608 OFFCURVE",
"89 608 CURVE SMOOTH",
"152 608 OFFCURVE",
"199 629 OFFCURVE",
"228 646 CURVE SMOOTH",
"260 665 OFFCURVE",
"274 682 OFFCURVE",
"277 685 CURVE SMOOTH",
"281 689 OFFCURVE",
"292 719 OFFCURVE",
"295 737 CURVE",
"295 737 OFFCURVE",
"221 695 OFFCURVE",
"151 695 CURVE SMOOTH",
"113 695 OFFCURVE",
"73 707 OFFCURVE",
"46 715 CURVE SMOOTH",
"20 723 OFFCURVE",
"-4 730 OFFCURVE",
"-25 730 CURVE SMOOTH",
"-110 730 OFFCURVE",
"-124 617 OFFCURVE",
"-124 617 CURVE"
);
}
);
width = 160;
}
);
unicode = 0622;
},
{
glyphname = "alefMadda-ar.fina";
lastChange = "2015-10-10 01:22:58 +0000";
layers = (
{
components = (
{
name = "alef-ar.fina.short";
}
);
layerId = "51F41761-070F-43EA-B302-C90910850260";
name = Regular;
paths = (
{
closed = 1;
nodes = (
"-41 510 OFFCURVE",
"-38 507 OFFCURVE",
"-36 505 CURVE",
"-20 528 OFFCURVE",
"-3 538 OFFCURVE",
"20 538 CURVE SMOOTH",
"33 538 OFFCURVE",
"46 535 OFFCURVE",
"61 531 CURVE SMOOTH",
"82 525 OFFCURVE",
"103 519 OFFCURVE",
"133 519 CURVE SMOOTH",
"185 519 OFFCURVE",
"229 537 OFFCURVE",
"254 554 CURVE SMOOTH",
"263 560 OFFCURVE",
"276 570 OFFCURVE",
"279 573 CURVE",
"277 577 OFFCURVE",
"276 578 OFFCURVE",
"274 580 CURVE",
"247 570 OFFCURVE",
"220 565 OFFCURVE",
"193 565 CURVE SMOOTH",
"153 565 OFFCURVE",
"119 576 OFFCURVE",
"89 586 CURVE SMOOTH",
"57 596 OFFCURVE",
"40 600 OFFCURVE",
"27 600 CURVE SMOOTH",
"2 600 OFFCURVE",
"-27 584 OFFCURVE",
"-43 513 CURVE"
);
}
);
width = 232;
},
{
components = (
{
name = "alef-ar.fina.short";
}
);
layerId = "0E844BAD-773F-41FF-B6D6-C35F1E5E991C";
name = Bold;
paths = (
{
closed = 1;
nodes = (
"-78 598 OFFCURVE",
"-55 582 OFFCURVE",
"-49 579 CURVE",
"-49 579 OFFCURVE",
"-30 619 OFFCURVE",
"6 619 CURVE SMOOTH",
"16 619 OFFCURVE",
"29 616 OFFCURVE",
"43 612 CURVE SMOOTH",
"64 608 OFFCURVE",
"90 601 OFFCURVE",
"126 601 CURVE SMOOTH",
"187 601 OFFCURVE",
"233 621 OFFCURVE",
"262 637 CURVE SMOOTH",
"293 655 OFFCURVE",
"307 671 OFFCURVE",
"310 674 CURVE SMOOTH",
"314 678 OFFCURVE",
"324 706 OFFCURVE",
"327 723 CURVE",
"327 723 OFFCURVE",
"255 684 OFFCURVE",
"186 684 CURVE SMOOTH",
"149 684 OFFCURVE",
"110 695 OFFCURVE",
"83 703 CURVE SMOOTH",
"58 710 OFFCURVE",
"35 717 OFFCURVE",
"14 717 CURVE SMOOTH",
"-69 717 OFFCURVE",
"-83 609 OFFCURVE",
"-83 609 CURVE"
);
}
);
width = 259;
}
);
unicode = FE82;
},
{
glyphname = "dotlessbeh-ar";
lastChange = "2015-10-10 00:15:26 +0000";
layers = (
{
layerId = "51F41761-070F-43EA-B302-C90910850260";
name = Regular;
paths = (
{
closed = 1;
nodes = (
"684 292 OFFCURVE",
"667 263 OFFCURVE",
"657 241 CURVE",
"682 215 OFFCURVE",
"698 192 OFFCURVE",
"713 162 CURVE",
"713 162 OFFCURVE",
"671 127 OFFCURVE",
"564 109 CURVE SMOOTH",
"517 101 OFFCURVE",
"451 95 OFFCURVE",
"376 95 CURVE SMOOTH",
"333 95 OFFCURVE",
"264 97 OFFCURVE",
"213 106 CURVE SMOOTH",
"130 120 OFFCURVE",
"84 148 OFFCURVE",
"72 222 CURVE",
"53 229 LINE",
"42 131 OFFCURVE",
"65 84 OFFCURVE",
"89 58 CURVE SMOOTH",
"116 29 OFFCURVE",
"152 16 OFFCURVE",
"213 5 CURVE SMOOTH",
"252 -2 OFFCURVE",
"295 -7 OFFCURVE",
"356 -7 CURVE SMOOTH",
"466 -7 OFFCURVE",
"561 9 OFFCURVE",
"631 38 CURVE SMOOTH",
"734 81 OFFCURVE",
"752 141 OFFCURVE",
"752 183 CURVE SMOOTH",
"752 227 OFFCURVE",
"732 274 OFFCURVE",
"700 310 CURVE"
);
}
);
width = 782;
},
{
layerId = "0E844BAD-773F-41FF-B6D6-C35F1E5E991C";
name = Bold;
paths = (
{
closed = 1;
nodes = (
"710 334 OFFCURVE",
"679 287 OFFCURVE",
"667 254 CURVE",
"690 232 OFFCURVE",
"707 212 OFFCURVE",
"725 185 CURVE",
"698 172 OFFCURVE",
"652 156 OFFCURVE",
"595 146 CURVE SMOOTH",
"544 137 OFFCURVE",
"482 132 OFFCURVE",
"419 132 CURVE SMOOTH",
"350 132 OFFCURVE",
"284 138 OFFCURVE",
"250 143 CURVE SMOOTH",
"110 164 OFFCURVE",
"113 240 OFFCURVE",
"114 260 CURVE",
"70 271 LINE",
"63 247 OFFCURVE",
"37 137 OFFCURVE",
"108 62 CURVE SMOOTH",
"140 28 OFFCURVE",
"183 12 OFFCURVE",
"243 1 CURVE SMOOTH",
"276 -5 OFFCURVE",
"324 -11 OFFCURVE",
"391 -11 CURVE SMOOTH",
"503 -11 OFFCURVE",
"601 7 OFFCURVE",
"672 36 CURVE SMOOTH",
"761 73 OFFCURVE",
"808 142 OFFCURVE",
"809 213 CURVE SMOOTH",
"809 264 OFFCURVE",
"785 315 OFFCURVE",
"734 356 CURVE"
);
}
);
width = 849;
}
);
unicode = 066E;
},
{
glyphname = "dotlessbeh-ar.fina";
lastChange = "2015-10-10 00:24:02 +0000";
layers = (
{
layerId = "51F41761-070F-43EA-B302-C90910850260";
name = Regular;
paths = (
{
closed = 1;
nodes = (
"704 158 OFFCURVE",
"664 117 OFFCURVE",
"534 99 CURVE SMOOTH",
"473 91 OFFCURVE",
"430 91 OFFCURVE",
"428 91 CURVE SMOOTH",
"302 91 OFFCURVE",
"228 92 OFFCURVE",
"172 110 CURVE SMOOTH",
"109 129 OFFCURVE",
"84 162 OFFCURVE",
"73 220 CURVE SMOOTH",
"54 228 LINE",
"48 191 OFFCURVE",
"45 133 OFFCURVE",
"71 87 CURVE SMOOTH",
"102 32 OFFCURVE",
"165 11 OFFCURVE",
"213 3 CURVE SMOOTH",
"249 -3 OFFCURVE",
"307 -6 OFFCURVE",
"360 -6 CURVE SMOOTH",
"512 -6 OFFCURVE",
"585 19 OFFCURVE",
"618 35 CURVE SMOOTH",
"680 65 OFFCURVE",
"705 109 OFFCURVE",
"705 109 CURVE SMOOTH",
"705 109 OFFCURVE",
"703 72 OFFCURVE",
"724 43 CURVE SMOOTH",
"743 17 OFFCURVE",
"779 0 OFFCURVE",
"828 0 CURVE SMOOTH",
"873 0 LINE",
"873 98 LINE",
"831 98 LINE SMOOTH",
"749 98 OFFCURVE",
"735 144 OFFCURVE",
"733 153 CURVE SMOOTH",
"733 153 OFFCURVE",
"750 175 OFFCURVE",
"757 184 CURVE",
"734 189 LINE"
);
}
);
width = 853;
},
{
layerId = "0E844BAD-773F-41FF-B6D6-C35F1E5E991C";
name = Bold;
paths = (
{
closed = 1;
nodes = (
"690 158 OFFCURVE",
"621 146 OFFCURVE",
"562 140 CURVE SMOOTH",
"493 133 OFFCURVE",
"472 132 OFFCURVE",
"416 132 CURVE SMOOTH",
"320 132 OFFCURVE",
"259 135 OFFCURVE",
"209 149 CURVE SMOOTH",
"128 173 OFFCURVE",
"115 225 OFFCURVE",
"111 259 CURVE",
"67 269 LINE",
"58 220 OFFCURVE",
"52 155 OFFCURVE",
"84 98 CURVE SMOOTH",
"119 36 OFFCURVE",
"183 10 OFFCURVE",
"240 0 CURVE SMOOTH",
"279 -7 OFFCURVE",
"326 -10 OFFCURVE",
"384 -10 CURVE SMOOTH",
"472 -10 OFFCURVE",
"541 -3 OFFCURVE",
"595 11 CURVE SMOOTH",
"647 25 OFFCURVE",
"692 51 OFFCURVE",
"723 82 CURVE",
"725 77 OFFCURVE",
"732 54 OFFCURVE",
"755 34 CURVE SMOOTH",
"776 16 OFFCURVE",
"808 0 OFFCURVE",
"859 0 CURVE SMOOTH",
"924 0 LINE",
"924 139 LINE",
"862 139 LINE SMOOTH",
"824 139 OFFCURVE",
"798 154 OFFCURVE",
"787 171 CURVE",
"795 180 OFFCURVE",
"820 215 OFFCURVE",
"820 215 CURVE",
"771 233 LINE"
);
}
);
width = 894;
}
);
},
{
glyphname = "dotlessbeh-ar.medi";
lastChange = "2015-10-13 00:02:56 +0000";
layers = (
{
layerId = "51F41761-070F-43EA-B302-C90910850260";
name = Regular;
paths = (
{
closed = 1;
nodes = (
"114 183 LINE",
"109 127 OFFCURVE",
"89 98 OFFCURVE",
"19 98 CURVE SMOOTH",
"-21 98 LINE SMOOTH",
"-48 98 OFFCURVE",
"-70 77 OFFCURVE",
"-70 50 CURVE SMOOTH",
"-70 22 OFFCURVE",
"-48 0 OFFCURVE",
"-21 0 CURVE SMOOTH",
"38 0 LINE SMOOTH",
"69 0 OFFCURVE",
"95 11 OFFCURVE",
"114 31 CURVE SMOOTH",
"133 51 OFFCURVE",
"138 73 OFFCURVE",
"139 76 CURVE",
"140 68 OFFCURVE",
"145 50 OFFCURVE",
"160 33 CURVE SMOOTH",
"176 15 OFFCURVE",
"200 0 OFFCURVE",
"244 0 CURVE SMOOTH",
"284 0 LINE",
"284 98 LINE",
"230 98 LINE SMOOTH",
"195 98 OFFCURVE",
"170 107 OFFCURVE",
"154 125 CURVE SMOOTH",
"140 141 OFFCURVE",
"134 164 OFFCURVE",
"136 195 CURVE"
);
}
);
width = 264;
},
{
layerId = "0E844BAD-773F-41FF-B6D6-C35F1E5E991C";
name = Bold;
paths = (
{
closed = 1;
nodes = (
"109 227 LINE",
"109 227 OFFCURVE",
"103 139 OFFCURVE",
"30 139 CURVE SMOOTH",
"-20 139 LINE SMOOTH",
"-44 139 OFFCURVE",
"-90 120 OFFCURVE",
"-90 71 CURVE SMOOTH",
"-90 31 OFFCURVE",
"-59 0 OFFCURVE",
"-20 0 CURVE SMOOTH",
"38 0 LINE SMOOTH",
"71 0 OFFCURVE",
"96 11 OFFCURVE",
"113 23 CURVE SMOOTH",
"129 35 OFFCURVE",
"138 48 OFFCURVE",
"139 50 CURVE",
"140 48 OFFCURVE",
"145 36 OFFCURVE",
"163 23 CURVE SMOOTH",
"180 11 OFFCURVE",
"205 0 OFFCURVE",
"245 0 CURVE SMOOTH",
"305 0 LINE",
"305 139 LINE",
"231 139 LINE SMOOTH",
"202 139 OFFCURVE",
"182 146 OFFCURVE",
"170 159 CURVE SMOOTH",
"147 186 OFFCURVE",
"160 246 OFFCURVE",
"160 246 CURVE"
);
}
);
width = 285;
}
);
},
{
glyphname = "dotlessbeh-ar.init";
lastChange = "2015-10-13 00:00:57 +0000";
layers = (
{
layerId = "51F41761-070F-43EA-B302-C90910850260";
name = Regular;
paths = (
{
closed = 1;
nodes = (
"94 290 OFFCURVE",
"82 270 OFFCURVE",
"68 240 CURVE",
"90 215 OFFCURVE",
"109 189 OFFCURVE",
"129 158 CURVE",
"129 158 OFFCURVE",
"111 98 OFFCURVE",
"34 98 CURVE SMOOTH",
"-21 98 LINE SMOOTH",
"-50 98 OFFCURVE",
"-70 77 OFFCURVE",
"-70 50 CURVE",
"-70 22 OFFCURVE",
"-49 0 OFFCURVE",
"-21 0 CURVE",
"26 0 LINE SMOOTH",
"74 0 OFFCURVE",
"108 19 OFFCURVE",
"132 56 CURVE SMOOTH",
"153 89 OFFCURVE",
"163 132 OFFCURVE",
"163 175 CURVE SMOOTH",
"163 225 OFFCURVE",
"144 273 OFFCURVE",
"111 309 CURVE"
);
}
);
width = 193;
},
{
layerId = "0E844BAD-773F-41FF-B6D6-C35F1E5E991C";
name = Bold;
paths = (
{
closed = 1;
nodes = (
"85 330 OFFCURVE",
"68 303 OFFCURVE",
"45 257 CURVE",
"68 232 OFFCURVE",
"91 206 OFFCURVE",
"114 176 CURVE",
"98 152 OFFCURVE",
"62 139 OFFCURVE",
"35 139 CURVE SMOOTH",
"-20 139 LINE SMOOTH",
"-54 139 OFFCURVE",
"-90 113 OFFCURVE",
"-90 70 CURVE SMOOTH",
"-90 31 OFFCURVE",
"-59 0 OFFCURVE",
"-20 0 CURVE SMOOTH",
"27 0 LINE SMOOTH",
"80 0 OFFCURVE",
"122 22 OFFCURVE",
"149 65 CURVE SMOOTH",
"172 101 OFFCURVE",
"184 148 OFFCURVE",
"184 192 CURVE SMOOTH",
"184 298 OFFCURVE",
"113 360 OFFCURVE",
"113 360 CURVE"
);
}
);
width = 224;
}
);
},
{
glyphname = "hah-ar";
lastChange = "2015-10-09 21:16:39 +0000";
layers = (
{
layerId = "51F41761-070F-43EA-B302-C90910850260";
name = Regular;
paths = (
{
closed = 1;
nodes = (
"284 312 OFFCURVE",
"379 316 OFFCURVE",
"454 307 CURVE",
"465 333 OFFCURVE",
"477 379 OFFCURVE",
"478 381 CURVE",
"470 381 OFFCURVE",
"462 381 OFFCURVE",
"454 381 CURVE SMOOTH",
"344 381 OFFCURVE",
"261 412 OFFCURVE",
"252 415 CURVE SMOOTH",
"227 423 OFFCURVE",
"207 430 OFFCURVE",
"181 430 CURVE SMOOTH",
"157 430 OFFCURVE",
"140 424 OFFCURVE",
"124 409 CURVE SMOOTH",
"109 395 OFFCURVE",
"95 377 OFFCURVE",
"73 328 CURVE",
"89 317 LINE",
"99 334 OFFCURVE",
"121 360 OFFCURVE",
"174 360 CURVE SMOOTH",
"223 360 OFFCURVE",
"281 338 OFFCURVE",
"300 331 CURVE",
"264 320 OFFCURVE",
"218 305 OFFCURVE",
"171 267 CURVE SMOOTH",
"139 241 OFFCURVE",
"116 212 OFFCURVE",
"97 180 CURVE SMOOTH",
"71 136 OFFCURVE",
"55 89 OFFCURVE",
"51 42 CURVE SMOOTH",
"45 -28 OFFCURVE",
"66 -86 OFFCURVE",
"105 -129 CURVE SMOOTH",
"145 -173 OFFCURVE",
"201 -199 OFFCURVE",
"269 -199 CURVE SMOOTH",
"315 -199 OFFCURVE",
"339 -187 OFFCURVE",
"364 -173 CURVE SMOOTH",
"388 -160 OFFCURVE",
"414 -147 OFFCURVE",
"459 -145 CURVE",
"464 -130 LINE",
"428 -125 OFFCURVE",
"419 -125 OFFCURVE",
"382 -122 CURVE SMOOTH",
"341 -119 OFFCURVE",
"307 -114 OFFCURVE",
"294 -112 CURVE SMOOTH",
"230 -102 OFFCURVE",
"180 -78 OFFCURVE",
"148 -41 CURVE SMOOTH",
"117 -5 OFFCURVE",
"106 40 OFFCURVE",
"108 80 CURVE SMOOTH",
"111 141 OFFCURVE",
"147 205 OFFCURVE",
"202 248 CURVE SMOOTH"
);
}
);
width = 508;
},
{
layerId = "0E844BAD-773F-41FF-B6D6-C35F1E5E991C";
name = Bold;
paths = (
{
closed = 1;
nodes = (
"280 283 OFFCURVE",
"377 325 OFFCURVE",
"497 305 CURVE",
"515 344 OFFCURVE",
"525 384 OFFCURVE",
"536 423 CURVE",
"520 422 OFFCURVE",
"498 421 OFFCURVE",
"477 421 CURVE SMOOTH",
"375 421 OFFCURVE",
"316 445 OFFCURVE",
"290 454 CURVE SMOOTH",
"250 468 OFFCURVE",
"224 470 OFFCURVE",
"210 470 CURVE SMOOTH",
"164 470 OFFCURVE",
"135 450 OFFCURVE",
"104 393 CURVE SMOOTH",
"90 368 OFFCURVE",
"79 341 OFFCURVE",
"79 341 CURVE",
"114 312 LINE",
"136 347 OFFCURVE",
"154 359 OFFCURVE",
"199 359 CURVE SMOOTH",
"222 359 OFFCURVE",
"241 356 OFFCURVE",
"265 349 CURVE",
"245 340 OFFCURVE",
"217 325 OFFCURVE",
"189 302 CURVE SMOOTH",
"158 277 OFFCURVE",
"130 245 OFFCURVE",
"109 209 CURVE SMOOTH",
"82 163 OFFCURVE",
"65 110 OFFCURVE",
"61 63 CURVE SMOOTH",
"55 -8 OFFCURVE",
"76 -74 OFFCURVE",
"120 -123 CURVE SMOOTH",
"165 -173 OFFCURVE",
"228 -200 OFFCURVE",
"300 -200 CURVE SMOOTH",
"351 -200 OFFCURVE",
"378 -186 OFFCURVE",
"404 -172 CURVE SMOOTH",
"429 -159 OFFCURVE",
"462 -144 OFFCURVE",
"504 -146 CURVE",
"521 -93 LINE",
"479 -85 OFFCURVE",
"440 -83 OFFCURVE",
"414 -82 CURVE SMOOTH",
"407 -82 OFFCURVE",
"357 -79 OFFCURVE",
"317 -72 CURVE SMOOTH",
"260 -62 OFFCURVE",
"213 -43 OFFCURVE",
"183 -7 CURVE SMOOTH",
"159 22 OFFCURVE",
"148 58 OFFCURVE",
"150 98 CURVE SMOOTH",
"153 158 OFFCURVE",
"184 213 OFFCURVE",
"236 251 CURVE SMOOTH"
);
}
);
width = 576;
}
);
unicode = 062D;
},
{
glyphname = "hah-ar.fina";
lastChange = "2015-10-10 03:28:31 +0000";
layers = (
{
layerId = "51F41761-070F-43EA-B302-C90910850260";
name = Regular;
paths = (
{
closed = 1;
nodes = (
"534 98 LINE SMOOTH",
"491 98 OFFCURVE",
"460 110 OFFCURVE",
"440 129 CURVE SMOOTH",
"415 152 OFFCURVE",
"414 178 OFFCURVE",
"416 197 CURVE",
"423 198 OFFCURVE",
"445 198 OFFCURVE",
"454 196 CURVE",
"465 222 OFFCURVE",
"477 268 OFFCURVE",
"478 270 CURVE",
"470 270 OFFCURVE",
"462 270 OFFCURVE",
"454 270 CURVE SMOOTH",
"344 270 OFFCURVE",
"261 301 OFFCURVE",
"252 304 CURVE SMOOTH",
"227 312 OFFCURVE",
"207 319 OFFCURVE",
"181 319 CURVE SMOOTH",
"157 319 OFFCURVE",
"140 313 OFFCURVE",
"124 298 CURVE SMOOTH",
"109 284 OFFCURVE",
"95 266 OFFCURVE",
"73 217 CURVE",
"89 206 LINE",
"99 223 OFFCURVE",
"121 249 OFFCURVE",
"174 249 CURVE SMOOTH",
"223 249 OFFCURVE",
"281 227 OFFCURVE",
"300 220 CURVE",
"264 209 OFFCURVE",
"218 194 OFFCURVE",
"171 156 CURVE SMOOTH",
"139 130 OFFCURVE",
"116 101 OFFCURVE",
"97 69 CURVE SMOOTH",
"71 25 OFFCURVE",
"55 -22 OFFCURVE",
"51 -69 CURVE SMOOTH",
"45 -139 OFFCURVE",
"66 -197 OFFCURVE",
"105 -240 CURVE SMOOTH",
"145 -284 OFFCURVE",
"201 -310 OFFCURVE",
"269 -310 CURVE SMOOTH",
"315 -310 OFFCURVE",
"339 -298 OFFCURVE",
"364 -284 CURVE SMOOTH",
"388 -271 OFFCURVE",
"414 -258 OFFCURVE",
"459 -256 CURVE",
"464 -241 LINE",
"428 -236 OFFCURVE",
"419 -235 OFFCURVE",
"382 -233 CURVE SMOOTH",
"331 -230 OFFCURVE",
"297 -225 OFFCURVE",
"284 -223 CURVE SMOOTH",
"230 -213 OFFCURVE",
"180 -189 OFFCURVE",
"148 -152 CURVE SMOOTH",
"117 -116 OFFCURVE",
"106 -71 OFFCURVE",
"108 -31 CURVE SMOOTH",
"111 30 OFFCURVE",
"147 94 OFFCURVE",
"202 137 CURVE SMOOTH",
"284 201 OFFCURVE",
"370 200 OFFCURVE",
"383 200 CURVE",
"376 143 OFFCURVE",
"377 95 OFFCURVE",
"397 64 CURVE SMOOTH",
"422 25 OFFCURVE",
"459 0 OFFCURVE",
"523 0 CURVE SMOOTH",
"591 0 LINE",
"591 98 LINE"
);
}
);
width = 571;
},
{
layerId = "0E844BAD-773F-41FF-B6D6-C35F1E5E991C";
name = Bold;
paths = (
{
closed = 1;
nodes = (
"565 139 LINE SMOOTH",
"525 139 OFFCURVE",
"502 148 OFFCURVE",
"488 161 CURVE SMOOTH",
"476 172 OFFCURVE",
"471 184 OFFCURVE",
"469 197 CURVE",
"476 197 OFFCURVE",
"489 196 OFFCURVE",
"497 195 CURVE",
"515 234 OFFCURVE",
"525 274 OFFCURVE",
"536 313 CURVE",
"520 312 OFFCURVE",
"498 311 OFFCURVE",
"477 311 CURVE SMOOTH",
"375 311 OFFCURVE",
"316 335 OFFCURVE",
"290 344 CURVE SMOOTH",
"250 358 OFFCURVE",
"224 360 OFFCURVE",
"210 360 CURVE SMOOTH",
"164 360 OFFCURVE",
"135 340 OFFCURVE",
"104 283 CURVE SMOOTH",
"90 258 OFFCURVE",
"79 231 OFFCURVE",
"79 231 CURVE",
"114 202 LINE",
"136 237 OFFCURVE",
"154 249 OFFCURVE",
"199 249 CURVE SMOOTH",
"222 249 OFFCURVE",
"241 246 OFFCURVE",
"265 239 CURVE",
"245 230 OFFCURVE",
"217 215 OFFCURVE",
"189 192 CURVE SMOOTH",
"158 167 OFFCURVE",
"130 135 OFFCURVE",
"109 99 CURVE SMOOTH",
"82 53 OFFCURVE",
"65 0 OFFCURVE",
"61 -47 CURVE SMOOTH",
"55 -118 OFFCURVE",
"76 -184 OFFCURVE",
"120 -233 CURVE SMOOTH",
"165 -283 OFFCURVE",
"228 -310 OFFCURVE",
"300 -310 CURVE SMOOTH",
"351 -310 OFFCURVE",
"378 -296 OFFCURVE",
"404 -282 CURVE SMOOTH",
"429 -269 OFFCURVE",
"462 -254 OFFCURVE",
"504 -256 CURVE",
"521 -203 LINE",
"479 -195 OFFCURVE",
"440 -193 OFFCURVE",
"414 -192 CURVE SMOOTH",
"407 -192 OFFCURVE",
"357 -189 OFFCURVE",
"317 -182 CURVE SMOOTH",
"260 -172 OFFCURVE",
"213 -153 OFFCURVE",
"183 -117 CURVE SMOOTH",
"159 -88 OFFCURVE",
"148 -52 OFFCURVE",
"150 -12 CURVE SMOOTH",
"153 48 OFFCURVE",
"184 103 OFFCURVE",
"236 141 CURVE SMOOTH",
"280 173 OFFCURVE",
"339 194 OFFCURVE",
"403 199 CURVE",
"397 144 OFFCURVE",
"403 99 OFFCURVE",
"422 66 CURVE SMOOTH",
"446 23 OFFCURVE",
"492 0 OFFCURVE",
"561 0 CURVE SMOOTH",
"643 0 LINE",
"643 139 LINE"
);
}
);
width = 613;
}
);
unicode = FEA2;
},
{
glyphname = "hah-ar.medi";
lastChange = "2015-10-10 03:27:44 +0000";
layers = (
{
layerId = "51F41761-070F-43EA-B302-C90910850260";
name = Regular;
paths = (
{
closed = 1;
nodes = (
"491 257 OFFCURVE",
"485 256 OFFCURVE",
"463 256 CURVE SMOOTH",
"350 256 OFFCURVE",
"274 283 OFFCURVE",
"225 301 CURVE SMOOTH",
"190 314 OFFCURVE",
"167 322 OFFCURVE",
"143 322 CURVE SMOOTH",
"115 322 OFFCURVE",
"91 311 OFFCURVE",
"71 289 CURVE SMOOTH",
"53 269 OFFCURVE",
"38 241 OFFCURVE",
"27 205 CURVE",
"43 194 LINE",
"62 221 OFFCURVE",
"68 241 OFFCURVE",
"105 243 CURVE SMOOTH",
"175 247 OFFCURVE",
"283 201 OFFCURVE",
"311 191 CURVE",
"291 172 OFFCURVE",
"276 160 OFFCURVE",
"229 139 CURVE SMOOTH",
"188 121 OFFCURVE",
"118 98 OFFCURVE",
"26 98 CURVE SMOOTH",
"-21 98 LINE SMOOTH",
"-48 98 OFFCURVE",
"-70 76 OFFCURVE",
"-70 49 CURVE SMOOTH",
"-70 23 OFFCURVE",
"-49 0 OFFCURVE",
"-21 0 CURVE SMOOTH",
"31 0 LINE SMOOTH",
"84 0 OFFCURVE",
"133 13 OFFCURVE",
"183 38 CURVE SMOOTH",
"237 66 OFFCURVE",
"278 102 OFFCURVE",
"313 127 CURVE SMOOTH",
"332 140 OFFCURVE",
"349 151 OFFCURVE",
"365 154 CURVE",
"364 113 OFFCURVE",
"369 81 OFFCURVE",
"390 51 CURVE SMOOTH",
"414 17 OFFCURVE",
"457 0 OFFCURVE",
"507 0 CURVE SMOOTH",
"599 0 LINE",
"599 98 LINE",
"496 98 LINE SMOOTH",
"437 98 OFFCURVE",
"401 112 OFFCURVE",
"396 159 CURVE",
"415 165 OFFCURVE",
"440 166 OFFCURVE",
"464 161 CURVE",
"481 193 OFFCURVE",
"494 223 OFFCURVE",
"508 257 CURVE"
);
}
);
width = 579;
},
{
layerId = "0E844BAD-773F-41FF-B6D6-C35F1E5E991C";
name = Bold;
paths = (
{
closed = 1;
nodes = (
"533 300 OFFCURVE",
"526 299 OFFCURVE",
"520 299 CURVE SMOOTH",
"376 295 OFFCURVE",
"344 300 OFFCURVE",
"232 341 CURVE SMOOTH",
"200 353 OFFCURVE",
"172 363 OFFCURVE",
"143 363 CURVE SMOOTH",
"110 363 OFFCURVE",
"82 350 OFFCURVE",
"57 323 CURVE SMOOTH",
"25 289 OFFCURVE",
"11 247 OFFCURVE",
"4 224 CURVE",
"38 193 LINE",
"54 226 OFFCURVE",
"70 244 OFFCURVE",
"113 244 CURVE SMOOTH",
"165 244 OFFCURVE",
"223 218 OFFCURVE",
"270 204 CURVE",
"253 192 OFFCURVE",
"214 172 OFFCURVE",
"174 160 CURVE SMOOTH",
"135 148 OFFCURVE",
"85 139 OFFCURVE",
"27 139 CURVE SMOOTH",
"-20 139 LINE SMOOTH",
"-59 139 OFFCURVE",
"-90 108 OFFCURVE",
"-90 70 CURVE SMOOTH",
"-90 29 OFFCURVE",
"-54 0 OFFCURVE",
"-20 0 CURVE SMOOTH",
"32 0 LINE SMOOTH",
"89 0 OFFCURVE",
"132 13 OFFCURVE",
"171 30 CURVE SMOOTH",
"224 53 OFFCURVE",
"259 80 OFFCURVE",
"302 114 CURVE SMOOTH",
"312 122 OFFCURVE",
"338 141 OFFCURVE",
"347 146 CURVE",
"351 111 OFFCURVE",
"360 83 OFFCURVE",
"376 60 CURVE SMOOTH",
"405 18 OFFCURVE",
"450 0 OFFCURVE",
"510 0 CURVE SMOOTH",
"620 0 LINE",
"620 139 LINE",
"497 139 LINE SMOOTH",
"459 139 OFFCURVE",
"434 151 OFFCURVE",
"424 176 CURVE",
"447 177 OFFCURVE",
"481 172 OFFCURVE",
"481 172 CURVE",
"508 220 OFFCURVE",
"520 249 OFFCURVE",
"539 300 CURVE"
);
}
);
width = 590;
}
);
unicode = FEA4;
},
{
glyphname = "hah-ar.init";
lastChange = "2015-10-09 20:47:23 +0000";
layers = (
{
layerId = "51F41761-070F-43EA-B302-C90910850260";
name = Regular;
paths = (
{
closed = 1;
nodes = (
"486 229 OFFCURVE",
"475 229 OFFCURVE",
"464 229 CURVE SMOOTH",
"349 229 OFFCURVE",
"279 257 OFFCURVE",
"226 278 CURVE SMOOTH",
"194 291 OFFCURVE",
"168 301 OFFCURVE",
"142 301 CURVE SMOOTH",
"115 301 OFFCURVE",
"91 290 OFFCURVE",
"71 268 CURVE SMOOTH",
"53 248 OFFCURVE",
"38 220 OFFCURVE",
"27 184 CURVE",
"43 173 LINE",
"61 203 OFFCURVE",
"69 219 OFFCURVE",
"105 222 CURVE SMOOTH",
"166 228 OFFCURVE",
"274 182 OFFCURVE",
"313 169 CURVE SMOOTH",
"313 169 OFFCURVE",
"279 145 OFFCURVE",
"229 128 CURVE SMOOTH",
"193 116 OFFCURVE",
"117 98 OFFCURVE",
"27 98 CURVE SMOOTH",
"-21 98 LINE SMOOTH",
"-49 98 OFFCURVE",
"-70 76 OFFCURVE",
"-70 49 CURVE SMOOTH",
"-70 24 OFFCURVE",
"-52 0 OFFCURVE",
"-21 0 CURVE SMOOTH",
"32 0 LINE SMOOTH",
"132 0 OFFCURVE",
"193 36 OFFCURVE",
"252 71 CURVE SMOOTH",
"307 104 OFFCURVE",
"365 138 OFFCURVE",
"453 139 CURVE",
"471 172 OFFCURVE",
"483 196 OFFCURVE",
"497 229 CURVE"
);
}
);
width = 527;
},
{
layerId = "0E844BAD-773F-41FF-B6D6-C35F1E5E991C";
name = Bold;
paths = (
{
closed = 1;
nodes = (
"522 272 OFFCURVE",
"515 271 OFFCURVE",
"509 271 CURVE SMOOTH",
"361 271 OFFCURVE",
"351 273 OFFCURVE",
"234 318 CURVE SMOOTH",
"201 331 OFFCURVE",
"173 342 OFFCURVE",
"144 342 CURVE SMOOTH",
"111 342 OFFCURVE",
"81 328 OFFCURVE",
"57 303 CURVE SMOOTH",
"34 279 OFFCURVE",
"23 255 OFFCURVE",
"15 212 CURVE",
"48 181 LINE",
"65 215 OFFCURVE",
"83 225 OFFCURVE",
"118 225 CURVE SMOOTH",
"137 225 OFFCURVE",
"170 222 OFFCURVE",
"275 185 CURVE",
"252 174 OFFCURVE",
"211 160 OFFCURVE",
"172 152 CURVE SMOOTH",
"137 145 OFFCURVE",
"85 139 OFFCURVE",
"37 139 CURVE SMOOTH",
"-20 139 LINE SMOOTH",
"-59 139 OFFCURVE",
"-90 111 OFFCURVE",
"-90 69 CURVE SMOOTH",
"-90 26 OFFCURVE",
"-57 0 OFFCURVE",
"-20 0 CURVE SMOOTH",
"32 0 LINE SMOOTH",
"149 0 OFFCURVE",
"214 42 OFFCURVE",
"263 74 CURVE SMOOTH",
"338 123 OFFCURVE",
"365 139 OFFCURVE",
"466 139 CURVE",
"493 183 OFFCURVE",
"511 225 OFFCURVE",
"528 272 CURVE"
);
}
);
width = 568;
}
);
unicode = FEA3;
},
{
glyphname = "dal-ar";
lastChange = "2015-10-10 03:20:31 +0000";
layers = (
{
layerId = "51F41761-070F-43EA-B302-C90910850260";
name = Regular;
paths = (
{
closed = 1;
nodes = (
"363 242 OFFCURVE",
"322 288 OFFCURVE",
"288 319 CURVE SMOOTH",
"254 349 OFFCURVE",
"217 370 OFFCURVE",
"199 378 CURVE",
"188 348 OFFCURVE",
"180 324 OFFCURVE",
"175 294 CURVE",
"272 255 OFFCURVE",
"322 164 OFFCURVE",
"322 164 CURVE SMOOTH",
"322 164 OFFCURVE",
"300 90 OFFCURVE",
"202 90 CURVE SMOOTH",
"161 90 LINE SMOOTH",
"128 90 OFFCURVE",
"109 99 OFFCURVE",
"93 117 CURVE SMOOTH",
"80 130 OFFCURVE",
"73 147 OFFCURVE",
"71 168 CURVE",
"54 164 LINE",
"50 143 OFFCURVE",
"41 79 OFFCURVE",
"75 35 CURVE SMOOTH",
"97 7 OFFCURVE",
"133 -6 OFFCURVE",
"181 -6 CURVE SMOOTH",
"236 -6 OFFCURVE",
"282 11 OFFCURVE",
"314 44 CURVE SMOOTH",
"346 77 OFFCURVE",
"363 126 OFFCURVE",
"363 171 CURVE SMOOTH"
);
}
);
width = 393;
},
{
layerId = "0E844BAD-773F-41FF-B6D6-C35F1E5E991C";
name = Bold;
paths = (
{
closed = 1;
nodes = (
"414 224 OFFCURVE",
"400 293 OFFCURVE",
"334 352 CURVE SMOOTH",
"281 399 OFFCURVE",
"218 419 OFFCURVE",
"218 419 CURVE",
"203 379 OFFCURVE",
"193 340 OFFCURVE",
"183 298 CURVE",
"271 266 OFFCURVE",
"331 198 OFFCURVE",
"345 180 CURVE",
"334 165 OFFCURVE",
"300 127 OFFCURVE",
"233 127 CURVE SMOOTH",
"192 127 LINE SMOOTH",
"135 127 OFFCURVE",
"115 151 OFFCURVE",
"115 209 CURVE SMOOTH",
"115 211 OFFCURVE",
"115 214 OFFCURVE",
"115 214 CURVE",
"67 196 LINE",
"67 196 OFFCURVE",
"42 100 OFFCURVE",
"91 38 CURVE SMOOTH",
"115 8 OFFCURVE",
"154 -10 OFFCURVE",
"212 -10 CURVE SMOOTH",
"273 -10 OFFCURVE",
"324 10 OFFCURVE",
"360 47 CURVE SMOOTH",
"393 81 OFFCURVE",
"414 133 OFFCURVE",
"414 183 CURVE SMOOTH"
);
}
);
width = 454;
}
);
unicode = 062F;
},
{
glyphname = "dal-ar.fina";
lastChange = "2015-10-10 00:15:50 +0000";
layers = (
{
layerId = "51F41761-070F-43EA-B302-C90910850260";
name = Regular;
paths = (
{
closed = 1;
nodes = (
"362 360 OFFCURVE",
"345 341 OFFCURVE",
"329 319 CURVE",
"363 198 LINE",
"358 155 OFFCURVE",
"335 92 OFFCURVE",
"260 92 CURVE SMOOTH",
"226 92 LINE SMOOTH",
"192 92 OFFCURVE",
"167 101 OFFCURVE",
"150 119 CURVE SMOOTH",
"138 132 OFFCURVE",
"131 149 OFFCURVE",
"129 170 CURVE",
"112 166 LINE",
"98 92 OFFCURVE",
"119 52 OFFCURVE",
"132 35 CURVE SMOOTH",
"154 9 OFFCURVE",
"190 -5 OFFCURVE",
"239 -5 CURVE SMOOTH",
"376 -5 OFFCURVE",
"391 97 OFFCURVE",
"395 116 CURVE",
"405 76 OFFCURVE",
"416 56 OFFCURVE",
"441 33 CURVE SMOOTH",
"464 11 OFFCURVE",
"496 0 OFFCURVE",
"538 0 CURVE SMOOTH",
"570 0 LINE",
"570 98 LINE",
"539 98 LINE SMOOTH",
"481 98 OFFCURVE",
"450 128 OFFCURVE",
"426 203 CURVE",
"376 374 LINE"
);
}
);
width = 550;
},
{
layerId = "0E844BAD-773F-41FF-B6D6-C35F1E5E991C";
name = Bold;
paths = (
{
closed = 1;
nodes = (
"335 406 OFFCURVE",
"309 375 OFFCURVE",
"284 343 CURVE",
"322 209 LINE",
"322 174 OFFCURVE",
"290 133 OFFCURVE",
"234 133 CURVE SMOOTH",
"193 133 LINE SMOOTH",
"165 133 OFFCURVE",
"144 140 OFFCURVE",
"132 153 CURVE SMOOTH",
"119 167 OFFCURVE",
"116 182 OFFCURVE",
"116 220 CURVE",
"67 202 LINE",
"54 142 OFFCURVE",
"56 85 OFFCURVE",
"90 44 CURVE SMOOTH",
"116 12 OFFCURVE",
"157 -4 OFFCURVE",
"213 -4 CURVE SMOOTH",
"291 -4 OFFCURVE",
"344 24 OFFCURVE",
"371 80 CURVE",
"382 57 OFFCURVE",
"400 38 OFFCURVE",
"420 25 CURVE SMOOTH",
"446 8 OFFCURVE",
"478 0 OFFCURVE",
"512 0 CURVE SMOOTH",
"564 0 LINE",
"564 139 LINE",
"513 139 LINE SMOOTH",
"465 139 OFFCURVE",
"444 159 OFFCURVE",
"419 230 CURVE",
"360 433 LINE"
);
}
);
width = 534;
}
);
unicode = FEAA;
},
{
glyphname = "reh-ar";
lastChange = "2015-10-10 03:20:13 +0000";
layers = (
{
layerId = "51F41761-070F-43EA-B302-C90910850260";
name = Regular;
paths = (
{
closed = 1;
nodes = (
"103 220 OFFCURVE",
"90 200 OFFCURVE",
"74 171 CURVE",
"92 154 OFFCURVE",
"109 131 OFFCURVE",
"119 115 CURVE SMOOTH",
"133 93 OFFCURVE",
"142 72 OFFCURVE",
"142 42 CURVE SMOOTH",
"142 7 OFFCURVE",
"129 -24 OFFCURVE",
"102 -51 CURVE SMOOTH",
"78 -75 OFFCURVE",
"33 -103 OFFCURVE",
"10 -116 CURVE SMOOTH",
"-20 -133 OFFCURVE",
"-68 -159 OFFCURVE",
"-120 -187 CURVE",
"-111 -199 LINE",
"-83 -193 OFFCURVE",
"-58 -191 OFFCURVE",
"-41 -191 CURVE SMOOTH",
"-24 -191 OFFCURVE",
"-11 -193 OFFCURVE",
"-5 -193 CURVE SMOOTH",
"2 -193 OFFCURVE",
"3 -195 OFFCURVE",
"18 -195 CURVE SMOOTH",
"42 -195 OFFCURVE",
"65 -190 OFFCURVE",
"90 -173 CURVE SMOOTH",
"110 -160 OFFCURVE",
"130 -137 OFFCURVE",
"143 -114 CURVE SMOOTH",
"178 -53 OFFCURVE",
"185 26 OFFCURVE",
"185 68 CURVE SMOOTH",
"185 133 OFFCURVE",
"168 173 OFFCURVE",
"152 202 CURVE SMOOTH",
"141 222 OFFCURVE",
"130 236 OFFCURVE",
"123 243 CURVE"
);
}
);
width = 216;
},
{
layerId = "0E844BAD-773F-41FF-B6D6-C35F1E5E991C";
name = Bold;
paths = (
{
closed = 1;
nodes = (
"105 264 OFFCURVE",
"81 228 OFFCURVE",
"58 190 CURVE",
"58 190 OFFCURVE",
"79 176 OFFCURVE",
"103 146 CURVE SMOOTH",
"121 124 OFFCURVE",
"138 96 OFFCURVE",
"138 63 CURVE SMOOTH",
"138 3 OFFCURVE",
"84 -33 OFFCURVE",
"10 -75 CURVE SMOOTH",
"-24 -94 OFFCURVE",
"-68 -118 OFFCURVE",
"-96 -133 CURVE SMOOTH",
"-127 -150 OFFCURVE",
"-140 -156 OFFCURVE",
"-140 -156 CURVE",
"-110 -199 LINE",
"-110 -199 OFFCURVE",
"-72 -188 OFFCURVE",
"-28 -188 CURVE SMOOTH",
"-15 -188 OFFCURVE",
"-6 -189 OFFCURVE",
"6 -190 CURVE SMOOTH",
"15 -191 OFFCURVE",
"16 -191 OFFCURVE",
"18 -191 CURVE SMOOTH",
"60 -191 OFFCURVE",
"87 -183 OFFCURVE",
"112 -166 CURVE SMOOTH",
"134 -151 OFFCURVE",
"154 -127 OFFCURVE",
"169 -101 CURVE SMOOTH",
"205 -39 OFFCURVE",
"216 38 OFFCURVE",
"216 90 CURVE SMOOTH",
"216 171 OFFCURVE",
"190 225 OFFCURVE",
"164 261 CURVE SMOOTH",
"146 286 OFFCURVE",
"132 297 OFFCURVE",
"132 297 CURVE"
);
}
);
width = 257;
}
);
unicode = 0631;
},
{
glyphname = "reh-ar.fina";
lastChange = "2015-10-10 00:26:44 +0000";
layers = (
{
layerId = "51F41761-070F-43EA-B302-C90910850260";
name = Regular;
paths = (
{
closed = 1;
nodes = (
"94 140 OFFCURVE",
"79 117 OFFCURVE",
"63 87 CURVE",
"102 51 OFFCURVE",
"132 15 OFFCURVE",
"132 -44 CURVE SMOOTH",
"132 -78 OFFCURVE",
"118 -108 OFFCURVE",
"90 -135 CURVE SMOOTH",
"37 -184 OFFCURVE",
"-36 -220 OFFCURVE",
"-130 -271 CURVE",
"-122 -283 LINE",
"-101 -277 OFFCURVE",
"-78 -275 OFFCURVE",
"-57 -275 CURVE SMOOTH",
"-43 -275 OFFCURVE",
"-31 -276 OFFCURVE",
"-20 -276 CURVE SMOOTH",
"-13 -277 OFFCURVE",
"-7 -277 OFFCURVE",
"-3 -277 CURVE SMOOTH",
"40 -277 OFFCURVE",
"69 -267 OFFCURVE",
"91 -247 CURVE SMOOTH",
"123 -218 OFFCURVE",
"142 -174 OFFCURVE",
"148 -163 CURVE SMOOTH",
"186 -84 OFFCURVE",
"174 19 OFFCURVE",
"174 19 CURVE SMOOTH",
"174 19 OFFCURVE",
"197 0 OFFCURVE",
"239 0 CURVE SMOOTH",
"275 0 LINE",
"275 98 LINE",
"226 98 LINE SMOOTH",
"200 98 OFFCURVE",
"173 107 OFFCURVE",
"147 124 CURVE SMOOTH",
"140 129 OFFCURVE",
"127 141 OFFCURVE",
"111 159 CURVE"
);
}
);
width = 255;
},
{
layerId = "0E844BAD-773F-41FF-B6D6-C35F1E5E991C";
name = Bold;
paths = (
{
closed = 1;
nodes = (
"105 180 OFFCURVE",
"81 145 OFFCURVE",
"58 104 CURVE",
"58 104 OFFCURVE",
"138 45 OFFCURVE",
"138 -23 CURVE SMOOTH",
"138 -84 OFFCURVE",
"87 -118 OFFCURVE",
"10 -161 CURVE SMOOTH",
"-57 -199 OFFCURVE",
"-140 -243 OFFCURVE",
"-140 -243 CURVE",
"-110 -286 LINE",
"-110 -286 OFFCURVE",
"-78 -275 OFFCURVE",
"-28 -275 CURVE SMOOTH",
"-19 -275 OFFCURVE",
"-10 -275 OFFCURVE",
"-1 -276 CURVE SMOOTH",
"7 -277 OFFCURVE",
"13 -277 OFFCURVE",
"18 -277 CURVE SMOOTH",
"57 -277 OFFCURVE",
"87 -269 OFFCURVE",
"112 -252 CURVE SMOOTH",
"137 -235 OFFCURVE",
"155 -210 OFFCURVE",
"168 -187 CURVE SMOOTH",
"210 -118 OFFCURVE",
"217 -47 OFFCURVE",
"216 6 CURVE",
"229 2 OFFCURVE",
"244 0 OFFCURVE",
"260 0 CURVE SMOOTH",
"316 0 LINE",
"316 139 LINE",
"247 139 LINE SMOOTH",
"224 139 OFFCURVE",
"202 147 OFFCURVE",
"180 162 CURVE",
"148 185 OFFCURVE",
"135 212 OFFCURVE",
"135 212 CURVE"
);
}
);
width = 286;
}
);
unicode = FEAE;
},
{
glyphname = "seen-ar";
lastChange = "2015-10-10 03:30:28 +0000";
layers = (
{
layerId = "51F41761-070F-43EA-B302-C90910850260";
name = Regular;
paths = (
{
closed = 1;
nodes = (
"694 248 OFFCURVE",
"679 228 OFFCURVE",
"668 209 CURVE",
"711 148 LINE",
"707 124 OFFCURVE",
"679 95 OFFCURVE",
"643 95 CURVE SMOOTH",
"587 95 OFFCURVE",
"563 127 OFFCURVE",
"571 191 CURVE",
"549 179 LINE",
"547 148 OFFCURVE",
"535 96 OFFCURVE",
"472 96 CURVE SMOOTH",
"415 96 OFFCURVE",
"380 142 OFFCURVE",
"372 159 CURVE",
"358 142 OFFCURVE",
"339 118 OFFCURVE",
"325 91 CURVE",
"344 65 OFFCURVE",
"401 -14 OFFCURVE",
"401 -63 CURVE SMOOTH",
"401 -91 OFFCURVE",
"379 -118 OFFCURVE",
"344 -138 CURVE SMOOTH",
"309 -158 OFFCURVE",
"262 -170 OFFCURVE",
"205 -170 CURVE SMOOTH",
"127 -170 OFFCURVE",
"72 -148 OFFCURVE",
"45 -114 CURVE SMOOTH",
"19 -81 OFFCURVE",
"22 -40 OFFCURVE",
"32 17 CURVE",
"13 24 LINE",
"-5 -19 OFFCURVE",
"-14 -61 OFFCURVE",
"-16 -89 CURVE SMOOTH",
"-18 -118 OFFCURVE",
"-15 -148 OFFCURVE",
"-3 -177 CURVE SMOOTH",
"11 -211 OFFCURVE",
"34 -236 OFFCURVE",
"69 -255 CURVE SMOOTH",
"104 -274 OFFCURVE",
"147 -283 OFFCURVE",
"197 -283 CURVE SMOOTH",
"234 -283 OFFCURVE",
"267 -278 OFFCURVE",
"297 -268 CURVE SMOOTH",
"324 -259 OFFCURVE",
"349 -247 OFFCURVE",
"373 -225 CURVE SMOOTH",
"418 -184 OFFCURVE",
"441 -121 OFFCURVE",
"441 -44 CURVE SMOOTH",
"441 -26 OFFCURVE",
"439 -9 OFFCURVE",
"437 8 CURVE",
"470 -2 OFFCURVE",
"498 0 OFFCURVE",
"519 14 CURVE SMOOTH",
"538 26 OFFCURVE",
"551 48 OFFCURVE",
"555 76 CURVE SMOOTH",
"555 76 OFFCURVE",
"560 51 OFFCURVE",
"581 31 CURVE SMOOTH",
"594 19 OFFCURVE",
"613 9 OFFCURVE",
"641 9 CURVE SMOOTH",
"677 9 OFFCURVE",
"700 26 OFFCURVE",
"716 48 CURVE SMOOTH",
"742 85 OFFCURVE",
"746 135 OFFCURVE",
"746 140 CURVE SMOOTH",
"746 209 OFFCURVE",
"720 249 OFFCURVE",
"708 263 CURVE"
);
}
);
width = 600;
},
{
layerId = "0E844BAD-773F-41FF-B6D6-C35F1E5E991C";
name = Bold;
paths = (
{
closed = 1;
nodes = (
"771 284 OFFCURVE",
"754 263 OFFCURVE",
"737 234 CURVE",
"785 165 LINE",
"777 149 OFFCURVE",
"761 135 OFFCURVE",
"732 135 CURVE SMOOTH",
"672 135 OFFCURVE",
"665 179 OFFCURVE",
"675 240 CURVE",
"624 221 LINE",
"619 175 OFFCURVE",
"600 135 OFFCURVE",
"549 135 CURVE SMOOTH",
"533 135 OFFCURVE",
"486 150 OFFCURVE",
"461 213 CURVE",
"434 183 OFFCURVE",
"408 147 OFFCURVE",
"388 109 CURVE",
"436 46 OFFCURVE",
"477 -13 OFFCURVE",
"477 -45 CURVE SMOOTH",
"477 -65 OFFCURVE",
"461 -84 OFFCURVE",
"431 -100 CURVE SMOOTH",
"399 -117 OFFCURVE",
"351 -131 OFFCURVE",
"294 -131 CURVE SMOOTH",
"234 -131 OFFCURVE",
"177 -116 OFFCURVE",
"148 -81 CURVE SMOOTH",
"121 -48 OFFCURVE",
"120 1 OFFCURVE",
"132 54 CURVE",
"89 69 LINE",
"69 28 OFFCURVE",
"54 -25 OFFCURVE",
"51 -68 CURVE SMOOTH",
"49 -99 OFFCURVE",
"52 -134 OFFCURVE",
"65 -166 CURVE SMOOTH",
"82 -207 OFFCURVE",
"113 -238 OFFCURVE",
"154 -258 CURVE SMOOTH",
"190 -275 OFFCURVE",
"232 -284 OFFCURVE",
"285 -284 CURVE SMOOTH",
"325 -284 OFFCURVE",
"357 -279 OFFCURVE",
"390 -268 CURVE SMOOTH",
"420 -258 OFFCURVE",
"447 -245 OFFCURVE",
"474 -220 CURVE SMOOTH",
"498 -198 OFFCURVE",
"548 -140 OFFCURVE",
"548 -29 CURVE SMOOTH",
"548 -18 OFFCURVE",
"548 2 OFFCURVE",
"547 13 CURVE",
"568 7 OFFCURVE",
"589 8 OFFCURVE",
"606 15 CURVE SMOOTH",
"622 22 OFFCURVE",
"635 35 OFFCURVE",
"642 53 CURVE",
"646 45 OFFCURVE",
"655 35 OFFCURVE",
"669 26 CURVE SMOOTH",
"683 17 OFFCURVE",
"703 10 OFFCURVE",
"730 10 CURVE SMOOTH",
"767 10 OFFCURVE",
"801 34 OFFCURVE",
"824 66 CURVE SMOOTH",
"843 94 OFFCURVE",
"855 128 OFFCURVE",
"855 160 CURVE SMOOTH",
"855 270 OFFCURVE",
"796 312 OFFCURVE",
"796 312 CURVE"
);
}
);
width = 895;
}
);
unicode = 0633;
},
{
glyphname = "seen-ar.fina";
lastChange = "2015-10-10 03:19:51 +0000";
layers = (
{
layerId = "51F41761-070F-43EA-B302-C90910850260";
name = Regular;
paths = (
{
closed = 1;
nodes = (
"863 98 LINE SMOOTH",
"835 98 OFFCURVE",
"817 105 OFFCURVE",
"804 119 CURVE SMOOTH",
"786 140 OFFCURVE",
"788 167 OFFCURVE",
"790 190 CURVE",
"768 178 LINE",
"766 145 OFFCURVE",
"756 95 OFFCURVE",
"701 95 CURVE SMOOTH",
"636 95 OFFCURVE",
"642 167 OFFCURVE",
"645 190 CURVE",
"623 178 LINE",
"621 148 OFFCURVE",
"606 95 OFFCURVE",
"551 95 CURVE SMOOTH",
"501 95 OFFCURVE",
"463 139 OFFCURVE",
"449 158 CURVE",
"435 141 OFFCURVE",
"416 117 OFFCURVE",
"402 90 CURVE",
"405 86 OFFCURVE",
"478 -15 OFFCURVE",
"478 -64 CURVE SMOOTH",
"478 -92 OFFCURVE",
"456 -119 OFFCURVE",
"421 -139 CURVE SMOOTH",
"386 -159 OFFCURVE",
"339 -171 OFFCURVE",
"282 -171 CURVE SMOOTH",
"204 -171 OFFCURVE",
"149 -149 OFFCURVE",
"122 -115 CURVE SMOOTH",
"96 -82 OFFCURVE",
"99 -41 OFFCURVE",
"109 16 CURVE",
"90 23 LINE",
"72 -20 OFFCURVE",
"63 -62 OFFCURVE",
"61 -90 CURVE SMOOTH",
"59 -119 OFFCURVE",
"62 -149 OFFCURVE",
"74 -178 CURVE SMOOTH",
"88 -213 OFFCURVE",
"114 -239 OFFCURVE",
"146 -256 CURVE SMOOTH",
"181 -275 OFFCURVE",
"224 -284 OFFCURVE",
"274 -284 CURVE SMOOTH",
"311 -284 OFFCURVE",
"344 -279 OFFCURVE",
"374 -269 CURVE SMOOTH",
"401 -260 OFFCURVE",
"426 -248 OFFCURVE",
"450 -226 CURVE SMOOTH",
"495 -185 OFFCURVE",
"518 -121 OFFCURVE",
"518 -50 CURVE SMOOTH",
"518 -35 OFFCURVE",
"517 -15 OFFCURVE",
"514 7 CURVE",
"519 5 OFFCURVE",
"531 2 OFFCURVE",
"546 2 CURVE SMOOTH",
"587 2 OFFCURVE",
"615 24 OFFCURVE",
"629 75 CURVE",
"633 35 OFFCURVE",
"655 2 OFFCURVE",
"702 2 CURVE SMOOTH",
"758 2 OFFCURVE",
"770 49 OFFCURVE",
"774 75 CURVE",
"777 48 OFFCURVE",
"790 0 OFFCURVE",
"861 0 CURVE",
"899 0 LINE",
"899 98 LINE"
);
}
);
width = 879;
},
{
layerId = "0E844BAD-773F-41FF-B6D6-C35F1E5E991C";
name = Bold;
paths = (
{
closed = 1;
nodes = (
"883 139 LINE SMOOTH",
"860 139 OFFCURVE",
"843 144 OFFCURVE",
"834 154 CURVE SMOOTH",
"818 171 OFFCURVE",
"823 195 OFFCURVE",
"828 240 CURVE",
"777 221 LINE",
"775 176 OFFCURVE",
"760 135 OFFCURVE",
"720 135 CURVE SMOOTH",
"678 135 OFFCURVE",
"677 183 OFFCURVE",
"685 240 CURVE",
"634 221 LINE",
"629 171 OFFCURVE",
"610 135 OFFCURVE",
"566 135 CURVE SMOOTH",
"537 135 OFFCURVE",
"503 150 OFFCURVE",
"471 213 CURVE",
"444 183 OFFCURVE",
"418 147 OFFCURVE",
"398 109 CURVE",
"446 46 OFFCURVE",
"487 -13 OFFCURVE",
"487 -45 CURVE SMOOTH",
"487 -65 OFFCURVE",
"471 -84 OFFCURVE",
"441 -100 CURVE SMOOTH",
"409 -117 OFFCURVE",
"361 -131 OFFCURVE",
"304 -131 CURVE SMOOTH",
"244 -131 OFFCURVE",
"187 -116 OFFCURVE",
"158 -81 CURVE SMOOTH",
"131 -48 OFFCURVE",
"130 1 OFFCURVE",
"142 54 CURVE",
"99 69 LINE",
"79 28 OFFCURVE",
"64 -25 OFFCURVE",
"61 -68 CURVE SMOOTH",
"59 -99 OFFCURVE",
"62 -134 OFFCURVE",
"75 -166 CURVE SMOOTH",
"93 -209 OFFCURVE",
"125 -239 OFFCURVE",
"164 -258 CURVE SMOOTH",
"197 -274 OFFCURVE",
"241 -284 OFFCURVE",
"294 -284 CURVE SMOOTH",
"328 -284 OFFCURVE",
"365 -280 OFFCURVE",
"401 -268 CURVE SMOOTH",
"427 -259 OFFCURVE",
"457 -245 OFFCURVE",
"484 -220 CURVE SMOOTH",
"508 -198 OFFCURVE",
"558 -139 OFFCURVE",
"558 -32 CURVE SMOOTH",
"558 -17 OFFCURVE",
"557 -1 OFFCURVE",
"556 10 CURVE",
"573 2 OFFCURVE",
"593 3 OFFCURVE",
"604 6 CURVE SMOOTH",
"625 12 OFFCURVE",
"634 26 OFFCURVE",
"645 46 CURVE",
"650 36 OFFCURVE",
"666 4 OFFCURVE",
"716 4 CURVE SMOOTH",
"767 4 OFFCURVE",
"785 37 OFFCURVE",
"790 47 CURVE",
"797 29 OFFCURVE",
"826 0 OFFCURVE",
"881 0 CURVE",
"926 0 LINE",
"926 139 LINE"
);
}
);
width = 896;
}
);
unicode = FEB2;
},
{
glyphname = "seen-ar.medi";
lastChange = "2015-10-10 02:49:21 +0000";
layers = (
{
layerId = "51F41761-070F-43EA-B302-C90910850260";
name = Regular;
paths = (
{
closed = 1;
nodes = (
"513 98 LINE SMOOTH",
"485 98 OFFCURVE",
"467 105 OFFCURVE",
"454 120 CURVE SMOOTH",
"436 140 OFFCURVE",
"438 167 OFFCURVE",
"440 190 CURVE",
"418 178 LINE",
"416 145 OFFCURVE",
"405 95 OFFCURVE",
"354 95 CURVE SMOOTH",
"306 95 OFFCURVE",
"295 130 OFFCURVE",
"294 160 CURVE SMOOTH",
"293 172 OFFCURVE",
"294 183 OFFCURVE",
"295 190 CURVE",
"273 178 LINE",
"271 143 OFFCURVE",
"257 94 OFFCURVE",
"197 94 CURVE SMOOTH",
"141 94 OFFCURVE",
"128 124 OFFCURVE",
"125 152 CURVE SMOOTH",
"124 167 OFFCURVE",
"126 182 OFFCURVE",
"127 190 CURVE",
"105 178 LINE",
"101 161 OFFCURVE",
"101 148 OFFCURVE",
"90 131 CURVE SMOOTH",
"75 109 OFFCURVE",
"53 98 OFFCURVE",
"25 98 CURVE SMOOTH",
"-20 98 LINE SMOOTH",
"-47 98 OFFCURVE",
"-70 75 OFFCURVE",
"-70 48 CURVE SMOOTH",
"-70 20 OFFCURVE",
"-47 0 OFFCURVE",
"-20 0 CURVE SMOOTH",
"18 0 LINE SMOOTH",
"75 0 OFFCURVE",
"101 34 OFFCURVE",
"108 75 CURVE",
"112 34 OFFCURVE",
"134 2 OFFCURVE",
"187 2 CURVE SMOOTH",
"244 2 OFFCURVE",
"269 38 OFFCURVE",
"279 75 CURVE",
"277 37 OFFCURVE",
"301 2 OFFCURVE",
"346 2 CURVE SMOOTH",
"405 2 OFFCURVE",
"420 49 OFFCURVE",
"425 75 CURVE",
"425 33 OFFCURVE",
"453 0 OFFCURVE",
"511 0 CURVE",
"549 0 LINE",
"549 98 LINE"
);
}
);
width = 529;
},
{
layerId = "0E844BAD-773F-41FF-B6D6-C35F1E5E991C";
name = Bold;
paths = (
{
closed = 1;
nodes = (
"510 139 LINE SMOOTH",
"486 139 OFFCURVE",
"470 144 OFFCURVE",
"461 154 CURVE SMOOTH",
"446 172 OFFCURVE",
"450 195 OFFCURVE",
"455 240 CURVE",
"404 221 LINE",
"404 171 OFFCURVE",
"387 135 OFFCURVE",
"346 135 CURVE SMOOTH",
"300 135 OFFCURVE",
"307 193 OFFCURVE",
"309 213 CURVE SMOOTH",
"309 216 OFFCURVE",
"312 240 OFFCURVE",
"312 240 CURVE",
"261 221 LINE",
"258 167 OFFCURVE",
"235 135 OFFCURVE",
"191 135 CURVE SMOOTH",
"145 135 OFFCURVE",
"135 171 OFFCURVE",
"142 218 CURVE",
"143 225 OFFCURVE",
"144 233 OFFCURVE",
"145 240 CURVE",
"94 221 LINE",
"91 199 OFFCURVE",
"89 187 OFFCURVE",
"77 169 CURVE SMOOTH",
"66 152 OFFCURVE",
"50 139 OFFCURVE",
"25 139 CURVE SMOOTH",
"-20 139 LINE SMOOTH",
"-58 139 OFFCURVE",
"-90 107 OFFCURVE",
"-90 69 CURVE SMOOTH",
"-90 25 OFFCURVE",
"-53 0 OFFCURVE",
"-20 0 CURVE SMOOTH",
"18 0 LINE SMOOTH",
"77 0 OFFCURVE",
"98 36 OFFCURVE",
"106 46 CURVE",
"112 37 OFFCURVE",
"128 4 OFFCURVE",
"184 4 CURVE SMOOTH",
"231 4 OFFCURVE",
"264 32 OFFCURVE",
"271 47 CURVE",
"277 29 OFFCURVE",
"294 4 OFFCURVE",
"338 4 CURVE SMOOTH",
"392 4 OFFCURVE",
"412 37 OFFCURVE",
"417 48 CURVE",
"433 16 OFFCURVE",
"470 0 OFFCURVE",
"508 0 CURVE SMOOTH",
"553 0 LINE",
"553 139 LINE"
);
}
);
width = 523;
}
);
unicode = FEB4;
},
{
glyphname = "seen-ar.init";
lastChange = "2015-10-10 03:30:47 +0000";
layers = (
{
layerId = "51F41761-070F-43EA-B302-C90910850260";
name = Regular;
paths = (
{
closed = 1;
nodes = (
"418 248 OFFCURVE",
"403 228 OFFCURVE",
"392 208 CURVE",
"436 147 LINE",
"424 115 OFFCURVE",
"409 94 OFFCURVE",
"377 94 CURVE SMOOTH",
"368 94 LINE SMOOTH",
"340 94 OFFCURVE",
"322 101 OFFCURVE",
"309 116 CURVE SMOOTH",
"296 130 OFFCURVE",
"293 149 OFFCURVE",
"293 167 CURVE SMOOTH",
"293 175 OFFCURVE",
"294 183 OFFCURVE",
"295 190 CURVE",
"273 178 LINE",
"272 169 OFFCURVE",
"271 159 OFFCURVE",
"268 149 CURVE SMOOTH",
"260 121 OFFCURVE",
"241 94 OFFCURVE",
"197 94 CURVE SMOOTH",
"141 94 OFFCURVE",
"128 124 OFFCURVE",
"125 152 CURVE SMOOTH",
"124 167 OFFCURVE",
"126 182 OFFCURVE",
"127 190 CURVE",
"105 178 LINE",
"101 161 OFFCURVE",
"101 148 OFFCURVE",
"90 131 CURVE SMOOTH",
"75 109 OFFCURVE",
"53 98 OFFCURVE",
"25 98 CURVE SMOOTH",
"-20 98 LINE SMOOTH",
"-47 98 OFFCURVE",
"-70 75 OFFCURVE",
"-70 48 CURVE SMOOTH",
"-70 24 OFFCURVE",
"-51 0 OFFCURVE",
"-20 0 CURVE SMOOTH",
"18 0 LINE SMOOTH",
"53 0 OFFCURVE",
"74 14 OFFCURVE",
"88 30 CURVE SMOOTH",
"105 51 OFFCURVE",
"108 76 OFFCURVE",
"108 76 CURVE SMOOTH",
"113 40 OFFCURVE",
"134 2 OFFCURVE",
"187 2 CURVE SMOOTH",
"243 2 OFFCURVE",
"271 40 OFFCURVE",
"279 75 CURVE",
"284 47 OFFCURVE",
"298 8 OFFCURVE",
"366 8 CURVE SMOOTH",
"401 8 OFFCURVE",
"424 25 OFFCURVE",
"440 47 CURVE SMOOTH",
"466 84 OFFCURVE",
"470 134 OFFCURVE",
"470 139 CURVE SMOOTH",
"470 208 OFFCURVE",
"444 248 OFFCURVE",
"432 262 CURVE"
);
}
);
width = 500;
},
{
layerId = "0E844BAD-773F-41FF-B6D6-C35F1E5E991C";
name = Bold;
paths = (
{
closed = 1;
nodes = (
"409 286 OFFCURVE",
"393 264 OFFCURVE",
"373 234 CURVE",
"422 165 LINE",
"416 152 OFFCURVE",
"397 135 OFFCURVE",
"377 135 CURVE SMOOTH",
"368 135 LINE SMOOTH",
"347 135 OFFCURVE",
"331 140 OFFCURVE",
"322 150 CURVE SMOOTH",
"309 165 OFFCURVE",
"307 184 OFFCURVE",
"309 208 CURVE SMOOTH",
"310 219 OFFCURVE",
"311 229 OFFCURVE",
"312 240 CURVE",
"261 221 LINE",
"260 213 OFFCURVE",
"259 205 OFFCURVE",
"258 197 CURVE SMOOTH",
"251 162 OFFCURVE",
"236 135 OFFCURVE",
"197 135 CURVE SMOOTH",
"153 135 OFFCURVE",
"144 169 OFFCURVE",
"142 195 CURVE SMOOTH",
"142 203 OFFCURVE",
"142 215 OFFCURVE",
"145 240 CURVE",
"94 221 LINE",
"91 202 OFFCURVE",
"87 185 OFFCURVE",
"77 170 CURVE SMOOTH",
"67 153 OFFCURVE",
"51 139 OFFCURVE",
"25 139 CURVE SMOOTH",
"-20 139 LINE SMOOTH",
"-57 139 OFFCURVE",
"-90 107 OFFCURVE",
"-90 69 CURVE SMOOTH",
"-90 36 OFFCURVE",
"-61 0 OFFCURVE",
"-20 0 CURVE SMOOTH",
"18 0 LINE SMOOTH",
"46 0 OFFCURVE",
"65 7 OFFCURVE",
"78 15 CURVE SMOOTH",
"96 26 OFFCURVE",
"104 41 OFFCURVE",
"108 48 CURVE",
"113 37 OFFCURVE",
"132 4 OFFCURVE",
"187 4 CURVE SMOOTH",
"247 4 OFFCURVE",
"273 41 OFFCURVE",
"279 53 CURVE",
"288 37 OFFCURVE",
"315 10 OFFCURVE",
"366 10 CURVE SMOOTH",
"408 10 OFFCURVE",
"442 32 OFFCURVE",
"466 77 CURVE SMOOTH",
"485 112 OFFCURVE",
"491 149 OFFCURVE",
"491 160 CURVE SMOOTH",
"491 270 OFFCURVE",
"433 312 OFFCURVE",
"433 312 CURVE"
);
}
);
width = 531;
}
);
unicode = FEB3;
},
{
glyphname = "sad-ar";
lastChange = "2015-10-12 23:52:57 +0000";
layers = (
{
layerId = "51F41761-070F-43EA-B302-C90910850260";
name = Regular;
paths = (
{
closed = 1;
nodes = (
"897 243 OFFCURVE",
"892 269 OFFCURVE",
"860 294 CURVE SMOOTH",
"839 310 OFFCURVE",
"813 321 OFFCURVE",
"794 321 CURVE SMOOTH",
"726 321 OFFCURVE",
"658 256 OFFCURVE",
"622 218 CURVE SMOOTH",
"582 176 OFFCURVE",
"565 151 OFFCURVE",
"531 98 CURVE SMOOTH",
"480 104 OFFCURVE",
"457 113 OFFCURVE",
"420 159 CURVE",
"398 133 OFFCURVE",
"387 116 OFFCURVE",
"372 90 CURVE",
"391 64 OFFCURVE",
"448 -15 OFFCURVE",
"448 -64 CURVE SMOOTH",
"448 -92 OFFCURVE",
"426 -119 OFFCURVE",
"391 -139 CURVE SMOOTH",
"356 -159 OFFCURVE",
"309 -171 OFFCURVE",
"252 -171 CURVE SMOOTH",
"174 -171 OFFCURVE",
"119 -149 OFFCURVE",
"92 -115 CURVE SMOOTH",
"66 -82 OFFCURVE",
"69 -41 OFFCURVE",
"79 16 CURVE",
"60 23 LINE",
"42 -20 OFFCURVE",
"33 -62 OFFCURVE",
"31 -90 CURVE SMOOTH",
"29 -119 OFFCURVE",
"32 -149 OFFCURVE",
"44 -178 CURVE SMOOTH",
"58 -212 OFFCURVE",
"81 -237 OFFCURVE",
"116 -256 CURVE SMOOTH",
"151 -275 OFFCURVE",
"194 -284 OFFCURVE",
"244 -284 CURVE SMOOTH",
"329 -284 OFFCURVE",
"387 -258 OFFCURVE",
"425 -222 CURVE SMOOTH",
"476 -172 OFFCURVE",
"491 -105 OFFCURVE",
"491 -57 CURVE SMOOTH",
"491 -35 OFFCURVE",
"487 -3 OFFCURVE",
"481 30 CURVE",
"493 20 OFFCURVE",
"510 13 OFFCURVE",
"520 11 CURVE SMOOTH",
"544 4 OFFCURVE",
"575 4 OFFCURVE",
"617 4 CURVE SMOOTH",
"678 4 OFFCURVE",
"749 29 OFFCURVE",
"805 72 CURVE SMOOTH",
"833 94 OFFCURVE",
"856 119 OFFCURVE",
"872 145 CURVE SMOOTH",
"889 173 OFFCURVE",
"897 202 OFFCURVE",
"897 231 CURVE SMOOTH"
);
},
{
closed = 1;
nodes = (
"826 144 OFFCURVE",
"817 135 OFFCURVE",
"787 120 CURVE SMOOTH",
"761 108 OFFCURVE",
"727 98 OFFCURVE",
"682 98 CURVE SMOOTH",
"566 98 LINE SMOOTH",
"591 132 OFFCURVE",
"614 161 OFFCURVE",
"637 183 CURVE SMOOTH",
"665 211 OFFCURVE",
"695 246 OFFCURVE",
"753 246 CURVE SMOOTH",
"783 246 OFFCURVE",
"813 225 OFFCURVE",
"826 208 CURVE SMOOTH",
"837 195 OFFCURVE",
"838 187 OFFCURVE",
"846 165 CURVE SMOOTH"
);
}
);
width = 947;
},
{
layerId = "0E844BAD-773F-41FF-B6D6-C35F1E5E991C";
name = Bold;
paths = (
{
closed = 1;
nodes = (
"967 278 OFFCURVE",
"951 306 OFFCURVE",
"922 329 CURVE SMOOTH",
"898 348 OFFCURVE",
"867 360 OFFCURVE",
"843 360 CURVE SMOOTH",
"764 360 OFFCURVE",
"686 283 OFFCURVE",
"656 250 CURVE SMOOTH",
"611 200 OFFCURVE",
"579 154 OFFCURVE",
"569 138 CURVE",
"522 142 OFFCURVE",
"484 189 OFFCURVE",
"470 211 CURVE",
"443 181 OFFCURVE",
"417 145 OFFCURVE",
"397 107 CURVE",
"445 44 OFFCURVE",
"486 -15 OFFCURVE",
"486 -47 CURVE SMOOTH",
"486 -67 OFFCURVE",
"470 -86 OFFCURVE",
"440 -102 CURVE SMOOTH",
"408 -119 OFFCURVE",
"360 -133 OFFCURVE",
"303 -133 CURVE SMOOTH",
"243 -133 OFFCURVE",
"186 -118 OFFCURVE",
"157 -83 CURVE SMOOTH",
"130 -50 OFFCURVE",
"129 -1 OFFCURVE",
"141 52 CURVE",
"98 67 LINE",
"78 26 OFFCURVE",
"63 -27 OFFCURVE",
"60 -70 CURVE SMOOTH",
"58 -101 OFFCURVE",
"61 -136 OFFCURVE",
"74 -168 CURVE SMOOTH",
"91 -209 OFFCURVE",
"122 -240 OFFCURVE",
"163 -260 CURVE SMOOTH",
"199 -277 OFFCURVE",
"241 -286 OFFCURVE",
"294 -286 CURVE SMOOTH",
"387 -286 OFFCURVE",
"449 -256 OFFCURVE",
"489 -216 CURVE SMOOTH",
"547 -160 OFFCURVE",
"561 -83 OFFCURVE",
"561 -46 CURVE SMOOTH",
"561 -27 OFFCURVE",
"561 -8 OFFCURVE",
"558 12 CURVE",
"573 7 OFFCURVE",
"590 5 OFFCURVE",
"609 3 CURVE SMOOTH",
"626 2 OFFCURVE",
"645 2 OFFCURVE",
"666 2 CURVE SMOOTH",
"732 2 OFFCURVE",
"807 29 OFFCURVE",
"866 75 CURVE SMOOTH",
"896 98 OFFCURVE",
"921 125 OFFCURVE",
"938 153 CURVE SMOOTH",
"958 184 OFFCURVE",
"967 217 OFFCURVE",
"967 249 CURVE SMOOTH"
);
},
{
closed = 1;
nodes = (
"868 186 OFFCURVE",
"846 164 OFFCURVE",
"805 151 CURVE SMOOTH",
"785 144 OFFCURVE",
"761 139 OFFCURVE",
"731 139 CURVE SMOOTH",
"642 139 LINE",
"653 156 OFFCURVE",
"668 174 OFFCURVE",
"687 193 CURVE SMOOTH",
"715 222 OFFCURVE",
"748 249 OFFCURVE",
"796 249 CURVE SMOOTH",
"816 249 OFFCURVE",
"831 244 OFFCURVE",
"842 236 CURVE SMOOTH",
"861 223 OFFCURVE",
"870 201 OFFCURVE",
"873 191 CURVE"
);
}
);
width = 1007;
}
);
unicode = 0635;
},
{
glyphname = "sad-ar.fina";
lastChange = "2015-10-12 23:53:26 +0000";
layers = (
{
layerId = "51F41761-070F-43EA-B302-C90910850260";
name = Regular;
paths = (
{
closed = 1;
nodes = (
"640 98 LINE SMOOTH",
"592 98 OFFCURVE",
"534 79 OFFCURVE",
"517 73 CURVE",
"545 94 OFFCURVE",
"568 119 OFFCURVE",
"584 145 CURVE SMOOTH",
"601 173 OFFCURVE",
"610 202 OFFCURVE",
"610 231 CURVE SMOOTH",
"610 243 OFFCURVE",
"605 269 OFFCURVE",
"573 294 CURVE SMOOTH",
"552 310 OFFCURVE",
"525 321 OFFCURVE",
"506 321 CURVE SMOOTH",
"439 321 OFFCURVE",
"370 256 OFFCURVE",
"334 218 CURVE SMOOTH",
"302 184 OFFCURVE",
"275 147 OFFCURVE",
"243 98 CURVE SMOOTH",
"197 102 OFFCURVE",
"169 114 OFFCURVE",
"132 159 CURVE",
"112 137 OFFCURVE",
"96 115 OFFCURVE",
"84 90 CURVE",
"103 64 OFFCURVE",
"160 -16 OFFCURVE",
"160 -63 CURVE SMOOTH",
"160 -91 OFFCURVE",
"140 -118 OFFCURVE",
"103 -139 CURVE SMOOTH",
"68 -159 OFFCURVE",
"21 -171 OFFCURVE",
"-36 -171 CURVE SMOOTH",
"-114 -171 OFFCURVE",
"-169 -149 OFFCURVE",
"-196 -115 CURVE SMOOTH",
"-222 -82 OFFCURVE",
"-219 -41 OFFCURVE",
"-209 16 CURVE",
"-228 23 LINE",
"-246 -20 OFFCURVE",
"-255 -62 OFFCURVE",
"-257 -90 CURVE SMOOTH",
"-259 -119 OFFCURVE",
"-256 -149 OFFCURVE",
"-244 -178 CURVE SMOOTH",
"-230 -213 OFFCURVE",
"-204 -239 OFFCURVE",
"-172 -256 CURVE SMOOTH",
"-137 -275 OFFCURVE",
"-94 -284 OFFCURVE",
"-44 -284 CURVE SMOOTH",
"30 -284 OFFCURVE",
"83 -265 OFFCURVE",
"122 -234 CURVE SMOOTH",
"185 -184 OFFCURVE",
"204 -108 OFFCURVE",
"204 -60 CURVE SMOOTH",
"204 -35 OFFCURVE",
"199 3 OFFCURVE",
"194 30 CURVE",
"200 26 OFFCURVE",
"215 16 OFFCURVE",
"232 11 CURVE SMOOTH",
"261 2 OFFCURVE",
"320 4 OFFCURVE",
"335 4 CURVE SMOOTH",
"349 4 OFFCURVE",
"513 2 OFFCURVE",
"555 1 CURVE SMOOTH",
"583 1 OFFCURVE",
"604 0 OFFCURVE",
"634 0 CURVE SMOOTH",
"694 0 LINE",
"694 98 LINE"
);
},
{
closed = 1;
nodes = (
"537 142 OFFCURVE",
"527 131 OFFCURVE",
"493 117 CURVE SMOOTH",
"468 106 OFFCURVE",
"435 98 OFFCURVE",
"394 98 CURVE SMOOTH",
"279 98 LINE SMOOTH",
"304 133 OFFCURVE",
"325 160 OFFCURVE",
"349 183 CURVE SMOOTH",
"377 211 OFFCURVE",
"407 246 OFFCURVE",
"465 246 CURVE SMOOTH",
"495 246 OFFCURVE",
"525 225 OFFCURVE",
"539 208 CURVE SMOOTH",
"548 195 OFFCURVE",
"553 185 OFFCURVE",
"558 165 CURVE"
);
}
);
width = 600;
},
{
layerId = "0E844BAD-773F-41FF-B6D6-C35F1E5E991C";
name = Bold;
paths = (
{
closed = 1;
nodes = (
"976 139 LINE SMOOTH",
"956 139 OFFCURVE",
"939 137 OFFCURVE",
"925 134 CURVE",
"932 145 OFFCURVE",
"930 141 OFFCURVE",
"939 155 CURVE SMOOTH",
"956 181 OFFCURVE",
"967 220 OFFCURVE",
"967 247 CURVE SMOOTH",
"967 278 OFFCURVE",
"952 308 OFFCURVE",
"923 331 CURVE SMOOTH",
"900 349 OFFCURVE",
"868 362 OFFCURVE",
"838 362 CURVE SMOOTH",
"764 362 OFFCURVE",
"682 280 OFFCURVE",
"656 252 CURVE SMOOTH",
"613 205 OFFCURVE",
"575 150 OFFCURVE",
"569 140 CURVE",
"522 144 OFFCURVE",
"484 191 OFFCURVE",
"470 213 CURVE",
"443 183 OFFCURVE",
"417 147 OFFCURVE",
"397 109 CURVE",
"445 46 OFFCURVE",
"486 -13 OFFCURVE",
"486 -45 CURVE SMOOTH",
"486 -65 OFFCURVE",
"470 -84 OFFCURVE",
"440 -100 CURVE SMOOTH",
"408 -117 OFFCURVE",
"360 -131 OFFCURVE",
"303 -131 CURVE SMOOTH",
"243 -131 OFFCURVE",
"186 -116 OFFCURVE",
"157 -81 CURVE SMOOTH",
"130 -48 OFFCURVE",
"129 1 OFFCURVE",
"141 54 CURVE",
"98 69 LINE",
"78 28 OFFCURVE",
"63 -25 OFFCURVE",
"60 -68 CURVE SMOOTH",
"58 -101 OFFCURVE",
"62 -137 OFFCURVE",
"74 -167 CURVE SMOOTH",
"89 -206 OFFCURVE",
"121 -237 OFFCURVE",
"164 -257 CURVE SMOOTH",
"192 -270 OFFCURVE",
"240 -286 OFFCURVE",
"298 -286 CURVE SMOOTH",
"387 -286 OFFCURVE",
"450 -249 OFFCURVE",
"488 -213 CURVE SMOOTH",
"548 -156 OFFCURVE",
"561 -87 OFFCURVE",
"561 -44 CURVE SMOOTH",
"561 -25 OFFCURVE",
"561 -6 OFFCURVE",
"558 14 CURVE",
"575 9 OFFCURVE",
"595 6 OFFCURVE",
"607 5 CURVE SMOOTH",
"626 4 OFFCURVE",
"665 5 OFFCURVE",
"677 5 CURVE SMOOTH",
"693 5 OFFCURVE",
"851 3 OFFCURVE",
"892 2 CURVE SMOOTH",
"920 1 OFFCURVE",
"941 0 OFFCURVE",
"971 0 CURVE SMOOTH",
"1051 0 LINE",
"1051 139 LINE"
);
},
{
closed = 1;
nodes = (
"863 181 OFFCURVE",
"847 166 OFFCURVE",
"808 152 CURVE SMOOTH",
"783 143 OFFCURVE",
"761 139 OFFCURVE",
"731 139 CURVE SMOOTH",
"642 139 LINE",
"653 155 OFFCURVE",
"668 174 OFFCURVE",
"687 193 CURVE SMOOTH",
"715 222 OFFCURVE",
"748 249 OFFCURVE",
"796 249 CURVE SMOOTH",
"816 249 OFFCURVE",
"831 244 OFFCURVE",
"842 236 CURVE SMOOTH",
"861 223 OFFCURVE",
"870 201 OFFCURVE",
"873 191 CURVE"
);
}
);
width = 1022;
}
);
unicode = FEBA;
},
{
glyphname = "sad-ar.medi";
lastChange = "2015-10-12 23:53:46 +0000";
layers = (
{
layerId = "51F41761-070F-43EA-B302-C90910850260";
name = Regular;
paths = (
{
closed = 1;
nodes = (
"578 98 LINE SMOOTH",
"532 98 OFFCURVE",
"475 80 OFFCURVE",
"456 73 CURVE",
"470 83 OFFCURVE",
"482 95 OFFCURVE",
"493 106 CURVE SMOOTH",
"514 128 OFFCURVE",
"548 183 OFFCURVE",
"548 222 CURVE SMOOTH",
"548 229 OFFCURVE",
"547 268 OFFCURVE",
"512 295 CURVE SMOOTH",
"494 309 OFFCURVE",
"466 320 OFFCURVE",
"439 320 CURVE SMOOTH",
"410 320 OFFCURVE",
"384 308 OFFCURVE",
"357 291 CURVE SMOOTH",
"319 267 OFFCURVE",
"285 232 OFFCURVE",
"272 218 CURVE SMOOTH",
"218 160 OFFCURVE",
"183 102 OFFCURVE",
"181 98 CURVE",
"160 100 OFFCURVE",
"144 113 OFFCURVE",
"136 122 CURVE SMOOTH",
"116 145 OFFCURVE",
"120 175 OFFCURVE",
"122 199 CURVE",
"101 187 LINE",
"98 164 OFFCURVE",
"94 149 OFFCURVE",
"82 132 CURVE SMOOTH",
"68 112 OFFCURVE",
"50 98 OFFCURVE",
"17 98 CURVE SMOOTH",
"-22 98 LINE SMOOTH",
"-49 98 OFFCURVE",
"-70 76 OFFCURVE",
"-70 48 CURVE SMOOTH",
"-70 20 OFFCURVE",
"-50 0 OFFCURVE",
"-22 0 CURVE SMOOTH",
"16 0 LINE SMOOTH",
"67 0 OFFCURVE",
"95 21 OFFCURVE",
"105 68 CURVE",
"112 42 OFFCURVE",
"125 26 OFFCURVE",
"154 17 CURVE",
"146 -17 LINE",
"174 -17 LINE",
"182 9 LINE",
"205 4 OFFCURVE",
"229 4 OFFCURVE",
"267 4 CURVE SMOOTH",
"298 4 OFFCURVE",
"452 2 OFFCURVE",
"493 1 CURVE SMOOTH",
"521 1 OFFCURVE",
"542 0 OFFCURVE",
"572 0 CURVE SMOOTH",
"632 0 LINE",
"632 98 LINE"
);
},
{
closed = 1;
nodes = (
"486 137 OFFCURVE",
"451 119 OFFCURVE",
"411 109 CURVE SMOOTH",
"388 103 OFFCURVE",
"361 98 OFFCURVE",
"332 98 CURVE SMOOTH",
"217 98 LINE SMOOTH",
"217 98 OFFCURVE",
"238 134 OFFCURVE",
"287 183 CURVE SMOOTH",
"315 211 OFFCURVE",
"351 246 OFFCURVE",
"401 246 CURVE SMOOTH",
"446 246 OFFCURVE",
"486 218 OFFCURVE",
"486 176 CURVE SMOOTH"
);
}
);
width = 612;
},
{
layerId = "0E844BAD-773F-41FF-B6D6-C35F1E5E991C";
name = Bold;
paths = (
{
closed = 1;
nodes = (
"580 139 LINE SMOOTH",
"564 139 OFFCURVE",
"543 137 OFFCURVE",
"523 130 CURVE",
"529 138 OFFCURVE",
"535 146 OFFCURVE",
"540 154 CURVE SMOOTH",
"557 181 OFFCURVE",
"569 220 OFFCURVE",
"569 247 CURVE SMOOTH",
"569 279 OFFCURVE",
"551 310 OFFCURVE",
"525 331 CURVE SMOOTH",
"500 351 OFFCURVE",
"468 361 OFFCURVE",
"440 361 CURVE SMOOTH",
"411 361 OFFCURVE",
"381 351 OFFCURVE",
"345 328 CURVE SMOOTH",
"314 308 OFFCURVE",
"283 279 OFFCURVE",
"258 252 CURVE SMOOTH",
"212 202 OFFCURVE",
"181 155 OFFCURVE",
"170 139 CURVE",
"159 140 OFFCURVE",
"150 143 OFFCURVE",
"144 150 CURVE SMOOTH",
"128 168 OFFCURVE",
"132 207 OFFCURVE",
"139 244 CURVE",
"88 225 LINE",
"79 186 OFFCURVE",
"74 175 OFFCURVE",
"66 164 CURVE SMOOTH",
"54 147 OFFCURVE",
"39 139 OFFCURVE",
"18 139 CURVE SMOOTH",
"-21 139 LINE SMOOTH",
"-56 139 OFFCURVE",
"-90 121 OFFCURVE",
"-90 69 CURVE SMOOTH",
"-90 14 OFFCURVE",
"-53 0 OFFCURVE",
"-21 0 CURVE SMOOTH",
"17 0 LINE SMOOTH",
"62 0 OFFCURVE",
"95 16 OFFCURVE",
"112 45 CURVE",
"117 40 OFFCURVE",
"122 36 OFFCURVE",
"134 31 CURVE",
"122 -17 LINE",
"182 -17 LINE",
"189 8 LINE",
"212 4 OFFCURVE",
"234 4 OFFCURVE",
"260 4 CURVE SMOOTH",
"268 4 OFFCURVE",
"437 4 OFFCURVE",
"437 4 CURVE SMOOTH",
"555 0 OFFCURVE",
"548 0 OFFCURVE",
"568 0 CURVE SMOOTH",
"648 0 LINE",
"648 139 LINE"
);
},
{
closed = 1;
nodes = (
"464 180 OFFCURVE",
"452 170 OFFCURVE",
"428 159 CURVE SMOOTH",
"400 146 OFFCURVE",
"368 139 OFFCURVE",
"333 139 CURVE SMOOTH",
"244 139 LINE",
"246 141 OFFCURVE",
"269 173 OFFCURVE",
"288 193 CURVE SMOOTH",
"316 222 OFFCURVE",
"352 249 OFFCURVE",
"397 249 CURVE SMOOTH",
"451 249 OFFCURVE",
"469 206 OFFCURVE",
"474 191 CURVE"
);
}
);
width = 618;
}
);
unicode = FEBC;
},
{
glyphname = "sad-ar.init";
lastChange = "2015-10-12 23:54:09 +0000";
layers = (
{
layerId = "51F41761-070F-43EA-B302-C90910850260";
name = Regular;
paths = (
{
closed = 1;
nodes = (
"548 242 OFFCURVE",
"542 271 OFFCURVE",
"512 294 CURVE SMOOTH",
"493 309 OFFCURVE",
"464 321 OFFCURVE",
"439 321 CURVE SMOOTH",
"380 321 OFFCURVE",
"308 256 OFFCURVE",
"272 218 CURVE SMOOTH",
"224 167 OFFCURVE",
"188 110 OFFCURVE",
"181 98 CURVE",
"163 100 OFFCURVE",
"149 108 OFFCURVE",
"137 122 CURVE SMOOTH",
"120 141 OFFCURVE",
"118 164 OFFCURVE",
"123 199 CURVE",
"101 187 LINE",
"98 164 OFFCURVE",
"94 149 OFFCURVE",
"82 132 CURVE SMOOTH",
"68 112 OFFCURVE",
"50 98 OFFCURVE",
"17 98 CURVE SMOOTH",
"-22 98 LINE SMOOTH",
"-49 98 OFFCURVE",
"-70 77 OFFCURVE",
"-70 48 CURVE SMOOTH",
"-70 28 OFFCURVE",
"-60 0 OFFCURVE",
"-22 0 CURVE SMOOTH",
"16 0 LINE SMOOTH",
"67 0 OFFCURVE",
"96 24 OFFCURVE",
"105 68 CURVE",
"112 44 OFFCURVE",
"127 25 OFFCURVE",
"154 17 CURVE",
"146 -17 LINE",
"174 -17 LINE",
"182 9 LINE",
"206 4 OFFCURVE",
"229 4 OFFCURVE",
"267 4 CURVE SMOOTH",
"328 4 OFFCURVE",
"402 31 OFFCURVE",
"455 72 CURVE SMOOTH",
"483 94 OFFCURVE",
"507 120 OFFCURVE",
"522 145 CURVE SMOOTH",
"539 173 OFFCURVE",
"548 205 OFFCURVE",
"548 225 CURVE SMOOTH"
);
},
{
closed = 1;
nodes = (
"477 143 OFFCURVE",
"461 130 OFFCURVE",
"428 116 CURVE SMOOTH",
"404 106 OFFCURVE",
"372 98 OFFCURVE",
"332 98 CURVE SMOOTH",
"217 98 LINE SMOOTH",
"237 126 OFFCURVE",
"265 161 OFFCURVE",
"286 183 CURVE SMOOTH",
"329 226 OFFCURVE",
"362 246 OFFCURVE",
"399 246 CURVE SMOOTH",
"437 246 OFFCURVE",
"462 224 OFFCURVE",
"476 208 CURVE SMOOTH",
"486 196 OFFCURVE",
"490 186 OFFCURVE",
"496 165 CURVE SMOOTH"
);
}
);
width = 578;
},
{
layerId = "0E844BAD-773F-41FF-B6D6-C35F1E5E991C";
name = Bold;
paths = (
{
closed = 1;
nodes = (
"569 280 OFFCURVE",
"553 308 OFFCURVE",
"524 331 CURVE SMOOTH",
"499 350 OFFCURVE",
"469 362 OFFCURVE",
"445 362 CURVE SMOOTH",
"380 362 OFFCURVE",
"311 310 OFFCURVE",
"258 252 CURVE SMOOTH",
"213 202 OFFCURVE",
"181 155 OFFCURVE",
"171 139 CURVE",
"159 140 OFFCURVE",
"150 144 OFFCURVE",
"144 150 CURVE SMOOTH",
"129 168 OFFCURVE",
"131 201 OFFCURVE",
"139 244 CURVE",
"88 225 LINE",
"84 201 OFFCURVE",
"75 177 OFFCURVE",
"66 164 CURVE SMOOTH",
"54 148 OFFCURVE",
"40 139 OFFCURVE",
"18 139 CURVE SMOOTH",
"-21 139 LINE SMOOTH",
"-40 139 OFFCURVE",
"-90 124 OFFCURVE",
"-90 69 CURVE SMOOTH",
"-90 14 OFFCURVE",
"-40 0 OFFCURVE",
"-21 0 CURVE SMOOTH",
"17 0 LINE SMOOTH",
"62 0 OFFCURVE",
"95 16 OFFCURVE",
"112 45 CURVE",
"117 40 OFFCURVE",
"124 35 OFFCURVE",
"134 31 CURVE",
"123 -17 LINE",
"182 -17 LINE",
"189 8 LINE",
"210 3 OFFCURVE",
"236 4 OFFCURVE",
"268 4 CURVE SMOOTH",
"334 4 OFFCURVE",
"409 31 OFFCURVE",
"468 76 CURVE SMOOTH",
"498 99 OFFCURVE",
"523 126 OFFCURVE",
"540 154 CURVE SMOOTH",
"559 186 OFFCURVE",
"569 218 OFFCURVE",
"569 251 CURVE"
);
},
{
closed = 1;
nodes = (
"467 183 OFFCURVE",
"453 170 OFFCURVE",
"429 159 CURVE SMOOTH",
"400 146 OFFCURVE",
"368 139 OFFCURVE",
"333 139 CURVE SMOOTH",
"244 139 LINE",
"255 154 OFFCURVE",
"270 174 OFFCURVE",
"289 193 CURVE SMOOTH",
"317 222 OFFCURVE",
"350 249 OFFCURVE",
"398 249 CURVE SMOOTH",
"423 249 OFFCURVE",
"440 240 OFFCURVE",
"452 229 CURVE SMOOTH",
"465 216 OFFCURVE",
"472 199 OFFCURVE",
"475 191 CURVE"
);
}
);
width = 599;
}
);
unicode = FEBB;
},
{
glyphname = "tah-ar";
lastChange = "2015-10-12 23:37:07 +0000";
layers = (
{
layerId = "51F41761-070F-43EA-B302-C90910850260";
name = Regular;
paths = (
{
closed = 1;
nodes = (
"574 230 OFFCURVE",
"569 255 OFFCURVE",
"537 280 CURVE SMOOTH",
"516 297 OFFCURVE",
"490 308 OFFCURVE",
"470 308 CURVE SMOOTH",
"415 308 OFFCURVE",
"367 279 OFFCURVE",
"299 204 CURVE SMOOTH",
"295 200 OFFCURVE",
"287 191 OFFCURVE",
"280 183 CURVE",
"280 183 OFFCURVE",
"289 217 OFFCURVE",
"286 276 CURVE SMOOTH",
"285 302 OFFCURVE",
"282 344 OFFCURVE",
"275 396 CURVE",
"272 440 OFFCURVE",
"278 462 OFFCURVE",
"302 482 CURVE",
"273 513 OFFCURVE",
"252 549 OFFCURVE",
"242 568 CURVE",
"193 492 LINE",
"197 482 OFFCURVE",
"206 457 OFFCURVE",
"216 410 CURVE SMOOTH",
"227 358 OFFCURVE",
"245 263 OFFCURVE",
"249 151 CURVE",
"237 137 OFFCURVE",
"225 122 OFFCURVE",
"206 98 CURVE",
"206 98 OFFCURVE",
"101 103 OFFCURVE",
"60 108 CURVE",
"89 58 OFFCURVE",
"118 22 OFFCURVE",
"151 -3 CURVE",
"168 -2 OFFCURVE",
"189 -1 OFFCURVE",
"226 0 CURVE SMOOTH",
"249 0 OFFCURVE",
"280 1 OFFCURVE",
"305 2 CURVE SMOOTH",
"367 4 OFFCURVE",
"434 29 OFFCURVE",
"486 68 CURVE SMOOTH",
"543 110 OFFCURVE",
"574 163 OFFCURVE",
"574 217 CURVE SMOOTH"
);
},
{
closed = 1;
nodes = (
"500 141 OFFCURVE",
"483 127 OFFCURVE",
"451 114 CURVE",
"426 105 OFFCURVE",
"396 98 OFFCURVE",
"358 98 CURVE SMOOTH",
"247 98 LINE",
"264 117 OFFCURVE",
"278 134 OFFCURVE",
"293 149 CURVE SMOOTH",
"329 186 OFFCURVE",
"382 229 OFFCURVE",
"426 229 CURVE SMOOTH",
"478 229 OFFCURVE",
"502 209 OFFCURVE",
"523 165 CURVE"
);
}
);
width = 604;
},
{
layerId = "0E844BAD-773F-41FF-B6D6-C35F1E5E991C";
name = Bold;
paths = (
{
closed = 1;
nodes = (
"621 267 OFFCURVE",
"605 295 OFFCURVE",
"576 318 CURVE SMOOTH",
"551 337 OFFCURVE",
"521 349 OFFCURVE",
"497 349 CURVE SMOOTH",
"465 349 OFFCURVE",
"437 341 OFFCURVE",
"408 324 CURVE SMOOTH",
"385 310 OFFCURVE",
"355 286 OFFCURVE",
"328 257 CURVE",
"332 278 OFFCURVE",
"333 295 OFFCURVE",
"331 324 CURVE SMOOTH",
"329 348 OFFCURVE",
"326 368 OFFCURVE",
"322 399 CURVE",
"309 457 OFFCURVE",
"359 481 OFFCURVE",
"359 481 CURVE",
"312 525 OFFCURVE",
"282 584 OFFCURVE",
"272 611 CURVE",
"196 495 LINE",
"196 495 OFFCURVE",
"212 460 OFFCURVE",
"226 405 CURVE SMOOTH",
"248 317 OFFCURVE",
"255 240 OFFCURVE",
"258 179 CURVE",
"245 165 OFFCURVE",
"231 149 OFFCURVE",
"222 139 CURVE",
"157 142 OFFCURVE",
"84 148 OFFCURVE",
"50 154 CURVE",
"74 94 OFFCURVE",
"118 38 OFFCURVE",
"172 -3 CURVE",
"189 -1 OFFCURVE",
"217 0 OFFCURVE",
"229 0 CURVE SMOOTH",
"237 0 OFFCURVE",
"295 2 OFFCURVE",
"332 2 CURVE SMOOTH",
"388 2 OFFCURVE",
"470 32 OFFCURVE",
"525 73 CURVE SMOOTH",
"587 119 OFFCURVE",
"621 178 OFFCURVE",
"621 238 CURVE SMOOTH"
);
},
{
closed = 1;
nodes = (
"518 183 OFFCURVE",
"504 170 OFFCURVE",
"480 159 CURVE SMOOTH",
"452 146 OFFCURVE",
"420 139 OFFCURVE",
"385 139 CURVE SMOOTH",
"313 139 LINE",
"322 149 OFFCURVE",
"334 162 OFFCURVE",
"348 175 CURVE SMOOTH",
"386 211 OFFCURVE",
"421 229 OFFCURVE",
"450 229 CURVE SMOOTH",
"500 229 OFFCURVE",
"519 202 OFFCURVE",
"526 190 CURVE"
);
}
);
width = 661;
}
);
unicode = 0637;
},
{
glyphname = "tah-ar.fina";
lastChange = "2015-10-12 23:51:09 +0000";
layers = (
{
layerId = "51F41761-070F-43EA-B302-C90910850260";
name = Regular;
paths = (
{
closed = 1;
nodes = (
"604 98 LINE SMOOTH",
"559 98 OFFCURVE",
"503 81 OFFCURVE",
"483 73 CURVE",
"536 114 OFFCURVE",
"564 165 OFFCURVE",
"564 217 CURVE SMOOTH",
"564 230 OFFCURVE",
"559 255 OFFCURVE",
"527 280 CURVE SMOOTH",
"506 297 OFFCURVE",
"480 308 OFFCURVE",
"460 308 CURVE SMOOTH",
"405 308 OFFCURVE",
"357 279 OFFCURVE",
"289 204 CURVE",
"285 200 OFFCURVE",
"277 191 OFFCURVE",
"270 183 CURVE",
"270 183 OFFCURVE",
"279 217 OFFCURVE",
"276 276 CURVE SMOOTH",
"275 302 OFFCURVE",
"272 344 OFFCURVE",
"265 396 CURVE",
"262 440 OFFCURVE",
"268 462 OFFCURVE",
"292 482 CURVE",
"263 513 OFFCURVE",
"242 549 OFFCURVE",
"232 568 CURVE",
"183 492 LINE",
"187 482 OFFCURVE",
"196 457 OFFCURVE",
"206 410 CURVE SMOOTH",
"217 358 OFFCURVE",
"235 263 OFFCURVE",
"239 151 CURVE",
"227 137 OFFCURVE",
"215 122 OFFCURVE",
"196 98 CURVE",
"196 98 OFFCURVE",
"91 103 OFFCURVE",
"50 108 CURVE",
"79 58 OFFCURVE",
"108 22 OFFCURVE",
"141 -3 CURVE",
"158 -2 OFFCURVE",
"179 -1 OFFCURVE",
"216 0 CURVE SMOOTH",
"241 0 OFFCURVE",
"262 1 OFFCURVE",
"268 1 CURVE",
"299 1 OFFCURVE",
"478 2 OFFCURVE",
"519 1 CURVE SMOOTH",
"547 1 OFFCURVE",
"568 0 OFFCURVE",
"598 0 CURVE SMOOTH",
"658 0 LINE",
"658 98 LINE"
);
},
{
closed = 1;
nodes = (
"490 141 OFFCURVE",
"473 127 OFFCURVE",
"441 114 CURVE",
"416 105 OFFCURVE",
"386 98 OFFCURVE",
"348 98 CURVE SMOOTH",
"237 98 LINE",
"254 117 OFFCURVE",
"268 134 OFFCURVE",
"283 149 CURVE SMOOTH",
"319 186 OFFCURVE",
"372 229 OFFCURVE",
"416 229 CURVE SMOOTH",
"468 229 OFFCURVE",
"492 209 OFFCURVE",
"513 165 CURVE"
);
}
);
width = 638;
},
{
layerId = "0E844BAD-773F-41FF-B6D6-C35F1E5E991C";
name = Bold;
paths = (
{
closed = 1;
nodes = (
"649 139 LINE SMOOTH",
"634 139 OFFCURVE",
"613 137 OFFCURVE",
"594 131 CURVE",
"618 164 OFFCURVE",
"631 201 OFFCURVE",
"631 238 CURVE SMOOTH",
"631 267 OFFCURVE",
"615 295 OFFCURVE",
"586 318 CURVE SMOOTH",
"561 337 OFFCURVE",
"531 349 OFFCURVE",
"507 349 CURVE SMOOTH",
"475 349 OFFCURVE",
"447 341 OFFCURVE",
"418 324 CURVE SMOOTH",
"395 310 OFFCURVE",
"365 286 OFFCURVE",
"338 257 CURVE",
"342 278 OFFCURVE",
"343 295 OFFCURVE",
"341 324 CURVE SMOOTH",
"339 348 OFFCURVE",
"336 368 OFFCURVE",
"332 399 CURVE",
"319 457 OFFCURVE",
"369 481 OFFCURVE",
"369 481 CURVE",
"322 525 OFFCURVE",
"292 584 OFFCURVE",
"282 611 CURVE",
"206 495 LINE",
"206 495 OFFCURVE",
"222 460 OFFCURVE",
"236 405 CURVE SMOOTH",
"258 317 OFFCURVE",
"265 240 OFFCURVE",
"268 179 CURVE",
"255 165 OFFCURVE",
"241 149 OFFCURVE",
"232 139 CURVE",
"167 142 OFFCURVE",
"94 148 OFFCURVE",
"60 154 CURVE",
"84 94 OFFCURVE",
"128 38 OFFCURVE",
"182 -3 CURVE",
"199 -1 OFFCURVE",
"227 0 OFFCURVE",
"239 0 CURVE SMOOTH",
"247 0 OFFCURVE",
"306 1 OFFCURVE",
"342 2 CURVE SMOOTH",
"406 5 OFFCURVE",
"469 4 OFFCURVE",
"522 3 CURVE SMOOTH",
"573 2 OFFCURVE",
"615 0 OFFCURVE",
"637 0 CURVE SMOOTH",
"717 0 LINE",
"717 139 LINE"
);
},
{
closed = 1;
nodes = (
"528 183 OFFCURVE",
"514 170 OFFCURVE",
"490 159 CURVE SMOOTH",
"462 146 OFFCURVE",
"430 139 OFFCURVE",
"395 139 CURVE SMOOTH",
"323 139 LINE",
"332 149 OFFCURVE",
"344 162 OFFCURVE",
"358 175 CURVE SMOOTH",
"396 211 OFFCURVE",
"431 229 OFFCURVE",
"460 229 CURVE SMOOTH",
"510 229 OFFCURVE",
"529 202 OFFCURVE",
"536 190 CURVE"
);
}
);
width = 687;
}
);
unicode = FEC2;
},
{
glyphname = "tah-ar.medi";
lastChange = "2015-10-13 00:02:31 +0000";
layers = (
{
layerId = "51F41761-070F-43EA-B302-C90910850260";
name = Regular;
paths = (
{
closed = 1;
nodes = (
"400 98 OFFCURVE",
"344 81 OFFCURVE",
"324 73 CURVE",
"377 114 OFFCURVE",
"405 165 OFFCURVE",
"405 217 CURVE SMOOTH",
"405 230 OFFCURVE",
"400 255 OFFCURVE",
"368 280 CURVE SMOOTH",
"347 297 OFFCURVE",
"321 308 OFFCURVE",
"301 308 CURVE SMOOTH",
"246 308 OFFCURVE",
"198 279 OFFCURVE",
"130 204 CURVE",
"126 200 OFFCURVE",
"118 191 OFFCURVE",
"111 183 CURVE",
"111 183 OFFCURVE",
"120 217 OFFCURVE",
"117 276 CURVE SMOOTH",
"116 302 OFFCURVE",
"113 344 OFFCURVE",
"106 396 CURVE",
"103 440 OFFCURVE",
"109 462 OFFCURVE",
"133 482 CURVE",
"104 513 OFFCURVE",
"83 549 OFFCURVE",
"73 568 CURVE",
"24 492 LINE",
"28 482 OFFCURVE",
"37 457 OFFCURVE",
"47 410 CURVE SMOOTH",
"58 358 OFFCURVE",
"76 263 OFFCURVE",
"80 151 CURVE",
"68 137 OFFCURVE",
"56 122 OFFCURVE",
"37 98 CURVE",
"-22 98 LINE SMOOTH",
"-51 98 OFFCURVE",
"-70 77 OFFCURVE",
"-70 49 CURVE SMOOTH",
"-70 23 OFFCURVE",
"-48 0 OFFCURVE",
"-22 0 CURVE SMOOTH",
"15 0 LINE SMOOTH",
"18 0 OFFCURVE",
"103 1 OFFCURVE",
"109 1 CURVE SMOOTH",
"140 1 OFFCURVE",
"319 2 OFFCURVE",
"360 1 CURVE SMOOTH",
"388 1 OFFCURVE",
"409 0 OFFCURVE",
"439 0 CURVE SMOOTH",
"499 0 LINE",
"499 98 LINE",
"445 98 LINE SMOOTH"
);
},
{
closed = 1;
nodes = (
"257 105 OFFCURVE",
"227 98 OFFCURVE",
"189 98 CURVE SMOOTH",
"78 98 LINE",
"95 117 OFFCURVE",
"109 134 OFFCURVE",
"124 149 CURVE SMOOTH",
"160 186 OFFCURVE",
"213 229 OFFCURVE",
"257 229 CURVE SMOOTH",
"309 229 OFFCURVE",
"333 209 OFFCURVE",
"354 165 CURVE",
"331 141 OFFCURVE",
"314 127 OFFCURVE",
"282 114 CURVE"
);
}
);
width = 479;
},
{
layerId = "0E844BAD-773F-41FF-B6D6-C35F1E5E991C";
name = Bold;
paths = (
{
closed = 1;
nodes = (
"484 139 OFFCURVE",
"463 137 OFFCURVE",
"444 131 CURVE",
"468 164 OFFCURVE",
"481 201 OFFCURVE",
"481 238 CURVE SMOOTH",
"481 267 OFFCURVE",
"465 295 OFFCURVE",
"436 318 CURVE SMOOTH",
"411 337 OFFCURVE",
"381 349 OFFCURVE",
"357 349 CURVE SMOOTH",
"325 349 OFFCURVE",
"297 341 OFFCURVE",
"268 324 CURVE SMOOTH",
"245 310 OFFCURVE",
"215 286 OFFCURVE",
"188 257 CURVE",
"192 278 OFFCURVE",
"193 295 OFFCURVE",
"191 324 CURVE SMOOTH",
"189 348 OFFCURVE",
"186 368 OFFCURVE",
"182 399 CURVE",
"169 457 OFFCURVE",
"219 481 OFFCURVE",
"219 481 CURVE",
"172 525 OFFCURVE",
"142 584 OFFCURVE",
"132 611 CURVE",
"56 495 LINE",
"56 495 OFFCURVE",
"72 460 OFFCURVE",
"86 405 CURVE SMOOTH",
"108 317 OFFCURVE",
"115 240 OFFCURVE",
"118 179 CURVE",
"105 165 OFFCURVE",
"91 149 OFFCURVE",
"82 139 CURVE",
"33 139 LINE SMOOTH",
"-22 139 OFFCURVE",
"-36 88 OFFCURVE",
"-36 69 CURVE SMOOTH",
"-36 51 OFFCURVE",
"-22 0 OFFCURVE",
"33 0 CURVE SMOOTH",
"89 0 LINE SMOOTH",
"97 0 OFFCURVE",
"156 1 OFFCURVE",
"192 2 CURVE SMOOTH",
"256 5 OFFCURVE",
"319 4 OFFCURVE",
"372 3 CURVE SMOOTH",
"423 2 OFFCURVE",
"465 0 OFFCURVE",
"487 0 CURVE SMOOTH",
"567 0 LINE",
"567 139 LINE",
"499 139 LINE SMOOTH"
);
},
{
closed = 1;
nodes = (
"312 146 OFFCURVE",
"280 139 OFFCURVE",
"245 139 CURVE SMOOTH",
"173 139 LINE",
"182 149 OFFCURVE",
"194 162 OFFCURVE",
"208 175 CURVE SMOOTH",
"246 211 OFFCURVE",
"281 229 OFFCURVE",
"310 229 CURVE SMOOTH",
"360 229 OFFCURVE",
"379 202 OFFCURVE",
"386 190 CURVE",
"378 183 OFFCURVE",
"364 170 OFFCURVE",
"340 159 CURVE SMOOTH"
);
}
);
width = 537;
}
);
unicode = FEC4;
},
{
glyphname = "tah-ar.init";
lastChange = "2015-10-13 00:02:47 +0000";
layers = (
{
layerId = "51F41761-070F-43EA-B302-C90910850260";
name = Regular;
paths = (
{
closed = 1;
nodes = (
"405 230 OFFCURVE",
"400 255 OFFCURVE",
"368 280 CURVE SMOOTH",
"347 297 OFFCURVE",
"321 308 OFFCURVE",
"301 308 CURVE SMOOTH",
"246 308 OFFCURVE",
"198 279 OFFCURVE",
"130 204 CURVE SMOOTH",
"128 202 OFFCURVE",
"113 185 OFFCURVE",
"111 183 CURVE",
"111 183 OFFCURVE",
"120 217 OFFCURVE",
"117 276 CURVE SMOOTH",
"116 302 OFFCURVE",
"113 344 OFFCURVE",
"106 396 CURVE SMOOTH",
"103 440 OFFCURVE",
"109 462 OFFCURVE",
"133 482 CURVE",
"104 513 OFFCURVE",
"83 549 OFFCURVE",
"73 568 CURVE",
"24 492 LINE",
"28 482 OFFCURVE",
"37 457 OFFCURVE",
"47 410 CURVE SMOOTH",
"58 358 OFFCURVE",
"76 263 OFFCURVE",
"80 151 CURVE",
"68 137 OFFCURVE",
"56 122 OFFCURVE",
"37 98 CURVE",
"-22 98 LINE SMOOTH",
"-49 98 OFFCURVE",
"-70 77 OFFCURVE",
"-70 49 CURVE SMOOTH",
"-70 22 OFFCURVE",
"-50 0 OFFCURVE",
"-22 0 CURVE SMOOTH",
"57 0 LINE SMOOTH",
"80 0 OFFCURVE",
"111 1 OFFCURVE",
"136 2 CURVE SMOOTH",
"198 4 OFFCURVE",
"265 29 OFFCURVE",
"317 68 CURVE SMOOTH",
"374 110 OFFCURVE",
"405 163 OFFCURVE",
"405 217 CURVE SMOOTH"
);
},
{
closed = 1;
nodes = (
"331 141 OFFCURVE",
"314 127 OFFCURVE",
"282 114 CURVE SMOOTH",
"257 105 OFFCURVE",
"227 98 OFFCURVE",
"189 98 CURVE SMOOTH",
"78 98 LINE SMOOTH",
"95 117 OFFCURVE",
"109 134 OFFCURVE",
"124 149 CURVE SMOOTH",
"160 186 OFFCURVE",
"213 229 OFFCURVE",
"257 229 CURVE SMOOTH",
"309 229 OFFCURVE",
"333 209 OFFCURVE",
"354 165 CURVE SMOOTH"
);
}
);
width = 435;
},
{
layerId = "0E844BAD-773F-41FF-B6D6-C35F1E5E991C";
name = Bold;
paths = (
{
closed = 1;
nodes = (
"427 267 OFFCURVE",
"411 295 OFFCURVE",
"382 318 CURVE SMOOTH",
"357 337 OFFCURVE",
"327 349 OFFCURVE",
"303 349 CURVE SMOOTH",
"271 349 OFFCURVE",
"243 341 OFFCURVE",
"214 324 CURVE SMOOTH",
"191 310 OFFCURVE",
"161 286 OFFCURVE",
"134 257 CURVE",
"138 278 OFFCURVE",
"139 295 OFFCURVE",
"137 324 CURVE SMOOTH",
"135 348 OFFCURVE",
"132 368 OFFCURVE",
"128 399 CURVE",
"115 457 OFFCURVE",
"165 481 OFFCURVE",
"165 481 CURVE",
"118 525 OFFCURVE",
"88 584 OFFCURVE",
"78 611 CURVE",
"2 495 LINE",
"2 495 OFFCURVE",
"18 460 OFFCURVE",
"32 405 CURVE SMOOTH",
"54 317 OFFCURVE",
"61 240 OFFCURVE",
"64 179 CURVE",
"51 165 OFFCURVE",
"37 149 OFFCURVE",
"28 139 CURVE",
"-21 139 LINE SMOOTH",
"-76 139 OFFCURVE",
"-90 88 OFFCURVE",
"-90 69 CURVE SMOOTH",
"-90 51 OFFCURVE",
"-76 0 OFFCURVE",
"-21 0 CURVE",
"35 0 LINE",
"43 0 OFFCURVE",
"101 2 OFFCURVE",
"138 2 CURVE SMOOTH",
"194 2 OFFCURVE",
"276 32 OFFCURVE",
"331 73 CURVE SMOOTH",
"393 119 OFFCURVE",
"427 178 OFFCURVE",
"427 238 CURVE SMOOTH"
);
},
{
closed = 1;
nodes = (
"324 183 OFFCURVE",
"310 170 OFFCURVE",
"286 159 CURVE SMOOTH",
"258 146 OFFCURVE",
"226 139 OFFCURVE",
"191 139 CURVE SMOOTH",
"119 139 LINE",
"128 149 OFFCURVE",
"140 162 OFFCURVE",
"154 175 CURVE SMOOTH",
"192 211 OFFCURVE",
"227 229 OFFCURVE",
"256 229 CURVE SMOOTH",
"306 229 OFFCURVE",
"325 202 OFFCURVE",
"332 190 CURVE"
);
}
);
width = 467;
}
);
unicode = FEC3;
},
{
glyphname = "ain-ar";
lastChange = "2015-10-14 06:41:04 +0000";
layers = (
{
layerId = "51F41761-070F-43EA-B302-C90910850260";
name = Regular;
paths = (
{
closed = 1;
nodes = (
"354 428 OFFCURVE",
"277 402 OFFCURVE",
"235 386 CURVE",
"195 398 OFFCURVE",
"153 422 OFFCURVE",
"135 466 CURVE",
"158 491 OFFCURVE",
"179 507 OFFCURVE",
"223 518 CURVE SMOOTH",
"273 530 OFFCURVE",
"309 523 OFFCURVE",
"323 520 CURVE",
"338 542 LINE",
"301 572 OFFCURVE",
"253 584 OFFCURVE",
"223 584 CURVE SMOOTH",
"185 584 OFFCURVE",
"144 552 OFFCURVE",
"122 520 CURVE SMOOTH",
"99 487 OFFCURVE",
"90 452 OFFCURVE",
"96 422 CURVE SMOOTH",
"103 388 OFFCURVE",
"138 357 OFFCURVE",
"167 342 CURVE",
"122 298 OFFCURVE",
"64 213 OFFCURVE",
"52 110 CURVE SMOOTH",
"44 40 OFFCURVE",
"67 -18 OFFCURVE",
"106 -61 CURVE SMOOTH",
"146 -105 OFFCURVE",
"202 -131 OFFCURVE",
"270 -131 CURVE SMOOTH",
"316 -131 OFFCURVE",
"340 -119 OFFCURVE",
"365 -105 CURVE SMOOTH",
"389 -92 OFFCURVE",
"415 -79 OFFCURVE",
"460 -77 CURVE",
"465 -62 LINE",
"429 -57 OFFCURVE",
"420 -57 OFFCURVE",
"383 -54 CURVE SMOOTH",
"342 -51 OFFCURVE",
"308 -46 OFFCURVE",
"295 -44 CURVE SMOOTH",
"231 -34 OFFCURVE",
"181 -10 OFFCURVE",
"149 27 CURVE SMOOTH",
"131 48 OFFCURVE",
"110 81 OFFCURVE",
"110 148 CURVE SMOOTH",
"110 198 OFFCURVE",
"135 262 OFFCURVE",
"218 315 CURVE SMOOTH",
"257 339 OFFCURVE",
"309 361 OFFCURVE",
"377 378 CURVE",
"383 398 OFFCURVE",
"389 418 OFFCURVE",
"395 441 CURVE"
);
}
);
width = 495;
},
{
layerId = "0E844BAD-773F-41FF-B6D6-C35F1E5E991C";
name = Bold;
paths = (
{
closed = 1;
nodes = (
"379 520 OFFCURVE",
"298 493 OFFCURVE",
"263 478 CURVE",
"207 491 OFFCURVE",
"191 514 OFFCURVE",
"180 532 CURVE",
"195 545 OFFCURVE",
"219 562 OFFCURVE",
"255 572 CURVE SMOOTH",
"297 583 OFFCURVE",
"321 579 OFFCURVE",
"361 568 CURVE",
"396 616 LINE",
"361 648 OFFCURVE",
"311 675 OFFCURVE",
"259 675 CURVE SMOOTH",
"205 675 OFFCURVE",
"160 638 OFFCURVE",
"135 603 CURVE SMOOTH",
"109 565 OFFCURVE",
"98 523 OFFCURVE",
"106 488 CURVE SMOOTH",
"112 460 OFFCURVE",
"135 430 OFFCURVE",
"165 408 CURVE",
"148 388 OFFCURVE",
"76 308 OFFCURVE",
"62 183 CURVE SMOOTH",
"54 112 OFFCURVE",
"77 46 OFFCURVE",
"121 -3 CURVE SMOOTH",
"166 -53 OFFCURVE",
"229 -80 OFFCURVE",
"301 -80 CURVE SMOOTH",
"352 -80 OFFCURVE",
"379 -66 OFFCURVE",
"405 -52 CURVE SMOOTH",
"430 -39 OFFCURVE",
"463 -24 OFFCURVE",
"505 -26 CURVE",
"522 27 LINE",
"480 35 OFFCURVE",
"441 37 OFFCURVE",
"415 38 CURVE",
"408 38 OFFCURVE",
"358 41 OFFCURVE",
"318 48 CURVE SMOOTH",
"261 58 OFFCURVE",
"214 77 OFFCURVE",
"184 113 CURVE SMOOTH",
"160 142 OFFCURVE",
"151 177 OFFCURVE",
"151 218 CURVE SMOOTH",
"151 282 OFFCURVE",
"200 330 OFFCURVE",
"256 364 CURVE SMOOTH",
"309 396 OFFCURVE",
"357 413 OFFCURVE",
"422 431 CURVE",
"436 468 OFFCURVE",
"444 501 OFFCURVE",
"452 542 CURVE"
);
}
);
width = 562;
}
);
unicode = 0639;
},
{
glyphname = "ain-ar.fina";
lastChange = "2015-10-14 06:35:48 +0000";
layers = (
{
layerId = "51F41761-070F-43EA-B302-C90910850260";
name = Regular;
paths = (
{
closed = 1;
nodes = (
"400 98 LINE SMOOTH",
"384 98 OFFCURVE",
"363 105 OFFCURVE",
"344 118 CURVE",
"381 145 OFFCURVE",
"410 170 OFFCURVE",
"410 202 CURVE SMOOTH",
"410 247 OFFCURVE",
"352 263 OFFCURVE",
"297 263 CURVE SMOOTH",
"252 263 OFFCURVE",
"212 242 OFFCURVE",
"202 237 CURVE",
"194 216 OFFCURVE",
"188 191 OFFCURVE",
"184 165 CURVE",
"214 159 OFFCURVE",
"236 143 OFFCURVE",
"255 124 CURVE",
"222 109 OFFCURVE",
"172 79 OFFCURVE",
"125 13 CURVE SMOOTH",
"99 -24 OFFCURVE",
"85 -65 OFFCURVE",
"81 -105 CURVE SMOOTH",
"75 -164 OFFCURVE",
"95 -214 OFFCURVE",
"133 -250 CURVE SMOOTH",
"172 -288 OFFCURVE",
"226 -310 OFFCURVE",
"292 -310 CURVE SMOOTH",
"337 -310 OFFCURVE",
"360 -300 OFFCURVE",
"384 -288 CURVE SMOOTH",
"407 -277 OFFCURVE",
"433 -266 OFFCURVE",
"476 -264 CURVE",
"481 -247 LINE",
"446 -242 OFFCURVE",
"437 -242 OFFCURVE",
"402 -240 CURVE SMOOTH",
"362 -237 OFFCURVE",
"329 -233 OFFCURVE",
"316 -231 CURVE SMOOTH",
"254 -223 OFFCURVE",
"210 -202 OFFCURVE",
"179 -171 CURVE SMOOTH",
"149 -140 OFFCURVE",
"138 -106 OFFCURVE",
"140 -72 CURVE SMOOTH",
"143 -20 OFFCURVE",
"183 34 OFFCURVE",
"236 71 CURVE SMOOTH",
"250 81 OFFCURVE",
"265 89 OFFCURVE",
"280 95 CURVE",
"299 69 OFFCURVE",
"317 43 OFFCURVE",
"339 26 CURVE SMOOTH",
"361 8 OFFCURVE",
"389 0 OFFCURVE",
"419 0 CURVE SMOOTH",
"489 0 LINE",
"489 98 LINE"
);
}
);
width = 600;
},
{
layerId = "0E844BAD-773F-41FF-B6D6-C35F1E5E991C";
name = Bold;
paths = (
{
closed = 1;
nodes = (
"401 139 LINE SMOOTH",
"395 139 OFFCURVE",
"390 140 OFFCURVE",
"384 141 CURVE",
"393 149 OFFCURVE",
"432 188 OFFCURVE",
"432 222 CURVE SMOOTH",
"432 262 OFFCURVE",
"397 304 OFFCURVE",
"298 304 CURVE SMOOTH",
"260 304 OFFCURVE",
"227 293 OFFCURVE",
"187 271 CURVE",
"175 244 OFFCURVE",
"169 210 OFFCURVE",
"165 177 CURVE",
"182 177 OFFCURVE",
"207 169 OFFCURVE",
"223 150 CURVE",
"175 122 OFFCURVE",
"130 79 OFFCURVE",
"104 40 CURVE SMOOTH",
"82 7 OFFCURVE",
"66 -33 OFFCURVE",
"61 -79 CURVE SMOOTH",
"54 -138 OFFCURVE",
"71 -193 OFFCURVE",
"108 -235 CURVE SMOOTH",
"151 -283 OFFCURVE",
"216 -310 OFFCURVE",
"292 -310 CURVE SMOOTH",
"343 -310 OFFCURVE",
"369 -296 OFFCURVE",
"392 -281 CURVE SMOOTH",
"441 -250 OFFCURVE",
"488 -255 OFFCURVE",
"488 -255 CURVE",
"507 -202 LINE",
"468 -196 OFFCURVE",
"430 -194 OFFCURVE",
"402 -198 CURVE SMOOTH",
"380 -201 OFFCURVE",
"359 -201 OFFCURVE",
"316 -196 CURVE SMOOTH",
"259 -189 OFFCURVE",
"214 -170 OFFCURVE",
"186 -140 CURVE SMOOTH",
"157 -109 OFFCURVE",
"154 -74 OFFCURVE",
"156 -50 CURVE SMOOTH",
"159 -16 OFFCURVE",
"172 15 OFFCURVE",
"194 40 CURVE SMOOTH",
"212 60 OFFCURVE",
"241 79 OFFCURVE",
"268 90 CURVE",
"282 71 OFFCURVE",
"296 53 OFFCURVE",
"312 38 CURVE SMOOTH",
"341 11 OFFCURVE",
"379 0 OFFCURVE",
"413 0 CURVE SMOOTH",
"511 0 LINE",
"511 139 LINE"
);
}
);
width = 481;
}
);
unicode = FECA;
},
{
glyphname = "ain-ar.medi";
lastChange = "2015-10-14 06:27:21 +0000";
layers = (
{
layerId = "51F41761-070F-43EA-B302-C90910850260";
name = Regular;
paths = (
{
closed = 1;
nodes = (
"282 98 LINE SMOOTH",
"257 98 OFFCURVE",
"243 104 OFFCURVE",
"226 118 CURVE SMOOTH",
"226 118 OFFCURVE",
"293 159 OFFCURVE",
"293 202 CURVE SMOOTH",
"293 247 OFFCURVE",
"234 263 OFFCURVE",
"179 263 CURVE SMOOTH",
"134 263 OFFCURVE",
"94 242 OFFCURVE",
"84 237 CURVE",
"76 216 OFFCURVE",
"70 191 OFFCURVE",
"67 165 CURVE",
"102 159 OFFCURVE",
"117 146 OFFCURVE",
"138 121 CURVE",
"115 106 OFFCURVE",
"97 98 OFFCURVE",
"66 98 CURVE SMOOTH",
"-22 98 LINE SMOOTH",
"-54 98 OFFCURVE",
"-70 66 OFFCURVE",
"-70 49 CURVE SMOOTH",
"-70 22 OFFCURVE",
"-48 0 OFFCURVE",
"-22 0 CURVE SMOOTH",
"28 0 LINE SMOOTH",
"62 0 OFFCURVE",
"89 7 OFFCURVE",
"113 20 CURVE SMOOTH",
"133 30 OFFCURVE",
"154 48 OFFCURVE",
"181 73 CURVE SMOOTH",
"191 53 OFFCURVE",
"200 40 OFFCURVE",
"221 26 CURVE SMOOTH",
"245 9 OFFCURVE",
"271 0 OFFCURVE",
"301 0 CURVE SMOOTH",
"372 0 LINE",
"372 98 LINE"
);
}
);
width = 352;
},
{
layerId = "0E844BAD-773F-41FF-B6D6-C35F1E5E991C";
name = Bold;
paths = (
{
closed = 1;
nodes = (
"283 139 LINE SMOOTH",
"277 139 OFFCURVE",
"271 140 OFFCURVE",
"266 141 CURVE",
"275 149 OFFCURVE",
"314 188 OFFCURVE",
"314 222 CURVE SMOOTH",
"314 262 OFFCURVE",
"279 304 OFFCURVE",
"180 304 CURVE SMOOTH",
"141 304 OFFCURVE",
"102 292 OFFCURVE",
"68 271 CURVE",
"58 243 OFFCURVE",
"50 212 OFFCURVE",
"47 177 CURVE",
"64 177 OFFCURVE",
"93 169 OFFCURVE",
"107 147 CURVE",
"98 143 OFFCURVE",
"84 139 OFFCURVE",
"67 139 CURVE SMOOTH",
"-21 139 LINE SMOOTH",
"-39 139 OFFCURVE",
"-90 124 OFFCURVE",
"-90 69 CURVE SMOOTH",
"-90 51 OFFCURVE",
"-73 0 OFFCURVE",
"-21 0 CURVE SMOOTH",
"29 0 LINE SMOOTH",
"64 0 OFFCURVE",
"92 7 OFFCURVE",
"117 19 CURVE SMOOTH",
"138 29 OFFCURVE",
"158 43 OFFCURVE",
"178 61 CURVE",
"185 52 OFFCURVE",
"196 40 OFFCURVE",
"210 30 CURVE SMOOTH",
"236 10 OFFCURVE",
"268 0 OFFCURVE",
"302 0 CURVE SMOOTH",
"393 0 LINE",
"393 139 LINE"
);
}
);
width = 363;
}
);
unicode = FECC;
},
{
glyphname = "ain-ar.init";
lastChange = "2015-10-14 06:07:56 +0000";
layers = (
{
layerId = "51F41761-070F-43EA-B302-C90910850260";
name = Regular;
paths = (
{
closed = 1;
nodes = (
"311 133 OFFCURVE",
"293 127 OFFCURVE",
"272 121 CURVE",
"208 100 OFFCURVE",
"162 99 OFFCURVE",
"162 99 CURVE",
"114 119 OFFCURVE",
"76 181 OFFCURVE",
"69 222 CURVE",
"98 245 OFFCURVE",
"132 256 OFFCURVE",
"180 256 CURVE SMOOTH",
"222 256 OFFCURVE",
"255 244 OFFCURVE",
"267 239 CURVE",
"287 257 LINE",
"282 265 OFFCURVE",
"227 322 OFFCURVE",
"171 322 CURVE SMOOTH",
"137 322 OFFCURVE",
"96 300 OFFCURVE",
"70 276 CURVE SMOOTH",
"40 249 OFFCURVE",
"17 208 OFFCURVE",
"17 170 CURVE SMOOTH",
"17 143 OFFCURVE",
"32 113 OFFCURVE",
"54 98 CURVE",
"-20 98 LINE SMOOTH",
"-50 98 OFFCURVE",
"-70 77 OFFCURVE",
"-70 50 CURVE SMOOTH",
"-70 22 OFFCURVE",
"-48 0 OFFCURVE",
"-20 0 CURVE SMOOTH",
"63 0 LINE SMOOTH",
"154 0 OFFCURVE",
"217 26 OFFCURVE",
"261 43 CURVE SMOOTH",
"275 48 OFFCURVE",
"264 45 OFFCURVE",
"292 55 CURVE",
"307 85 OFFCURVE",
"314 105 OFFCURVE",
"324 137 CURVE"
);
}
);
width = 354;
},
{
layerId = "0E844BAD-773F-41FF-B6D6-C35F1E5E991C";
name = Bold;
paths = (
{
closed = 1;
nodes = (
"356 187 OFFCURVE",
"348 185 OFFCURVE",
"341 182 CURVE SMOOTH",
"340 182 OFFCURVE",
"229 141 OFFCURVE",
"171 140 CURVE",
"122 161 OFFCURVE",
"102 207 OFFCURVE",
"95 232 CURVE",
"109 240 OFFCURVE",
"145 256 OFFCURVE",
"190 256 CURVE SMOOTH",
"226 256 OFFCURVE",
"248 251 OFFCURVE",
"281 234 CURVE",
"322 273 LINE",
"280 330 OFFCURVE",
"241 363 OFFCURVE",
"177 363 CURVE SMOOTH",
"143 363 OFFCURVE",
"101 343 OFFCURVE",
"66 310 CURVE SMOOTH",
"28 275 OFFCURVE",
"7 233 OFFCURVE",
"7 196 CURVE SMOOTH",
"7 174 OFFCURVE",
"11 155 OFFCURVE",
"19 139 CURVE",
"-20 139 LINE SMOOTH",
"-60 139 OFFCURVE",
"-90 109 OFFCURVE",
"-90 70 CURVE SMOOTH",
"-90 31 OFFCURVE",
"-60 0 OFFCURVE",
"-20 0 CURVE SMOOTH",
"73 0 LINE SMOOTH",
"164 0 OFFCURVE",
"234 25 OFFCURVE",
"278 44 CURVE SMOOTH",
"294 51 OFFCURVE",
"316 58 OFFCURVE",
"316 58 CURVE",
"340 102 OFFCURVE",
"353 141 OFFCURVE",
"363 190 CURVE"
);
}
);
width = 403;
}
);
unicode = FECB;
},
{
glyphname = "dotlessfeh-ar";
lastChange = "2015-10-14 18:30:01 +0000";
layers = (
{
layerId = "51F41761-070F-43EA-B302-C90910850260";
name = Regular;
paths = (
{
closed = 1;
nodes = (
"598 424 OFFCURVE",
"574 391 OFFCURVE",
"563 371 CURVE SMOOTH",
"547 342 OFFCURVE",
"536 303 OFFCURVE",
"536 269 CURVE SMOOTH",
"536 239 OFFCURVE",
"545 214 OFFCURVE",
"563 198 CURVE SMOOTH",
"575 187 OFFCURVE",
"593 177 OFFCURVE",
"628 177 CURVE SMOOTH",
"644 177 OFFCURVE",
"680 179 OFFCURVE",
"705 203 CURVE",
"708 179 OFFCURVE",
"698 155 OFFCURVE",
"684 138 CURVE SMOOTH",
"661 109 OFFCURVE",
"625 91 OFFCURVE",
"549 91 CURVE SMOOTH",
"526 91 OFFCURVE",
"456 90 OFFCURVE",
"387 90 CURVE",
"318 90 OFFCURVE",
"258 90 OFFCURVE",
"209 97 CURVE SMOOTH",
"149 106 OFFCURVE",
"113 129 OFFCURVE",
"93 160 CURVE SMOOTH",
"83 176 OFFCURVE",
"76 196 OFFCURVE",
"72 220 CURVE",
"53 227 LINE SMOOTH",
"48 184 OFFCURVE",
"49 147 OFFCURVE",
"57 116 CURVE SMOOTH",
"74 55 OFFCURVE",
"122 18 OFFCURVE",
"212 3 CURVE SMOOTH",
"248 -3 OFFCURVE",
"279 -6 OFFCURVE",
"377 -6 CURVE SMOOTH",
"532 -6 OFFCURVE",
"611 -4 OFFCURVE",
"667 39 CURVE SMOOTH",
"700 64 OFFCURVE",
"717 98 OFFCURVE",
"728 137 CURVE SMOOTH",
"740 178 OFFCURVE",
"744 226 OFFCURVE",
"740 269 CURVE SMOOTH",
"733 345 OFFCURVE",
"698 424 OFFCURVE",
"637 424 CURVE SMOOTH"
);
},
{
closed = 1;
nodes = (
"684 268 OFFCURVE",
"664 251 OFFCURVE",
"628 251 CURVE SMOOTH",
"573 251 OFFCURVE",
"568 291 OFFCURVE",
"568 301 CURVE SMOOTH",
"568 317 OFFCURVE",
"580 357 OFFCURVE",
"622 357 CURVE SMOOTH",
"659 357 OFFCURVE",
"681 325 OFFCURVE",
"691 276 CURVE"
);
}
);
width = 772;
},
{
layerId = "0E844BAD-773F-41FF-B6D6-C35F1E5E991C";
name = Bold;
paths = (
{
closed = 1;
nodes = (
"629 461 OFFCURVE",
"600 437 OFFCURVE",
"580 404 CURVE SMOOTH",
"558 367 OFFCURVE",
"547 321 OFFCURVE",
"547 287 CURVE SMOOTH",
"547 252 OFFCURVE",
"559 226 OFFCURVE",
"579 209 CURVE SMOOTH",
"599 192 OFFCURVE",
"629 183 OFFCURVE",
"662 183 CURVE SMOOTH",
"684 183 OFFCURVE",
"706 187 OFFCURVE",
"718 191 CURVE",
"710 172 OFFCURVE",
"695 157 OFFCURVE",
"672 147 CURVE SMOOTH",
"653 139 OFFCURVE",
"630 135 OFFCURVE",
"599 135 CURVE SMOOTH",
"582 135 OFFCURVE",
"426 134 OFFCURVE",
"419 134 CURVE",
"393 134 OFFCURVE",
"291 134 OFFCURVE",
"244 140 CURVE SMOOTH",
"214 144 OFFCURVE",
"167 156 OFFCURVE",
"141 183 CURVE SMOOTH",
"126 199 OFFCURVE",
"113 223 OFFCURVE",
"111 258 CURVE",
"66 269 LINE",
"56 198 OFFCURVE",
"58 144 OFFCURVE",
"79 100 CURVE SMOOTH",
"104 47 OFFCURVE",
"155 13 OFFCURVE",
"240 -1 CURVE",
"277 -7 OFFCURVE",
"334 -10 OFFCURVE",
"420 -10 CURVE SMOOTH",
"584 -10 OFFCURVE",
"664 1 OFFCURVE",
"712 39 CURVE SMOOTH",
"742 63 OFFCURVE",
"765 99 OFFCURVE",
"779 148 CURVE SMOOTH",
"791 191 OFFCURVE",
"796 241 OFFCURVE",
"792 287 CURVE SMOOTH",
"784 375 OFFCURVE",
"741 461 OFFCURVE",
"668 461 CURVE SMOOTH"
);
},
{
closed = 1;
nodes = (
"690 292 OFFCURVE",
"679 288 OFFCURVE",
"659 288 CURVE SMOOTH",
"621 288 OFFCURVE",
"614 303 OFFCURVE",
"614 316 CURVE SMOOTH",
"614 336 OFFCURVE",
"629 353 OFFCURVE",
"652 353 CURVE SMOOTH",
"689 353 OFFCURVE",
"698 306 OFFCURVE",
"700 300 CURVE"
);
}
);
width = 833;
}
);
unicode = 06A1;
},
{
glyphname = "dotlessfeh-ar.fina";
lastChange = "2015-10-09 20:54:56 +0000";
layers = (
{
layerId = "51F41761-070F-43EA-B302-C90910850260";
name = Regular;
paths = (
{
closed = 1;
nodes = (
"831 98 LINE SMOOTH",
"807 98 OFFCURVE",
"770 94 OFFCURVE",
"770 94 CURVE SMOOTH",
"770 94 OFFCURVE",
"793 141 OFFCURVE",
"793 198 CURVE SMOOTH",
"793 231 OFFCURVE",
"785 264 OFFCURVE",
"769 287 CURVE SMOOTH",
"756 306 OFFCURVE",
"734 322 OFFCURVE",
"709 322 CURVE SMOOTH",
"682 322 OFFCURVE",
"651 303 OFFCURVE",
"626 269 CURVE SMOOTH",
"603 238 OFFCURVE",
"587 195 OFFCURVE",
"587 164 CURVE SMOOTH",
"587 132 OFFCURVE",
"604 109 OFFCURVE",
"604 109 CURVE SMOOTH",
"604 109 OFFCURVE",
"547 94 OFFCURVE",
"390 94 CURVE SMOOTH",
"332 94 OFFCURVE",
"275 96 OFFCURVE",
"230 103 CURVE SMOOTH",
"182 110 OFFCURVE",
"143 121 OFFCURVE",
"116 140 CURVE SMOOTH",
"89 159 OFFCURVE",
"75 183 OFFCURVE",
"71 222 CURVE",
"53 229 LINE",
"53 227 OFFCURVE",
"48 191 OFFCURVE",
"51 154 CURVE SMOOTH",
"59 60 OFFCURVE",
"111 23 OFFCURVE",
"212 5 CURVE SMOOTH",
"260 -3 OFFCURVE",
"312 -7 OFFCURVE",
"375 -7 CURVE SMOOTH",
"465 -7 OFFCURVE",
"548 1 OFFCURVE",
"594 9 CURVE SMOOTH",
"674 23 OFFCURVE",
"710 49 OFFCURVE",
"732 62 CURVE",
"733 55 OFFCURVE",
"738 0 OFFCURVE",
"817 0 CURVE SMOOTH",
"863 0 LINE",
"863 98 LINE"
);
},
{
closed = 1;
nodes = (
"758 156 OFFCURVE",
"735 117 OFFCURVE",
"694 117 CURVE SMOOTH",
"646 117 OFFCURVE",
"622 169 OFFCURVE",
"622 169 CURVE SMOOTH",
"622 169 OFFCURVE",
"648 242 OFFCURVE",
"693 242 CURVE SMOOTH",
"731 242 OFFCURVE",
"758 187 OFFCURVE",
"758 171 CURVE SMOOTH"
);
}
);
width = 843;
},
{
layerId = "0E844BAD-773F-41FF-B6D6-C35F1E5E991C";
name = Bold;
paths = (
{
closed = 1;
nodes = (
"862 139 LINE SMOOTH",
"852 139 OFFCURVE",
"841 138 OFFCURVE",
"832 137 CURVE",
"841 167 OFFCURVE",
"845 198 OFFCURVE",
"845 220 CURVE SMOOTH",
"845 259 OFFCURVE",
"833 296 OFFCURVE",
"817 319 CURVE SMOOTH",
"800 344 OFFCURVE",
"772 363 OFFCURVE",
"740 363 CURVE SMOOTH",
"706 363 OFFCURVE",
"670 341 OFFCURVE",
"641 302 CURVE SMOOTH",
"614 266 OFFCURVE",
"598 221 OFFCURVE",
"598 182 CURVE SMOOTH",
"598 168 OFFCURVE",
"600 157 OFFCURVE",
"604 145 CURVE",
"549 138 OFFCURVE",
"499 135 OFFCURVE",
"424 135 CURVE SMOOTH",
"362 135 OFFCURVE",
"308 137 OFFCURVE",
"264 144 CURVE SMOOTH",
"209 152 OFFCURVE",
"181 163 OFFCURVE",
"159 179 CURVE SMOOTH",
"108 216 OFFCURVE",
"113 264 OFFCURVE",
"113 264 CURVE",
"66 275 LINE",
"66 275 OFFCURVE",
"59 229 OFFCURVE",
"61 185 CURVE SMOOTH",
"65 75 OFFCURVE",
"118 26 OFFCURVE",
"240 5 CURVE SMOOTH",
"289 -3 OFFCURVE",
"340 -7 OFFCURVE",
"410 -7 CURVE SMOOTH",
"495 -7 OFFCURVE",
"571 -1 OFFCURVE",
"630 10 CURVE SMOOTH",
"678 19 OFFCURVE",
"716 33 OFFCURVE",
"751 52 CURVE",
"766 19 OFFCURVE",
"802 0 OFFCURVE",
"848 0 CURVE SMOOTH",
"915 0 LINE",
"915 139 LINE"
);
},
{
closed = 1;
nodes = (
"781 182 OFFCURVE",
"761 148 OFFCURVE",
"726 148 CURVE SMOOTH",
"694 148 OFFCURVE",
"671 176 OFFCURVE",
"663 188 CURVE",
"666 193 OFFCURVE",
"691 239 OFFCURVE",
"723 239 CURVE SMOOTH",
"755 239 OFFCURVE",
"780 192 OFFCURVE",
"781 189 CURVE"
);
}
);
width = 895;
}
);
},
{
glyphname = "dotlessfeh-ar.medi";
lastChange = "2015-10-09 20:56:45 +0000";
layers = (
{
layerId = "51F41761-070F-43EA-B302-C90910850260";
name = Regular;
paths = (
{
closed = 1;
nodes = (
"155 308 OFFCURVE",
"128 290 OFFCURVE",
"105 259 CURVE SMOOTH",
"84 231 OFFCURVE",
"67 193 OFFCURVE",
"67 158 CURVE SMOOTH",
"67 120 OFFCURVE",
"87 98 OFFCURVE",
"87 98 CURVE SMOOTH",
"-21 98 LINE SMOOTH",
"-47 98 OFFCURVE",
"-70 76 OFFCURVE",
"-70 48 CURVE SMOOTH",
"-70 24 OFFCURVE",
"-53 0 OFFCURVE",
"-21 0 CURVE SMOOTH",
"98 0 LINE SMOOTH",
"174 0 OFFCURVE",
"212 29 OFFCURVE",
"227 55 CURVE",
"232 44 OFFCURVE",
"251 0 OFFCURVE",
"321 0 CURVE SMOOTH",
"363 0 LINE",
"363 98 LINE",
"244 98 LINE SMOOTH",
"244 98 OFFCURVE",
"262 131 OFFCURVE",
"262 185 CURVE SMOOTH",
"262 267 OFFCURVE",
"220 308 OFFCURVE",
"181 308 CURVE SMOOTH"
);
},
{
closed = 1;
nodes = (
"229 155 OFFCURVE",
"206 110 OFFCURVE",
"164 110 CURVE SMOOTH",
"116 110 OFFCURVE",
"99 170 OFFCURVE",
"99 170 CURVE SMOOTH",
"99 170 OFFCURVE",
"129 228 OFFCURVE",
"163 228 CURVE SMOOTH",
"189 228 OFFCURVE",
"229 192 OFFCURVE",
"229 171 CURVE SMOOTH"
);
}
);
width = 343;
},
{
layerId = "0E844BAD-773F-41FF-B6D6-C35F1E5E991C";
name = Bold;
paths = (
{
closed = 1;
nodes = (
"150 349 OFFCURVE",
"115 327 OFFCURVE",
"89 292 CURVE SMOOTH",
"64 258 OFFCURVE",
"49 215 OFFCURVE",
"47 183 CURVE SMOOTH",
"46 167 OFFCURVE",
"48 152 OFFCURVE",
"53 139 CURVE",
"-20 139 LINE SMOOTH",
"-58 139 OFFCURVE",
"-90 108 OFFCURVE",
"-90 68 CURVE SMOOTH",
"-90 32 OFFCURVE",
"-65 0 OFFCURVE",
"-20 0 CURVE SMOOTH",
"98 0 LINE SMOOTH",
"181 0 OFFCURVE",
"213 32 OFFCURVE",
"228 46 CURVE",
"233 31 OFFCURVE",
"264 0 OFFCURVE",
"321 0 CURVE SMOOTH",
"384 0 LINE",
"384 139 LINE",
"273 139 LINE",
"281 161 OFFCURVE",
"284 184 OFFCURVE",
"283 211 CURVE SMOOTH",
"280 293 OFFCURVE",
"235 349 OFFCURVE",
"183 349 CURVE SMOOTH"
);
},
{
closed = 1;
nodes = (
"216 172 OFFCURVE",
"189 151 OFFCURVE",
"164 151 CURVE SMOOTH",
"135 151 OFFCURVE",
"115 180 OFFCURVE",
"112 189 CURVE",
"119 200 OFFCURVE",
"139 228 OFFCURVE",
"163 228 CURVE SMOOTH",
"187 228 OFFCURVE",
"215 198 OFFCURVE",
"219 191 CURVE"
);
}
);
width = 364;
}
);
},
{
glyphname = "dotlessfeh-ar.init";
lastChange = "2015-10-09 20:57:57 +0000";
layers = (
{
layerId = "51F41761-070F-43EA-B302-C90910850260";
name = Regular;
paths = (
{
closed = 1;
nodes = (
"107 424 OFFCURVE",
"83 391 OFFCURVE",
"72 371 CURVE SMOOTH",
"56 342 OFFCURVE",
"45 303 OFFCURVE",
"45 269 CURVE SMOOTH",
"45 239 OFFCURVE",
"54 214 OFFCURVE",
"72 198 CURVE SMOOTH",
"84 187 OFFCURVE",
"102 177 OFFCURVE",
"137 177 CURVE SMOOTH",
"153 177 OFFCURVE",
"189 179 OFFCURVE",
"214 203 CURVE",
"217 179 OFFCURVE",
"206 153 OFFCURVE",
"193 138 CURVE SMOOTH",
"175 116 OFFCURVE",
"140 98 OFFCURVE",
"77 98 CURVE SMOOTH",
"53 98 OFFCURVE",
"-21 98 OFFCURVE",
"-21 98 CURVE SMOOTH",
"-48 98 OFFCURVE",
"-70 77 OFFCURVE",
"-70 50 CURVE SMOOTH",
"-70 22 OFFCURVE",
"-48 0 OFFCURVE",
"-21 0 CURVE SMOOTH",
"38 0 LINE SMOOTH",
"83 0 OFFCURVE",
"135 4 OFFCURVE",
"177 38 CURVE SMOOTH",
"205 61 OFFCURVE",
"225 96 OFFCURVE",
"237 137 CURVE SMOOTH",
"249 178 OFFCURVE",
"253 226 OFFCURVE",
"249 269 CURVE SMOOTH",
"242 345 OFFCURVE",
"207 424 OFFCURVE",
"146 424 CURVE SMOOTH"
);
},
{
closed = 1;
nodes = (
"193 268 OFFCURVE",
"173 251 OFFCURVE",
"137 251 CURVE SMOOTH",
"82 251 OFFCURVE",
"77 291 OFFCURVE",
"77 301 CURVE SMOOTH",
"77 317 OFFCURVE",
"89 357 OFFCURVE",
"131 357 CURVE SMOOTH",
"168 357 OFFCURVE",
"190 325 OFFCURVE",
"200 276 CURVE"
);
}
);
width = 281;
},
{
layerId = "0E844BAD-773F-41FF-B6D6-C35F1E5E991C";
name = Bold;
paths = (
{
closed = 1;
nodes = (
"108 471 OFFCURVE",
"79 447 OFFCURVE",
"59 414 CURVE SMOOTH",
"37 377 OFFCURVE",
"26 332 OFFCURVE",
"26 297 CURVE SMOOTH",
"26 257 OFFCURVE",
"40 235 OFFCURVE",
"58 220 CURVE",
"77 202 OFFCURVE",
"106 193 OFFCURVE",
"140 193 CURVE SMOOTH",
"163 193 OFFCURVE",
"185 197 OFFCURVE",
"197 201 CURVE",
"189 182 OFFCURVE",
"175 162 OFFCURVE",
"151 151 CURVE SMOOTH",
"132 143 OFFCURVE",
"108 139 OFFCURVE",
"78 139 CURVE SMOOTH",
"56 139 OFFCURVE",
"-21 139 OFFCURVE",
"-21 139 CURVE SMOOTH",
"-55 139 OFFCURVE",
"-90 114 OFFCURVE",
"-90 70 CURVE SMOOTH",
"-90 30 OFFCURVE",
"-60 0 OFFCURVE",
"-20 0 CURVE SMOOTH",
"37 0 LINE SMOOTH",
"104 0 OFFCURVE",
"154 12 OFFCURVE",
"190 42 CURVE SMOOTH",
"217 64 OFFCURVE",
"242 99 OFFCURVE",
"258 158 CURVE SMOOTH",
"270 201 OFFCURVE",
"275 252 OFFCURVE",
"271 297 CURVE SMOOTH",
"263 385 OFFCURVE",
"220 471 OFFCURVE",
"147 471 CURVE SMOOTH"
);
},
{
closed = 1;
nodes = (
"169 302 OFFCURVE",
"158 298 OFFCURVE",
"138 298 CURVE SMOOTH",
"100 298 OFFCURVE",
"93 313 OFFCURVE",
"93 326 CURVE SMOOTH",
"93 346 OFFCURVE",
"108 363 OFFCURVE",
"131 363 CURVE SMOOTH",
"168 363 OFFCURVE",
"177 316 OFFCURVE",
"179 310 CURVE"
);
}
);
width = 312;
}
);
},
{
glyphname = "dotlessqaf-ar";
lastChange = "2015-10-09 20:58:17 +0000";
layers = (
{
layerId = "51F41761-070F-43EA-B302-C90910850260";
name = Regular;
paths = (
{
closed = 1;
nodes = (
"364 331 OFFCURVE",
"334 324 OFFCURVE",
"308 278 CURVE SMOOTH",
"293 251 OFFCURVE",
"281 212 OFFCURVE",
"281 176 CURVE SMOOTH",
"281 146 OFFCURVE",
"289 121 OFFCURVE",
"307 105 CURVE SMOOTH",
"322 91 OFFCURVE",
"345 84 OFFCURVE",
"375 84 CURVE SMOOTH",
"423 84 OFFCURVE",
"449 102 OFFCURVE",
"449 102 CURVE",
"459 56 LINE",
"459 56 OFFCURVE",
"449 10 OFFCURVE",
"411 -29 CURVE SMOOTH",
"379 -62 OFFCURVE",
"329 -87 OFFCURVE",
"260 -87 CURVE SMOOTH",
"201 -87 OFFCURVE",
"142 -69 OFFCURVE",
"112 -31 CURVE SMOOTH",
"86 2 OFFCURVE",
"88 42 OFFCURVE",
"99 100 CURVE",
"80 107 LINE",
"65 70 OFFCURVE",
"54 31 OFFCURVE",
"51 -6 CURVE SMOOTH",
"49 -34 OFFCURVE",
"50 -62 OFFCURVE",
"63 -94 CURVE SMOOTH",
"77 -129 OFFCURVE",
"101 -155 OFFCURVE",
"135 -173 CURVE SMOOTH",
"168 -191 OFFCURVE",
"210 -200 OFFCURVE",
"257 -200 CURVE SMOOTH",
"302 -200 OFFCURVE",
"336 -192 OFFCURVE",
"367 -177 CURVE SMOOTH",
"395 -163 OFFCURVE",
"420 -143 OFFCURVE",
"440 -117 CURVE SMOOTH",
"459 -92 OFFCURVE",
"474 -62 OFFCURVE",
"484 -26 CURVE SMOOTH",
"493 7 OFFCURVE",
"498 43 OFFCURVE",
"498 78 CURVE SMOOTH",
"498 122 OFFCURVE",
"490 183 OFFCURVE",
"467 241 CURVE SMOOTH",
"455 270 OFFCURVE",
"446 287 OFFCURVE",
"428 306 CURVE SMOOTH",
"413 322 OFFCURVE",
"397 331 OFFCURVE",
"379 331 CURVE SMOOTH"
);
},
{
closed = 1;
nodes = (
"424 264 OFFCURVE",
"436 184 OFFCURVE",
"436 184 CURVE SMOOTH",
"436 184 OFFCURVE",
"419 158 OFFCURVE",
"376 158 CURVE SMOOTH",
"350 158 OFFCURVE",
"313 168 OFFCURVE",
"313 208 CURVE SMOOTH",
"313 241 OFFCURVE",
"338 264 OFFCURVE",
"368 264 CURVE SMOOTH"
);
}
);
width = 528;
},
{
layerId = "0E844BAD-773F-41FF-B6D6-C35F1E5E991C";
name = Bold;
paths = (
{
closed = 1;
nodes = (
"377 372 OFFCURVE",
"352 353 OFFCURVE",
"333 327 CURVE SMOOTH",
"305 289 OFFCURVE",
"291 238 OFFCURVE",
"291 197 CURVE SMOOTH",
"291 162 OFFCURVE",
"301 130 OFFCURVE",
"322 111 CURVE SMOOTH",
"342 93 OFFCURVE",
"371 84 OFFCURVE",
"405 84 CURVE SMOOTH",
"433 84 OFFCURVE",
"454 90 OFFCURVE",
"469 95 CURVE",
"473 66 LINE",
"464 40 OFFCURVE",
"449 -1 OFFCURVE",
"381 -29 CURVE SMOOTH",
"357 -39 OFFCURVE",
"324 -48 OFFCURVE",
"287 -48 CURVE SMOOTH",
"233 -48 OFFCURVE",
"187 -29 OFFCURVE",
"160 3 CURVE SMOOTH",
"111 61 OFFCURVE",
"142 138 OFFCURVE",
"142 138 CURVE",
"99 153 LINE",
"99 153 OFFCURVE",
"68 97 OFFCURVE",
"62 16 CURVE SMOOTH",
"59 -20 OFFCURVE",
"62 -52 OFFCURVE",
"75 -83 CURVE SMOOTH",
"89 -117 OFFCURVE",
"114 -148 OFFCURVE",
"155 -170 CURVE SMOOTH",
"194 -191 OFFCURVE",
"241 -200 OFFCURVE",
"286 -200 CURVE SMOOTH",
"325 -200 OFFCURVE",
"359 -193 OFFCURVE",
"386 -183 CURVE SMOOTH",
"426 -168 OFFCURVE",
"460 -142 OFFCURVE",
"486 -108 CURVE SMOOTH",
"505 -83 OFFCURVE",
"519 -56 OFFCURVE",
"530 -22 CURVE SMOOTH",
"542 15 OFFCURVE",
"549 58 OFFCURVE",
"549 98 CURVE SMOOTH",
"549 144 OFFCURVE",
"540 209 OFFCURVE",
"516 269 CURVE SMOOTH",
"502 304 OFFCURVE",
"487 329 OFFCURVE",
"467 347 CURVE SMOOTH",
"449 364 OFFCURVE",
"429 372 OFFCURVE",
"409 372 CURVE SMOOTH"
);
},
{
closed = 1;
nodes = (
"433 264 OFFCURVE",
"442 217 OFFCURVE",
"444 211 CURVE",
"434 203 OFFCURVE",
"423 199 OFFCURVE",
"402 199 CURVE SMOOTH",
"362 199 OFFCURVE",
"358 214 OFFCURVE",
"358 226 CURVE SMOOTH",
"358 251 OFFCURVE",
"376 264 OFFCURVE",
"396 264 CURVE SMOOTH"
);
}
);
width = 589;
}
);
unicode = 066F;
},
{
glyphname = "dotlessqaf-ar.fina";
lastChange = "2015-10-09 20:58:36 +0000";
layers = (
{
layerId = "51F41761-070F-43EA-B302-C90910850260";
name = Regular;
paths = (
{
closed = 1;
nodes = (
"380 271 OFFCURVE",
"350 264 OFFCURVE",
"326 219 CURVE SMOOTH",
"310 189 OFFCURVE",
"300 149 OFFCURVE",
"300 112 CURVE SMOOTH",
"300 69 OFFCURVE",
"313 40 OFFCURVE",
"333 22 CURVE SMOOTH",
"349 8 OFFCURVE",
"370 0 OFFCURVE",
"413 0 CURVE SMOOTH",
"454 0 LINE",
"454 0 OFFCURVE",
"459 -70 OFFCURVE",
"409 -122 CURVE SMOOTH",
"376 -156 OFFCURVE",
"331 -172 OFFCURVE",
"265 -172 CURVE SMOOTH",
"194 -172 OFFCURVE",
"140 -154 OFFCURVE",
"111 -115 CURVE SMOOTH",
"86 -82 OFFCURVE",
"88 -43 OFFCURVE",
"99 15 CURVE",
"80 22 LINE",
"64 -19 OFFCURVE",
"54 -55 OFFCURVE",
"51 -89 CURVE SMOOTH",
"49 -116 OFFCURVE",
"50 -145 OFFCURVE",
"63 -177 CURVE SMOOTH",
"78 -214 OFFCURVE",
"104 -239 OFFCURVE",
"135 -256 CURVE SMOOTH",
"168 -274 OFFCURVE",
"210 -285 OFFCURVE",
"257 -285 CURVE SMOOTH",
"298 -285 OFFCURVE",
"335 -277 OFFCURVE",
"367 -261 CURVE SMOOTH",
"395 -247 OFFCURVE",
"420 -226 OFFCURVE",
"439 -201 CURVE SMOOTH",
"501 -119 OFFCURVE",
"499 0 OFFCURVE",
"499 0 CURVE",
"592 0 LINE",
"592 98 LINE",
"499 98 LINE SMOOTH",
"499 98 OFFCURVE",
"496 174 OFFCURVE",
"467 225 CURVE SMOOTH",
"447 260 OFFCURVE",
"422 271 OFFCURVE",
"399 271 CURVE SMOOTH"
);
},
{
closed = 1;
nodes = (
"441 204 OFFCURVE",
"446 98 OFFCURVE",
"446 98 CURVE SMOOTH",
"393 98 LINE SMOOTH",
"370 98 OFFCURVE",
"334 105 OFFCURVE",
"334 148 CURVE SMOOTH",
"334 185 OFFCURVE",
"362 204 OFFCURVE",
"385 204 CURVE SMOOTH"
);
}
);
width = 572;
},
{
layerId = "0E844BAD-773F-41FF-B6D6-C35F1E5E991C";
name = Bold;
paths = (
{
closed = 1;
nodes = (
"394 314 OFFCURVE",
"362 294 OFFCURVE",
"338 249 CURVE SMOOTH",
"322 219 OFFCURVE",
"310 178 OFFCURVE",
"310 136 CURVE SMOOTH",
"310 93 OFFCURVE",
"322 50 OFFCURVE",
"348 27 CURVE SMOOTH",
"360 16 OFFCURVE",
"386 0 OFFCURVE",
"440 0 CURVE SMOOTH",
"473 0 LINE",
"471 -35 OFFCURVE",
"456 -65 OFFCURVE",
"432 -87 CURVE SMOOTH",
"401 -116 OFFCURVE",
"355 -130 OFFCURVE",
"294 -130 CURVE SMOOTH",
"226 -130 OFFCURVE",
"183 -113 OFFCURVE",
"158 -82 CURVE SMOOTH",
"114 -27 OFFCURVE",
"142 55 OFFCURVE",
"142 55 CURVE",
"99 70 LINE",
"99 70 OFFCURVE",
"67 3 OFFCURVE",
"61 -67 CURVE SMOOTH",
"58 -104 OFFCURVE",
"62 -137 OFFCURVE",
"74 -166 CURVE SMOOTH",
"90 -204 OFFCURVE",
"117 -234 OFFCURVE",
"154 -254 CURVE SMOOTH",
"191 -274 OFFCURVE",
"238 -284 OFFCURVE",
"289 -284 CURVE SMOOTH",
"334 -284 OFFCURVE",
"371 -276 OFFCURVE",
"405 -260 CURVE SMOOTH",
"436 -245 OFFCURVE",
"462 -224 OFFCURVE",
"485 -194 CURVE SMOOTH",
"525 -142 OFFCURVE",
"545 -74 OFFCURVE",
"547 0 CURVE",
"643 0 LINE",
"643 139 LINE",
"544 139 LINE",
"538 188 OFFCURVE",
"526 229 OFFCURVE",
"512 255 CURVE SMOOTH",
"504 270 OFFCURVE",
"477 314 OFFCURVE",
"427 314 CURVE SMOOTH"
);
},
{
closed = 1;
nodes = (
"445 204 OFFCURVE",
"457 165 OFFCURVE",
"463 139 CURVE",
"423 139 LINE SMOOTH",
"381 139 OFFCURVE",
"375 151 OFFCURVE",
"375 166 CURVE SMOOTH",
"375 193 OFFCURVE",
"395 204 OFFCURVE",
"412 204 CURVE SMOOTH"
);
}
);
width = 623;
}
);
},
{
glyphname = "kaf-ar";
lastChange = "2015-10-15 01:59:41 +0000";
layers = (
{
layerId = "51F41761-070F-43EA-B302-C90910850260";
name = Regular;
paths = (
{
closed = 1;
nodes = (
"651 512 OFFCURVE",
"631 537 OFFCURVE",
"619 566 CURVE",
"561 490 LINE",
"577 450 OFFCURVE",
"596 369 OFFCURVE",
"606 320 CURVE SMOOTH",
"616 271 OFFCURVE",
"626 206 OFFCURVE",
"632 152 CURVE",
"603 111 OFFCURVE",
"596 102 OFFCURVE",
"534 97 CURVE SMOOTH",
"494 94 OFFCURVE",
"432 92 OFFCURVE",
"382 92 CURVE SMOOTH",
"320 92 OFFCURVE",
"256 95 OFFCURVE",
"209 102 CURVE SMOOTH",
"155 110 OFFCURVE",
"116 123 OFFCURVE",
"93 159 CURVE SMOOTH",
"84 173 OFFCURVE",
"76 194 OFFCURVE",
"72 219 CURVE",
"53 226 LINE",
"48 183 OFFCURVE",
"49 145 OFFCURVE",
"57 115 CURVE SMOOTH",
"64 90 OFFCURVE",
"75 69 OFFCURVE",
"99 49 CURVE SMOOTH",
"123 29 OFFCURVE",
"162 9 OFFCURVE",
"211 2 CURVE SMOOTH",
"248 -3 OFFCURVE",
"310 -6 OFFCURVE",
"391 -6 CURVE SMOOTH",
"485 -6 OFFCURVE",
"548 -2 OFFCURVE",
"577 4 CURVE SMOOTH",
"604 10 OFFCURVE",
"631 25 OFFCURVE",
"651 54 CURVE SMOOTH",
"669 80 OFFCURVE",
"679 115 OFFCURVE",
"682 157 CURVE",
"680 205 OFFCURVE",
"679 213 OFFCURVE",
"663 322 CURVE SMOOTH",
"656 369 OFFCURVE",
"655 381 OFFCURVE",
"653 397 CURVE",
"650 439 OFFCURVE",
"656 461 OFFCURVE",
"679 481 CURVE"
);
}
);
width = 712;
},
{
layerId = "0E844BAD-773F-41FF-B6D6-C35F1E5E991C";
name = Bold;
paths = (
{
closed = 1;
nodes = (
"702 519 OFFCURVE",
"672 564 OFFCURVE",
"651 612 CURVE",
"576 497 LINE",
"588 456 OFFCURVE",
"597 431 OFFCURVE",
"613 367 CURVE SMOOTH",
"625 319 OFFCURVE",
"638 262 OFFCURVE",
"648 176 CURVE",
"639 162 OFFCURVE",
"618 139 OFFCURVE",
"580 135 CURVE",
"562 134 OFFCURVE",
"542 133 OFFCURVE",
"471 133 CURVE SMOOTH",
"400 133 OFFCURVE",
"301 134 OFFCURVE",
"244 141 CURVE SMOOTH",
"212 145 OFFCURVE",
"169 154 OFFCURVE",
"141 183 CURVE SMOOTH",
"126 199 OFFCURVE",
"113 223 OFFCURVE",
"111 258 CURVE",
"66 269 LINE",
"56 198 OFFCURVE",
"58 144 OFFCURVE",
"79 100 CURVE SMOOTH",
"93 70 OFFCURVE",
"118 44 OFFCURVE",
"148 28 CURVE SMOOTH",
"173 15 OFFCURVE",
"203 5 OFFCURVE",
"241 -1 CURVE SMOOTH",
"281 -7 OFFCURVE",
"339 -9 OFFCURVE",
"381 -9 CURVE SMOOTH",
"411 -9 OFFCURVE",
"517 -8 OFFCURVE",
"566 -7 CURVE SMOOTH",
"605 -6 OFFCURVE",
"651 3 OFFCURVE",
"687 46 CURVE SMOOTH",
"713 77 OFFCURVE",
"730 122 OFFCURVE",
"730 178 CURVE SMOOTH",
"730 205 OFFCURVE",
"726 229 OFFCURVE",
"712 328 CURVE SMOOTH",
"708 353 OFFCURVE",
"705 377 OFFCURVE",
"701 402 CURVE",
"698 445 OFFCURVE",
"703 456 OFFCURVE",
"738 483 CURVE"
);
}
);
width = 778;
}
);
unicode = 0643;
},
{
glyphname = "kaf-ar.fina";
lastChange = "2015-10-15 02:00:03 +0000";
layers = (
{
layerId = "51F41761-070F-43EA-B302-C90910850260";
name = Regular;
paths = (
{
closed = 1;
nodes = (
"763 98 LINE SMOOTH",
"736 98 OFFCURVE",
"715 107 OFFCURVE",
"700 125 CURVE",
"689 139 OFFCURVE",
"683 162 OFFCURVE",
"681 178 CURVE SMOOTH",
"663 325 OFFCURVE",
"653 430 OFFCURVE",
"640 568 CURVE",
"617 547 OFFCURVE",
"600 529 OFFCURVE",
"579 497 CURVE",
"603 360 OFFCURVE",
"613 272 OFFCURVE",
"624 188 CURVE",
"625 176 LINE SMOOTH",
"627 157 OFFCURVE",
"622 138 OFFCURVE",
"608 122 CURVE SMOOTH",
"594 106 OFFCURVE",
"572 95 OFFCURVE",
"544 95 CURVE SMOOTH",
"388 93 LINE SMOOTH",
"322 92 OFFCURVE",
"255 94 OFFCURVE",
"210 101 CURVE SMOOTH",
"155 109 OFFCURVE",
"114 128 OFFCURVE",
"94 159 CURVE SMOOTH",
"85 173 OFFCURVE",
"77 194 OFFCURVE",
"73 219 CURVE",
"54 226 LINE",
"49 183 OFFCURVE",
"50 145 OFFCURVE",
"58 115 CURVE SMOOTH",
"64 92 OFFCURVE",
"76 69 OFFCURVE",
"100 49 CURVE SMOOTH",
"119 33 OFFCURVE",
"154 12 OFFCURVE",
"212 2 CURVE SMOOTH",
"247 -4 OFFCURVE",
"286 -6 OFFCURVE",
"339 -6 CURVE SMOOTH",
"376 -6 OFFCURVE",
"515 -5 OFFCURVE",
"567 -4 CURVE",
"629 -2 OFFCURVE",
"670 26 OFFCURVE",
"673 82 CURVE",
"684 26 OFFCURVE",
"719 0 OFFCURVE",
"776 0 CURVE SMOOTH",
"814 0 LINE",
"814 98 LINE"
);
}
);
width = 794;
},
{
layerId = "0E844BAD-773F-41FF-B6D6-C35F1E5E991C";
name = Bold;
paths = (
{
closed = 1;
nodes = (
"788 139 LINE SMOOTH",
"767 139 OFFCURVE",
"752 145 OFFCURVE",
"742 158 CURVE SMOOTH",
"732 171 OFFCURVE",
"729 184 OFFCURVE",
"727 200 CURVE SMOOTH",
"714 305 OFFCURVE",
"692 553 OFFCURVE",
"687 608 CURVE",
"640 560 OFFCURVE",
"614 534 OFFCURVE",
"589 496 CURVE",
"608 389 OFFCURVE",
"627 303 OFFCURVE",
"635 210 CURVE SMOOTH",
"636 198 LINE",
"638 184 OFFCURVE",
"634 172 OFFCURVE",
"624 160 CURVE SMOOTH",
"617 152 OFFCURVE",
"604 138 OFFCURVE",
"582 136 CURVE",
"420 134 LINE SMOOTH",
"313 133 OFFCURVE",
"260 137 OFFCURVE",
"245 139 CURVE SMOOTH",
"215 143 OFFCURVE",
"167 158 OFFCURVE",
"141 185 CURVE SMOOTH",
"128 199 OFFCURVE",
"114 221 OFFCURVE",
"112 258 CURVE",
"67 269 LINE",
"57 198 OFFCURVE",
"56 149 OFFCURVE",
"77 105 CURVE SMOOTH",
"89 80 OFFCURVE",
"109 56 OFFCURVE",
"132 39 CURVE SMOOTH",
"158 20 OFFCURVE",
"197 3 OFFCURVE",
"241 -4 CURVE SMOOTH",
"278 -10 OFFCURVE",
"341 -10 OFFCURVE",
"421 -9 CURVE SMOOTH",
"472 -8 OFFCURVE",
"436 -9 OFFCURVE",
"575 -7 CURVE SMOOTH",
"681 -6 OFFCURVE",
"691 32 OFFCURVE",
"705 53 CURVE",
"723 23 OFFCURVE",
"762 0 OFFCURVE",
"808 0 CURVE SMOOTH",
"864 0 LINE",
"864 139 LINE"
);
}
);
width = 834;
}
);
unicode = FEDA;
},
{
glyphname = "kaf-ar.medi";
lastChange = "2015-10-14 19:49:53 +0000";
layers = (
{
layerId = "51F41761-070F-43EA-B302-C90910850260";
name = Regular;
paths = (
{
closed = 1;
nodes = (
"267 511 OFFCURVE",
"272 538 OFFCURVE",
"276 568 CURVE",
"201 533 OFFCURVE",
"79 472 OFFCURVE",
"4 410 CURVE",
"0 393 OFFCURVE",
"-4 370 OFFCURVE",
"-7 341 CURVE",
"21 315 OFFCURVE",
"49 283 OFFCURVE",
"73 252 CURVE SMOOTH",
"90 231 OFFCURVE",
"125 179 OFFCURVE",
"151 140 CURVE",
"151 140 OFFCURVE",
"130 98 OFFCURVE",
"75 98 CURVE SMOOTH",
"-21 98 LINE SMOOTH",
"-48 98 OFFCURVE",
"-70 76 OFFCURVE",
"-70 49 CURVE SMOOTH",
"-70 21 OFFCURVE",
"-49 0 OFFCURVE",
"-21 0 CURVE SMOOTH",
"83 0 LINE SMOOTH",
"147 0 OFFCURVE",
"179 38 OFFCURVE",
"188 113 CURVE",
"217 37 OFFCURVE",
"257 0 OFFCURVE",
"336 0 CURVE SMOOTH",
"371 0 LINE",
"371 98 LINE",
"335 98 LINE SMOOTH",
"271 98 OFFCURVE",
"238 140 OFFCURVE",
"214 176 CURVE",
"191 208 OFFCURVE",
"157 252 OFFCURVE",
"125 286 CURVE SMOOTH",
"107 306 OFFCURVE",
"68 346 OFFCURVE",
"44 370 CURVE",
"120 413 OFFCURVE",
"211 461 OFFCURVE",
"259 480 CURVE"
);
}
);
width = 351;
},
{
layerId = "0E844BAD-773F-41FF-B6D6-C35F1E5E991C";
name = Bold;
paths = (
{
closed = 1;
nodes = (
"289 518 OFFCURVE",
"296 558 OFFCURVE",
"301 608 CURVE",
"181 551 OFFCURVE",
"53 484 OFFCURVE",
"-14 427 CURVE",
"-21 395 OFFCURVE",
"-24 372 OFFCURVE",
"-27 338 CURVE",
"-4 314 OFFCURVE",
"35 272 OFFCURVE",
"54 250 CURVE SMOOTH",
"82 219 OFFCURVE",
"108 195 OFFCURVE",
"128 162 CURVE",
"121 153 OFFCURVE",
"104 139 OFFCURVE",
"76 139 CURVE SMOOTH",
"-20 139 LINE SMOOTH",
"-59 139 OFFCURVE",
"-90 108 OFFCURVE",
"-90 69 CURVE SMOOTH",
"-90 30 OFFCURVE",
"-59 0 OFFCURVE",
"-20 0 CURVE SMOOTH",
"84 0 LINE SMOOTH",
"162 0 OFFCURVE",
"192 67 OFFCURVE",
"195 75 CURVE",
"200 67 OFFCURVE",
"243 0 OFFCURVE",
"337 0 CURVE SMOOTH",
"392 0 LINE",
"392 139 LINE",
"336 139 LINE SMOOTH",
"282 139 OFFCURVE",
"259 169 OFFCURVE",
"231 201 CURVE SMOOTH",
"217 217 OFFCURVE",
"185 254 OFFCURVE",
"151 293 CURVE SMOOTH",
"126 321 OFFCURVE",
"100 349 OFFCURVE",
"78 372 CURVE",
"135 407 OFFCURVE",
"206 442 OFFCURVE",
"277 470 CURVE"
);
}
);
width = 362;
}
);
unicode = FEDC;
},
{
glyphname = "kaf-ar.init";
lastChange = "2015-10-14 19:50:02 +0000";
layers = (
{
layerId = "51F41761-070F-43EA-B302-C90910850260";
name = Regular;
paths = (
{
closed = 1;
nodes = (
"255 510 OFFCURVE",
"260 537 OFFCURVE",
"264 568 CURVE",
"190 533 OFFCURVE",
"67 472 OFFCURVE",
"-8 410 CURVE",
"-15 383 OFFCURVE",
"-20 363 OFFCURVE",
"-24 327 CURVE",
"3 297 LINE",
"12 315 LINE",
"69 269 OFFCURVE",
"149 187 OFFCURVE",
"149 139 CURVE",
"141 121 OFFCURVE",
"109 98 OFFCURVE",
"73 98 CURVE SMOOTH",
"-21 98 LINE SMOOTH",
"-48 98 OFFCURVE",
"-70 76 OFFCURVE",
"-70 49 CURVE SMOOTH",
"-70 21 OFFCURVE",
"-48 0 OFFCURVE",
"-21 0 CURVE SMOOTH",
"71 0 LINE SMOOTH",
"149 0 OFFCURVE",
"195 46 OFFCURVE",
"195 128 CURVE SMOOTH",
"195 192 OFFCURVE",
"167 254 OFFCURVE",
"134 297 CURVE SMOOTH",
"113 324 OFFCURVE",
"81 353 OFFCURVE",
"45 378 CURVE",
"122 421 OFFCURVE",
"198 457 OFFCURVE",
"247 480 CURVE"
);
}
);
width = 234;
},
{
layerId = "0E844BAD-773F-41FF-B6D6-C35F1E5E991C";
name = Bold;
paths = (
{
closed = 1;
nodes = (
"278 521 OFFCURVE",
"283 558 OFFCURVE",
"289 608 CURVE",
"170 553 OFFCURVE",
"49 486 OFFCURVE",
"-26 427 CURVE",
"-34 394 OFFCURVE",
"-39 371 OFFCURVE",
"-44 326 CURVE",
"9 266 LINE",
"20 290 LINE",
"68 254 OFFCURVE",
"129 190 OFFCURVE",
"129 166 CURVE",
"123 158 OFFCURVE",
"105 139 OFFCURVE",
"74 139 CURVE SMOOTH",
"-20 139 LINE SMOOTH",
"-59 139 OFFCURVE",
"-90 108 OFFCURVE",
"-90 69 CURVE SMOOTH",
"-90 30 OFFCURVE",
"-58 0 OFFCURVE",
"-20 0 CURVE SMOOTH",
"66 0 LINE SMOOTH",
"155 0 OFFCURVE",
"210 54 OFFCURVE",
"210 149 CURVE SMOOTH",
"210 194 OFFCURVE",
"198 231 OFFCURVE",
"176 273 CURVE SMOOTH",
"155 312 OFFCURVE",
"123 349 OFFCURVE",
"82 382 CURVE",
"133 411 OFFCURVE",
"204 445 OFFCURVE",
"265 470 CURVE"
);
}
);
width = 259;
}
);
unicode = FEDB;
},
{
glyphname = "keheh-ar";
lastChange = "2015-10-14 20:48:46 +0000";
layers = (
{
layerId = "51F41761-070F-43EA-B302-C90910850260";
name = Regular;
paths = (
{
closed = 1;
nodes = (
"48 182 OFFCURVE",
"49 145 OFFCURVE",
"57 114 CURVE SMOOTH",
"74 53 OFFCURVE",
"122 16 OFFCURVE",
"212 1 CURVE SMOOTH",
"248 -5 OFFCURVE",
"279 -6 OFFCURVE",
"377 -6 CURVE",
"431 -5 OFFCURVE",
"486 -6 OFFCURVE",
"540 -2 CURVE SMOOTH",
"618 4 OFFCURVE",
"664 46 OFFCURVE",
"664 128 CURVE SMOOTH",
"664 192 OFFCURVE",
"636 254 OFFCURVE",
"603 297 CURVE SMOOTH",
"582 324 OFFCURVE",
"550 353 OFFCURVE",
"514 378 CURVE",
"591 421 OFFCURVE",
"667 457 OFFCURVE",
"716 480 CURVE",
"724 510 OFFCURVE",
"729 537 OFFCURVE",
"733 568 CURVE",
"659 533 OFFCURVE",
"536 472 OFFCURVE",
"461 410 CURVE",
"454 383 OFFCURVE",
"449 363 OFFCURVE",
"445 327 CURVE",
"472 297 LINE",
"481 315 LINE",
"538 269 OFFCURVE",
"618 187 OFFCURVE",
"618 139 CURVE",
"610 121 OFFCURVE",
"578 95 OFFCURVE",
"542 95 CURVE",
"490 91 OFFCURVE",
"439 93 OFFCURVE",
"387 92 CURVE",
"318 92 OFFCURVE",
"258 95 OFFCURVE",
"209 102 CURVE SMOOTH",
"149 111 OFFCURVE",
"113 127 OFFCURVE",
"93 158 CURVE SMOOTH",
"83 174 OFFCURVE",
"76 194 OFFCURVE",
"72 218 CURVE",
"53 225 LINE"
);
}
);
width = 763;
},
{
layerId = "0E844BAD-773F-41FF-B6D6-C35F1E5E991C";
name = Bold;
paths = (
{
closed = 1;
nodes = (
"56 198 OFFCURVE",
"58 144 OFFCURVE",
"79 100 CURVE SMOOTH",
"104 47 OFFCURVE",
"155 13 OFFCURVE",
"240 -1 CURVE SMOOTH",
"277 -7 OFFCURVE",
"334 -9 OFFCURVE",
"420 -9 CURVE",
"469 -8 OFFCURVE",
"514 -10 OFFCURVE",
"566 -7 CURVE",
"655 -7 OFFCURVE",
"710 54 OFFCURVE",
"710 149 CURVE SMOOTH",
"710 194 OFFCURVE",
"698 231 OFFCURVE",
"676 273 CURVE SMOOTH",
"655 312 OFFCURVE",
"623 349 OFFCURVE",
"582 382 CURVE",
"633 411 OFFCURVE",
"704 445 OFFCURVE",
"765 470 CURVE",
"778 521 OFFCURVE",
"783 558 OFFCURVE",
"789 608 CURVE",
"670 553 OFFCURVE",
"549 486 OFFCURVE",
"474 427 CURVE",
"466 394 OFFCURVE",
"461 371 OFFCURVE",
"456 326 CURVE",
"509 266 LINE",
"520 290 LINE",
"568 254 OFFCURVE",
"629 190 OFFCURVE",
"629 166 CURVE",
"623 158 OFFCURVE",
"605 136 OFFCURVE",
"574 136 CURVE",
"519 133 OFFCURVE",
"471 135 OFFCURVE",
"419 134 CURVE",
"393 134 OFFCURVE",
"291 134 OFFCURVE",
"244 140 CURVE SMOOTH",
"214 144 OFFCURVE",
"167 156 OFFCURVE",
"141 183 CURVE SMOOTH",
"126 199 OFFCURVE",
"113 223 OFFCURVE",
"111 258 CURVE",
"66 269 LINE"
);
}
);
width = 759;
}
);
unicode = 06A9;
},
{
glyphname = "keheh-ar.fina";
lastChange = "2015-10-14 20:49:45 +0000";
layers = (
{
layerId = "51F41761-070F-43EA-B302-C90910850260";
name = Regular;
paths = (
{
closed = 1;
nodes = (
"724 508 OFFCURVE",
"730 535 OFFCURVE",
"733 565 CURVE",
"659 530 OFFCURVE",
"537 469 OFFCURVE",
"461 407 CURVE",
"460 401 OFFCURVE",
"449 364 OFFCURVE",
"446 324 CURVE",
"474 293 LINE",
"481 308 LINE",
"499 288 OFFCURVE",
"517 267 OFFCURVE",
"533 247 CURVE SMOOTH",
"576 192 OFFCURVE",
"608 142 OFFCURVE",
"608 142 CURVE SMOOTH",
"608 142 OFFCURVE",
"587 97 OFFCURVE",
"533 94 CURVE SMOOTH",
"477 91 OFFCURVE",
"436 93 OFFCURVE",
"387 93 CURVE SMOOTH",
"318 93 OFFCURVE",
"258 94 OFFCURVE",
"209 101 CURVE SMOOTH",
"154 109 OFFCURVE",
"113 128 OFFCURVE",
"93 159 CURVE SMOOTH",
"83 175 OFFCURVE",
"76 195 OFFCURVE",
"72 219 CURVE",
"53 226 LINE",
"48 183 OFFCURVE",
"49 146 OFFCURVE",
"57 115 CURVE SMOOTH",
"74 54 OFFCURVE",
"122 18 OFFCURVE",
"212 3 CURVE SMOOTH",
"248 -3 OFFCURVE",
"279 -7 OFFCURVE",
"377 -6 CURVE SMOOTH",
"432 -5 OFFCURVE",
"482 -8 OFFCURVE",
"541 -4 CURVE SMOOTH",
"606 0 OFFCURVE",
"649 35 OFFCURVE",
"646 108 CURVE",
"672 30 OFFCURVE",
"714 1 OFFCURVE",
"794 1 CURVE SMOOTH",
"828 1 LINE",
"828 99 LINE",
"793 99 LINE SMOOTH",
"729 99 OFFCURVE",
"696 141 OFFCURVE",
"671 177 CURVE SMOOTH",
"649 209 OFFCURVE",
"615 248 OFFCURVE",
"584 282 CURVE SMOOTH",
"541 329 OFFCURVE",
"502 367 OFFCURVE",
"502 367 CURVE SMOOTH",
"583 413 OFFCURVE",
"666 457 OFFCURVE",
"717 477 CURVE"
);
}
);
width = 808;
},
{
layerId = "0E844BAD-773F-41FF-B6D6-C35F1E5E991C";
name = Bold;
paths = (
{
closed = 1;
nodes = (
"779 517 OFFCURVE",
"786 563 OFFCURVE",
"791 609 CURVE",
"657 546 OFFCURVE",
"539 482 OFFCURVE",
"476 428 CURVE",
"468 397 OFFCURVE",
"461 362 OFFCURVE",
"457 326 CURVE",
"510 266 LINE",
"518 280 LINE",
"526 270 OFFCURVE",
"537 258 OFFCURVE",
"545 248 CURVE",
"571 218 OFFCURVE",
"597 194 OFFCURVE",
"617 162 CURVE",
"610 153 OFFCURVE",
"594 138 OFFCURVE",
"566 136 CURVE SMOOTH",
"518 133 OFFCURVE",
"473 134 OFFCURVE",
"419 134 CURVE SMOOTH",
"393 134 OFFCURVE",
"291 133 OFFCURVE",
"244 139 CURVE SMOOTH",
"214 143 OFFCURVE",
"166 158 OFFCURVE",
"140 185 CURVE SMOOTH",
"125 201 OFFCURVE",
"113 223 OFFCURVE",
"111 258 CURVE",
"66 269 LINE",
"56 198 OFFCURVE",
"55 149 OFFCURVE",
"76 105 CURVE SMOOTH",
"101 52 OFFCURVE",
"155 10 OFFCURVE",
"240 -4 CURVE SMOOTH",
"277 -10 OFFCURVE",
"334 -10 OFFCURVE",
"420 -9 CURVE SMOOTH",
"471 -8 OFFCURVE",
"518 -9 OFFCURVE",
"574 -7 CURVE SMOOTH",
"657 -4 OFFCURVE",
"681 67 OFFCURVE",
"684 75 CURVE",
"690 67 OFFCURVE",
"732 0 OFFCURVE",
"827 0 CURVE SMOOTH",
"882 0 LINE",
"882 139 LINE",
"826 139 LINE SMOOTH",
"777 139 OFFCURVE",
"751 166 OFFCURVE",
"722 197 CURVE SMOOTH",
"702 219 OFFCURVE",
"672 259 OFFCURVE",
"641 293 CURVE SMOOTH",
"616 320 OFFCURVE",
"590 348 OFFCURVE",
"568 372 CURVE",
"637 414 OFFCURVE",
"686 438 OFFCURVE",
"767 471 CURVE"
);
}
);
width = 852;
}
);
unicode = FB8F;
},
{
glyphname = "gaf-ar";
lastChange = "2015-10-14 19:48:57 +0000";
layers = (
{
components = (
{
name = "keheh-ar";
}
);
layerId = "51F41761-070F-43EA-B302-C90910850260";
name = Regular;
paths = (
{
closed = 1;
nodes = (
"541 505 OFFCURVE",
"602 538 OFFCURVE",
"683 575 CURVE",
"690 608 LINE",
"649 588 OFFCURVE",
"556 544 OFFCURVE",
"488 499 CURVE",
"482 464 LINE"
);
}
);
width = 763;
},
{
components = (
{
name = "keheh-ar";
}
);
layerId = "0E844BAD-773F-41FF-B6D6-C35F1E5E991C";
name = Bold;
paths = (
{
closed = 1;
nodes = (
"572 535 OFFCURVE",
"648 578 OFFCURVE",
"737 619 CURVE",
"751 683 LINE",
"670 647 OFFCURVE",
"571 593 OFFCURVE",
"501 549 CURVE",
"489 477 LINE"
);
}
);
width = 759;
}
);
unicode = 06AF;
},
{
glyphname = "gaf-ar.fina";
lastChange = "2015-10-14 19:49:11 +0000";
layers = (
{
components = (
{
name = "keheh-ar.fina";
}
);
layerId = "51F41761-070F-43EA-B302-C90910850260";
name = Regular;
paths = (
{
closed = 1;
nodes = (
"544 507 OFFCURVE",
"604 540 OFFCURVE",
"686 577 CURVE",
"693 610 LINE",
"651 590 OFFCURVE",
"558 546 OFFCURVE",
"490 501 CURVE",
"484 466 LINE"
);
}
);
width = 808;
},
{
components = (
{
name = "keheh-ar.fina";
}
);
layerId = "0E844BAD-773F-41FF-B6D6-C35F1E5E991C";
name = Bold;
paths = (
{
closed = 1;
nodes = (
"583 543 OFFCURVE",
"642 578 OFFCURVE",
"740 623 CURVE",
"753 687 LINE",
"666 648 OFFCURVE",
"581 602 OFFCURVE",
"503 553 CURVE",
"491 481 LINE"
);
}
);
width = 852;
}
);
unicode = FB93;
},
{
glyphname = "gaf-ar.medi";
lastChange = "2015-10-14 19:49:31 +0000";
layers = (
{
components = (
{
name = "kaf-ar.medi";
}
);
layerId = "51F41761-070F-43EA-B302-C90910850260";
name = Regular;
paths = (
{
closed = 1;
nodes = (
"86 510 OFFCURVE",
"146 543 OFFCURVE",
"228 580 CURVE",
"235 613 LINE",
"193 593 OFFCURVE",
"101 549 OFFCURVE",
"33 504 CURVE",
"26 469 LINE"
);
}
);
width = 351;
},
{
components = (
{
name = "kaf-ar.medi";
}
);
layerId = "0E844BAD-773F-41FF-B6D6-C35F1E5E991C";
name = Bold;
paths = (
{
closed = 1;
nodes = (
"92 541 OFFCURVE",
"153 577 OFFCURVE",
"250 622 CURVE",
"263 686 LINE",
"167 642 OFFCURVE",
"99 606 OFFCURVE",
"14 552 CURVE",
"2 480 LINE"
);
}
);
width = 362;
}
);
unicode = FB95;
},
{
glyphname = "gaf-ar.init";
lastChange = "2015-10-14 19:49:46 +0000";
layers = (
{
components = (
{
name = "kaf-ar.init";
}
);
layerId = "51F41761-070F-43EA-B302-C90910850260";
name = Regular;
paths = (
{
closed = 1;
nodes = (
"72 505 OFFCURVE",
"133 538 OFFCURVE",
"214 575 CURVE",
"221 608 LINE",
"180 588 OFFCURVE",
"87 544 OFFCURVE",
"19 499 CURVE",
"13 464 LINE"
);
}
);
width = 234;
},
{
components = (
{
name = "kaf-ar.init";
}
);
layerId = "0E844BAD-773F-41FF-B6D6-C35F1E5E991C";
name = Bold;
paths = (
{
closed = 1;
nodes = (
"72 535 OFFCURVE",
"148 578 OFFCURVE",
"237 619 CURVE",
"251 683 LINE",
"170 647 OFFCURVE",
"71 593 OFFCURVE",
"1 549 CURVE",
"-11 477 LINE"
);
}
);
width = 259;
}
);
unicode = FB94;
},
{
glyphname = "lam-ar";
lastChange = "2015-10-15 08:35:29 +0000";
layers = (
{
layerId = "51F41761-070F-43EA-B302-C90910850260";
name = Regular;
paths = (
{
closed = 1;
nodes = (
"437 514 OFFCURVE",
"417 548 OFFCURVE",
"407 566 CURVE",
"348 490 LINE",
"362 454 OFFCURVE",
"389 358 OFFCURVE",
"419 169 CURVE SMOOTH",
"430 99 OFFCURVE",
"435 49 OFFCURVE",
"435 25 CURVE SMOOTH",
"435 -9 OFFCURVE",
"425 -35 OFFCURVE",
"399 -54 CURVE SMOOTH",
"370 -75 OFFCURVE",
"324 -86 OFFCURVE",
"269 -86 CURVE SMOOTH",
"233 -86 OFFCURVE",
"202 -81 OFFCURVE",
"176 -73 CURVE SMOOTH",
"135 -60 OFFCURVE",
"115 -41 OFFCURVE",
"104 -19 CURVE SMOOTH",
"85 18 OFFCURVE",
"93 66 OFFCURVE",
"100 101 CURVE",
"81 107 LINE",
"66 71 OFFCURVE",
"54 32 OFFCURVE",
"51 -6 CURVE SMOOTH",
"49 -36 OFFCURVE",
"52 -65 OFFCURVE",
"64 -94 CURVE SMOOTH",
"77 -126 OFFCURVE",
"100 -153 OFFCURVE",
"136 -172 CURVE SMOOTH",
"171 -190 OFFCURVE",
"214 -199 OFFCURVE",
"265 -199 CURVE SMOOTH",
"335 -199 OFFCURVE",
"388 -179 OFFCURVE",
"424 -138 CURVE SMOOTH",
"446 -113 OFFCURVE",
"461 -81 OFFCURVE",
"470 -44 CURVE SMOOTH",
"479 -8 OFFCURVE",
"481 33 OFFCURVE",
"476 78 CURVE",
"459 265 OFFCURVE",
"448 346 OFFCURVE",
"443 401 CURVE SMOOTH",
"439 446 OFFCURVE",
"442 464 OFFCURVE",
"466 484 CURVE"
);
}
);
width = 509;
},
{
layerId = "0E844BAD-773F-41FF-B6D6-C35F1E5E991C";
name = Bold;
paths = (
{
closed = 1;
nodes = (
"490 601 OFFCURVE",
"468 639 OFFCURVE",
"439 698 CURVE",
"364 587 LINE",
"394 448 OFFCURVE",
"410 372 OFFCURVE",
"431 259 CURVE SMOOTH",
"444 188 OFFCURVE",
"452 141 OFFCURVE",
"452 117 CURVE SMOOTH",
"452 90 OFFCURVE",
"442 72 OFFCURVE",
"422 58 CURVE SMOOTH",
"395 39 OFFCURVE",
"351 27 OFFCURVE",
"302 27 CURVE SMOOTH",
"259 27 OFFCURVE",
"226 36 OFFCURVE",
"208 43 CURVE SMOOTH",
"182 53 OFFCURVE",
"166 66 OFFCURVE",
"157 76 CURVE SMOOTH",
"126 110 OFFCURVE",
"132 171 OFFCURVE",
"141 212 CURVE",
"98 228 LINE",
"72 159 OFFCURVE",
"62 125 OFFCURVE",
"60 90 CURVE SMOOTH",
"58 57 OFFCURVE",
"63 21 OFFCURVE",
"74 -7 CURVE SMOOTH",
"89 -45 OFFCURVE",
"118 -76 OFFCURVE",
"156 -96 CURVE SMOOTH",
"194 -116 OFFCURVE",
"240 -126 OFFCURVE",
"294 -126 CURVE SMOOTH",
"367 -126 OFFCURVE",
"429 -104 OFFCURVE",
"469 -58 CURVE SMOOTH",
"493 -30 OFFCURVE",
"510 6 OFFCURVE",
"519 49 CURVE SMOOTH",
"527 87 OFFCURVE",
"528 129 OFFCURVE",
"523 175 CURVE",
"517 246 OFFCURVE",
"508 346 OFFCURVE",
"489 494 CURVE",
"482 535 OFFCURVE",
"494 554 OFFCURVE",
"527 572 CURVE"
);
}
);
width = 567;
}
);
unicode = 0644;
},
{
glyphname = "lam-ar.fina";
lastChange = "2015-10-15 08:34:11 +0000";
layers = (
{
layerId = "51F41761-070F-43EA-B302-C90910850260";
name = Regular;
paths = (
{
closed = 1;
nodes = (
"540 98 LINE SMOOTH",
"532 98 OFFCURVE",
"504 101 OFFCURVE",
"487 116 CURVE SMOOTH",
"476 126 OFFCURVE",
"470 141 OFFCURVE",
"465 178 CURVE SMOOTH",
"455 253 OFFCURVE",
"423 567 OFFCURVE",
"423 567 CURVE",
"404 550 OFFCURVE",
"385 530 OFFCURVE",
"362 496 CURVE",
"368 454 OFFCURVE",
"422 54 OFFCURVE",
"431 -27 CURVE SMOOTH",
"436 -72 OFFCURVE",
"439 -113 OFFCURVE",
"396 -142 CURVE SMOOTH",
"371 -160 OFFCURVE",
"331 -170 OFFCURVE",
"268 -170 CURVE SMOOTH",
"236 -170 OFFCURVE",
"200 -164 OFFCURVE",
"175 -156 CURVE SMOOTH",
"131 -142 OFFCURVE",
"109 -118 OFFCURVE",
"99 -89 CURVE SMOOTH",
"87 -54 OFFCURVE",
"93 -14 OFFCURVE",
"99 17 CURVE",
"80 24 LINE",
"62 -21 OFFCURVE",
"54 -51 OFFCURVE",
"51 -89 CURVE SMOOTH",
"49 -117 OFFCURVE",
"49 -144 OFFCURVE",
"63 -177 CURVE SMOOTH",
"77 -210 OFFCURVE",
"101 -237 OFFCURVE",
"135 -255 CURVE SMOOTH",
"170 -274 OFFCURVE",
"216 -283 OFFCURVE",
"264 -283 CURVE SMOOTH",
"334 -283 OFFCURVE",
"388 -263 OFFCURVE",
"424 -222 CURVE SMOOTH",
"446 -199 OFFCURVE",
"462 -168 OFFCURVE",
"470 -131 CURVE SMOOTH",
"477 -100 OFFCURVE",
"480 -65 OFFCURVE",
"477 -18 CURVE SMOOTH",
"475 11 OFFCURVE",
"477 -12 OFFCURVE",
"473 42 CURVE",
"495 11 OFFCURVE",
"513 0 OFFCURVE",
"564 0 CURVE SMOOTH",
"598 0 LINE",
"598 98 LINE"
);
}
);
width = 578;
},
{
layerId = "0E844BAD-773F-41FF-B6D6-C35F1E5E991C";
name = Bold;
paths = (
{
closed = 1;
nodes = (
"570 139 LINE SMOOTH",
"552 139 OFFCURVE",
"536 143 OFFCURVE",
"524 158 CURVE SMOOTH",
"512 172 OFFCURVE",
"510 190 OFFCURVE",
"509 200 CURVE SMOOTH",
"504 250 OFFCURVE",
"504 243 OFFCURVE",
"468 626 CURVE",
"444 604 OFFCURVE",
"411 558 OFFCURVE",
"373 501 CURVE SMOOTH",
"373 501 OFFCURVE",
"446 -1 OFFCURVE",
"447 -10 CURVE SMOOTH",
"454 -58 OFFCURVE",
"451 -82 OFFCURVE",
"418 -103 CURVE SMOOTH",
"391 -120 OFFCURVE",
"351 -129 OFFCURVE",
"297 -129 CURVE SMOOTH",
"261 -129 OFFCURVE",
"237 -125 OFFCURVE",
"212 -116 CURVE SMOOTH",
"188 -108 OFFCURVE",
"170 -96 OFFCURVE",
"157 -80 CURVE SMOOTH",
"134 -51 OFFCURVE",
"127 -14 OFFCURVE",
"141 55 CURVE",
"98 70 LINE",
"77 18 OFFCURVE",
"63 -24 OFFCURVE",
"60 -67 CURVE SMOOTH",
"58 -96 OFFCURVE",
"59 -129 OFFCURVE",
"74 -165 CURVE SMOOTH",
"89 -201 OFFCURVE",
"113 -231 OFFCURVE",
"156 -253 CURVE SMOOTH",
"193 -273 OFFCURVE",
"240 -283 OFFCURVE",
"294 -283 CURVE SMOOTH",
"369 -283 OFFCURVE",
"428 -260 OFFCURVE",
"469 -216 CURVE SMOOTH",
"494 -188 OFFCURVE",
"512 -151 OFFCURVE",
"520 -116 CURVE SMOOTH",
"525 -94 OFFCURVE",
"529 -65 OFFCURVE",
"529 -40 CURVE SMOOTH",
"529 -28 OFFCURVE",
"528 -3 OFFCURVE",
"526 23 CURVE",
"541 8 OFFCURVE",
"569 0 OFFCURVE",
"594 0 CURVE SMOOTH",
"648 0 LINE",
"648 139 LINE"
);
}
);
width = 619;
}
);
unicode = FEDE;
},
{
glyphname = "lam-ar.medi";
lastChange = "2015-10-15 08:12:01 +0000";
layers = (
{
layerId = "51F41761-070F-43EA-B302-C90910850260";
name = Regular;
paths = (
{
closed = 1;
nodes = (
"243 98 LINE SMOOTH",
"216 98 OFFCURVE",
"195 107 OFFCURVE",
"180 125 CURVE SMOOTH",
"169 139 OFFCURVE",
"163 162 OFFCURVE",
"161 178 CURVE SMOOTH",
"143 325 OFFCURVE",
"133 430 OFFCURVE",
"120 568 CURVE",
"97 547 OFFCURVE",
"80 529 OFFCURVE",
"59 497 CURVE",
"78 386 OFFCURVE",
"89 309 OFFCURVE",
"98 239 CURVE",
"101 214 OFFCURVE",
"103 201 OFFCURVE",
"105 179 CURVE",
"107 160 OFFCURVE",
"102 141 OFFCURVE",
"88 125 CURVE SMOOTH",
"72 107 OFFCURVE",
"49 98 OFFCURVE",
"24 98 CURVE SMOOTH",
"-21 98 LINE SMOOTH",
"-48 98 OFFCURVE",
"-70 76 OFFCURVE",
"-70 49 CURVE SMOOTH",
"-70 21 OFFCURVE",
"-46 0 OFFCURVE",
"-21 0 CURVE SMOOTH",
"47 0 LINE SMOOTH",
"109 0 OFFCURVE",
"150 26 OFFCURVE",
"153 82 CURVE",
"164 26 OFFCURVE",
"199 0 OFFCURVE",
"256 0 CURVE SMOOTH",
"294 0 LINE",
"294 98 LINE"
);
}
);
width = 274;
},
{
layerId = "0E844BAD-773F-41FF-B6D6-C35F1E5E991C";
name = Bold;
paths = (
{
closed = 1;
nodes = (
"239 139 LINE SMOOTH",
"218 139 OFFCURVE",
"203 145 OFFCURVE",
"193 158 CURVE SMOOTH",
"183 171 OFFCURVE",
"180 184 OFFCURVE",
"178 200 CURVE SMOOTH",
"173 244 OFFCURVE",
"137 608 OFFCURVE",
"137 608 CURVE",
"98 566 OFFCURVE",
"73 531 OFFCURVE",
"41 479 CURVE SMOOTH",
"41 479 OFFCURVE",
"71 336 OFFCURVE",
"82 246 CURVE SMOOTH",
"83 238 OFFCURVE",
"86 220 OFFCURVE",
"87 193 CURVE SMOOTH",
"88 180 OFFCURVE",
"85 168 OFFCURVE",
"76 158 CURVE SMOOTH",
"65 146 OFFCURVE",
"47 139 OFFCURVE",
"26 139 CURVE SMOOTH",
"-20 139 LINE SMOOTH",
"-58 139 OFFCURVE",
"-90 107 OFFCURVE",
"-90 69 CURVE SMOOTH",
"-90 36 OFFCURVE",
"-64 0 OFFCURVE",
"-20 0 CURVE SMOOTH",
"52 0 LINE SMOOTH",
"125 0 OFFCURVE",
"153 48 OFFCURVE",
"156 53 CURVE",
"159 48 OFFCURVE",
"188 0 OFFCURVE",
"259 0 CURVE SMOOTH",
"315 0 LINE",
"315 139 LINE"
);
}
);
width = 285;
}
);
unicode = FEE0;
},
{
glyphname = "lam-ar.init";
lastChange = "2015-10-15 08:07:14 +0000";
layers = (
{
layerId = "51F41761-070F-43EA-B302-C90910850260";
name = Regular;
paths = (
{
closed = 1;
nodes = (
"127 514 OFFCURVE",
"107 539 OFFCURVE",
"95 568 CURVE",
"37 492 LINE",
"52 454 OFFCURVE",
"71 377 OFFCURVE",
"82 320 CURVE SMOOTH",
"92 266 OFFCURVE",
"103 199 OFFCURVE",
"108 152 CURVE",
"89 118 OFFCURVE",
"50 98 OFFCURVE",
"10 98 CURVE SMOOTH",
"-21 98 LINE SMOOTH",
"-56 98 OFFCURVE",
"-70 72 OFFCURVE",
"-70 48 CURVE SMOOTH",
"-70 18 OFFCURVE",
"-48 0 OFFCURVE",
"-21 0 CURVE",
"11 0 LINE",
"29 0 OFFCURVE",
"41 1 OFFCURVE",
"53 4 CURVE SMOOTH",
"83 10 OFFCURVE",
"109 28 OFFCURVE",
"127 54 CURVE SMOOTH",
"146 82 OFFCURVE",
"155 116 OFFCURVE",
"158 157 CURVE",
"157 192 OFFCURVE",
"156 206 OFFCURVE",
"139 322 CURVE SMOOTH",
"135 348 OFFCURVE",
"131 385 OFFCURVE",
"129 399 CURVE",
"126 441 OFFCURVE",
"132 463 OFFCURVE",
"155 483 CURVE"
);
}
);
width = 188;
},
{
layerId = "0E844BAD-773F-41FF-B6D6-C35F1E5E991C";
name = Bold;
paths = (
{
closed = 1;
nodes = (
"145 523 OFFCURVE",
"121 553 OFFCURVE",
"100 608 CURVE",
"25 493 LINE",
"25 493 OFFCURVE",
"39 453 OFFCURVE",
"56 387 CURVE SMOOTH",
"70 329 OFFCURVE",
"87 265 OFFCURVE",
"97 176 CURVE",
"90 167 OFFCURVE",
"66 139 OFFCURVE",
"18 139 CURVE SMOOTH",
"-20 139 LINE SMOOTH",
"-66 139 OFFCURVE",
"-90 98 OFFCURVE",
"-90 70 CURVE SMOOTH",
"-90 31 OFFCURVE",
"-58 0 OFFCURVE",
"-20 0 CURVE",
"22 0 LINE",
"44 0 OFFCURVE",
"64 4 OFFCURVE",
"83 11 CURVE SMOOTH",
"102 19 OFFCURVE",
"120 32 OFFCURVE",
"134 48 CURVE SMOOTH",
"161 78 OFFCURVE",
"179 122 OFFCURVE",
"179 176 CURVE SMOOTH",
"179 204 OFFCURVE",
"169 265 OFFCURVE",
"161 324 CURVE SMOOTH",
"158 346 OFFCURVE",
"154 370 OFFCURVE",
"150 398 CURVE SMOOTH",
"140 457 OFFCURVE",
"179 472 OFFCURVE",
"188 479 CURVE"
);
}
);
width = 228;
}
);
unicode = FEDF;
},
{
glyphname = "noonghunna-ar";
lastChange = "2015-10-09 20:58:59 +0000";
layers = (
{
layerId = "51F41761-070F-43EA-B302-C90910850260";
name = Regular;
paths = (
{
closed = 1;
nodes = (
"426 227 OFFCURVE",
"405 201 OFFCURVE",
"391 174 CURVE",
"394 170 OFFCURVE",
"467 69 OFFCURVE",
"467 20 CURVE SMOOTH",
"467 -8 OFFCURVE",
"445 -35 OFFCURVE",
"410 -55 CURVE SMOOTH",
"375 -75 OFFCURVE",
"328 -87 OFFCURVE",
"271 -87 CURVE SMOOTH",
"193 -87 OFFCURVE",
"138 -65 OFFCURVE",
"111 -31 CURVE SMOOTH",
"85 2 OFFCURVE",
"88 43 OFFCURVE",
"98 100 CURVE",
"79 107 LINE",
"61 64 OFFCURVE",
"52 22 OFFCURVE",
"50 -6 CURVE SMOOTH",
"48 -35 OFFCURVE",
"51 -65 OFFCURVE",
"63 -94 CURVE SMOOTH",
"77 -128 OFFCURVE",
"100 -153 OFFCURVE",
"135 -172 CURVE SMOOTH",
"170 -191 OFFCURVE",
"213 -200 OFFCURVE",
"263 -200 CURVE SMOOTH",
"300 -200 OFFCURVE",
"333 -195 OFFCURVE",
"363 -185 CURVE SMOOTH",
"390 -176 OFFCURVE",
"415 -164 OFFCURVE",
"439 -142 CURVE SMOOTH",
"484 -101 OFFCURVE",
"507 -38 OFFCURVE",
"507 39 CURVE SMOOTH",
"507 89 OFFCURVE",
"497 135 OFFCURVE",
"478 180 CURVE SMOOTH",
"464 214 OFFCURVE",
"449 233 OFFCURVE",
"440 244 CURVE"
);
}
);
width = 537;
},
{
layerId = "0E844BAD-773F-41FF-B6D6-C35F1E5E991C";
name = Bold;
paths = (
{
closed = 1;
nodes = (
"440 264 OFFCURVE",
"417 231 OFFCURVE",
"397 193 CURVE",
"445 130 OFFCURVE",
"486 71 OFFCURVE",
"486 39 CURVE SMOOTH",
"486 19 OFFCURVE",
"470 0 OFFCURVE",
"440 -16 CURVE SMOOTH",
"408 -33 OFFCURVE",
"360 -47 OFFCURVE",
"303 -47 CURVE SMOOTH",
"243 -47 OFFCURVE",
"186 -32 OFFCURVE",
"157 3 CURVE SMOOTH",
"130 36 OFFCURVE",
"129 85 OFFCURVE",
"141 138 CURVE",
"98 153 LINE",
"78 112 OFFCURVE",
"63 59 OFFCURVE",
"60 16 CURVE SMOOTH",
"58 -15 OFFCURVE",
"61 -50 OFFCURVE",
"74 -82 CURVE SMOOTH",
"91 -123 OFFCURVE",
"122 -154 OFFCURVE",
"163 -174 CURVE SMOOTH",
"199 -191 OFFCURVE",
"241 -200 OFFCURVE",
"294 -200 CURVE SMOOTH",
"334 -200 OFFCURVE",
"366 -195 OFFCURVE",
"399 -184 CURVE SMOOTH",
"429 -174 OFFCURVE",
"456 -161 OFFCURVE",
"483 -136 CURVE SMOOTH",
"507 -114 OFFCURVE",
"557 -56 OFFCURVE",
"557 55 CURVE SMOOTH",
"557 111 OFFCURVE",
"544 167 OFFCURVE",
"527 208 CURVE SMOOTH",
"501 272 OFFCURVE",
"467 294 OFFCURVE",
"467 294 CURVE"
);
}
);
width = 597;
}
);
unicode = 06BA;
},
{
glyphname = "noonghunna-ar.fina";
lastChange = "2015-10-09 20:59:20 +0000";
layers = (
{
layerId = "51F41761-070F-43EA-B302-C90910850260";
name = Regular;
paths = (
{
closed = 1;
nodes = (
"607 98 LINE",
"548 98 LINE SMOOTH",
"531 98 OFFCURVE",
"484 102 OFFCURVE",
"443 153 CURVE SMOOTH",
"439 158 LINE",
"425 140 OFFCURVE",
"410 119 OFFCURVE",
"396 94 CURVE",
"441 19 OFFCURVE",
"467 -31 OFFCURVE",
"467 -64 CURVE SMOOTH",
"467 -95 OFFCURVE",
"443 -122 OFFCURVE",
"411 -140 CURVE SMOOTH",
"381 -157 OFFCURVE",
"333 -172 OFFCURVE",
"270 -172 CURVE SMOOTH",
"234 -172 OFFCURVE",
"201 -167 OFFCURVE",
"175 -158 CURVE SMOOTH",
"143 -147 OFFCURVE",
"123 -133 OFFCURVE",
"110 -113 CURVE SMOOTH",
"89 -82 OFFCURVE",
"89 -39 OFFCURVE",
"99 15 CURVE",
"80 22 LINE",
"63 -19 OFFCURVE",
"54 -57 OFFCURVE",
"51 -91 CURVE SMOOTH",
"48 -123 OFFCURVE",
"52 -154 OFFCURVE",
"63 -180 CURVE SMOOTH",
"76 -210 OFFCURVE",
"97 -236 OFFCURVE",
"136 -257 CURVE SMOOTH",
"170 -275 OFFCURVE",
"210 -285 OFFCURVE",
"262 -285 CURVE SMOOTH",
"298 -285 OFFCURVE",
"328 -280 OFFCURVE",
"349 -274 CURVE SMOOTH",
"388 -263 OFFCURVE",
"429 -238 OFFCURVE",
"456 -209 CURVE SMOOTH",
"520 -140 OFFCURVE",
"521 -39 OFFCURVE",
"504 19 CURVE",
"524 4 OFFCURVE",
"543 0 OFFCURVE",
"574 0 CURVE SMOOTH",
"607 0 LINE"
);
}
);
width = 587;
},
{
layerId = "0E844BAD-773F-41FF-B6D6-C35F1E5E991C";
name = Bold;
paths = (
{
closed = 1;
nodes = (
"657 139 LINE",
"578 139 LINE SMOOTH",
"540 139 OFFCURVE",
"506 160 OFFCURVE",
"479 199 CURVE SMOOTH",
"470 212 LINE",
"444 179 OFFCURVE",
"424 149 OFFCURVE",
"402 113 CURVE",
"451 49 OFFCURVE",
"486 -9 OFFCURVE",
"486 -44 CURVE SMOOTH",
"486 -67 OFFCURVE",
"470 -85 OFFCURVE",
"439 -101 CURVE SMOOTH",
"416 -113 OFFCURVE",
"368 -132 OFFCURVE",
"304 -132 CURVE SMOOTH",
"265 -132 OFFCURVE",
"234 -125 OFFCURVE",
"213 -118 CURVE SMOOTH",
"192 -111 OFFCURVE",
"170 -99 OFFCURVE",
"156 -82 CURVE SMOOTH",
"128 -48 OFFCURVE",
"131 -1 OFFCURVE",
"141 53 CURVE",
"98 68 LINE",
"78 33 OFFCURVE",
"63 -28 OFFCURVE",
"60 -69 CURVE SMOOTH",
"57 -107 OFFCURVE",
"64 -142 OFFCURVE",
"74 -167 CURVE SMOOTH",
"89 -205 OFFCURVE",
"116 -234 OFFCURVE",
"156 -255 CURVE SMOOTH",
"196 -276 OFFCURVE",
"242 -285 OFFCURVE",
"292 -285 CURVE SMOOTH",
"333 -285 OFFCURVE",
"377 -279 OFFCURVE",
"413 -264 CURVE SMOOTH",
"448 -250 OFFCURVE",
"482 -223 OFFCURVE",
"501 -202 CURVE SMOOTH",
"553 -144 OFFCURVE",
"566 -64 OFFCURVE",
"558 6 CURVE",
"571 2 OFFCURVE",
"586 0 OFFCURVE",
"607 0 CURVE",
"657 0 LINE"
);
}
);
width = 637;
}
);
unicode = FB9F;
},
{
glyphname = "kashida-ar";
lastChange = "2015-10-08 00:36:25 +0000";
layers = (
{
layerId = "51F41761-070F-43EA-B302-C90910850260";
name = Regular;
paths = (
{
closed = 1;
nodes = (
"-22 98 LINE SMOOTH",
"-44 98 OFFCURVE",
"-70 80 OFFCURVE",
"-70 49 CURVE SMOOTH",
"-70 21 OFFCURVE",
"-49 0 OFFCURVE",
"-22 0 CURVE SMOOTH",
"187 0 LINE",
"187 98 LINE"
);
}
);
width = 167;
},
{
layerId = "0E844BAD-773F-41FF-B6D6-C35F1E5E991C";
name = Bold;
paths = (
{
closed = 1;
nodes = (
"-21 139 LINE SMOOTH",
"-64 139 OFFCURVE",
"-90 103 OFFCURVE",
"-90 69 CURVE SMOOTH",
"-90 31 OFFCURVE",
"-60 0 OFFCURVE",
"-21 0 CURVE SMOOTH",
"208 0 LINE",
"208 139 LINE"
);
}
);
width = 168;
}
);
unicode = 0640;
},
{
glyphname = "tahabove-ar";
lastChange = "2015-10-09 20:02:11 +0000";
layers = (
{
layerId = "51F41761-070F-43EA-B302-C90910850260";
name = Regular;
paths = (
{
closed = 1;
nodes = (
"-66 881 LINE",
"-60 871 OFFCURVE",
"-41 828 OFFCURVE",
"-36 762 CURVE",
"-50 738 LINE",
"-84 738 LINE",
"-72 700 LINE",
"-22 700 LINE SMOOTH",
"3 700 OFFCURVE",
"31 710 OFFCURVE",
"53 726 CURVE SMOOTH",
"75 744 OFFCURVE",
"88 766 OFFCURVE",
"88 788 CURVE SMOOTH",
"88 806 OFFCURVE",
"63 824 OFFCURVE",
"45 824 CURVE SMOOTH",
"30 824 OFFCURVE",
"3 813 OFFCURVE",
"-25 774 CURVE",
"-23 799 OFFCURVE",
"-24 808 OFFCURVE",
"-32 844 CURVE",
"-34 866 OFFCURVE",
"-30 870 OFFCURVE",
"-20 878 CURVE",
"-31 888 OFFCURVE",
"-40 901 OFFCURVE",
"-45 909 CURVE"
);
},
{
closed = 1;
nodes = (
"58 749 OFFCURVE",
"33 738 OFFCURVE",
"3 738 CURVE SMOOTH",
"-29 738 LINE",
"-16 764 OFFCURVE",
"1 792 OFFCURVE",
"29 793 CURVE",
"53 793 OFFCURVE",
"63 777 OFFCURVE",
"69 766 CURVE"
);
}
);
width = 0;
},
{
layerId = "0E844BAD-773F-41FF-B6D6-C35F1E5E991C";
name = Bold;
paths = (
{
closed = 1;
nodes = (
"-80 911 LINE",
"-66 885 OFFCURVE",
"-53 826 OFFCURVE",
"-53 783 CURVE",
"-60 769 LINE",
"-102 769 LINE",
"-84 701 LINE",
"-24 701 LINE",
"4 701 OFFCURVE",
"36 712 OFFCURVE",
"60 730 CURVE SMOOTH",
"87 751 OFFCURVE",
"101 777 OFFCURVE",
"101 804 CURVE SMOOTH",
"101 832 OFFCURVE",
"66 855 OFFCURVE",
"43 855 CURVE SMOOTH",
"23 855 OFFCURVE",
"-3 839 OFFCURVE",
"-22 810 CURVE",
"-18 830 OFFCURVE",
"-18 854 OFFCURVE",
"-21 871 CURVE",
"-23 891 OFFCURVE",
"-20 896 OFFCURVE",
"-2 901 CURVE",
"-19 920 OFFCURVE",
"-30 937 OFFCURVE",
"-40 959 CURVE"
);
},
{
closed = 1;
nodes = (
"56 777 OFFCURVE",
"32 764 OFFCURVE",
"9 764 CURVE SMOOTH",
"-25 764 LINE",
"-14 781 OFFCURVE",
"6 804 OFFCURVE",
"27 804 CURVE SMOOTH",
"47 804 OFFCURVE",
"57 794 OFFCURVE",
"62 787 CURVE"
);
}
);
width = 0;
}
);
unicode = 0615;
},
{
glyphname = "dotabove-ar";
lastChange = "2015-10-09 21:11:10 +0000";
layers = (
{
layerId = "51F41761-070F-43EA-B302-C90910850260";
name = Regular;
paths = (
{
closed = 1;
nodes = (
"-14 776 OFFCURVE",
"-35 754 OFFCURVE",
"-51 739 CURVE",
"-31 723 OFFCURVE",
"-14 706 OFFCURVE",
"4 685 CURVE",
"27 706 OFFCURVE",
"42 721 OFFCURVE",
"56 737 CURVE",
"44 755 OFFCURVE",
"21 777 OFFCURVE",
"0 792 CURVE"
);
}
);
width = 0;
},
{
layerId = "0E844BAD-773F-41FF-B6D6-C35F1E5E991C";
name = Bold;
paths = (
{
closed = 1;
nodes = (
"-14 780 OFFCURVE",
"-53 739 OFFCURVE",
"-73 723 CURVE",
"-42 701 OFFCURVE",
"-16 673 OFFCURVE",
"2 650 CURVE",
"26 668 OFFCURVE",
"61 707 OFFCURVE",
"71 719 CURVE",
"58 745 OFFCURVE",
"29 776 OFFCURVE",
"-3 793 CURVE"
);
}
);
width = 0;
}
);
unicode = FBB2;
},
{
glyphname = "dotbelow-ar";
lastChange = "2015-10-09 17:54:10 +0000";
layers = (
{
layerId = "51F41761-070F-43EA-B302-C90910850260";
name = Regular;
paths = (
{
closed = 1;
nodes = (
"-14 -197 OFFCURVE",
"-35 -219 OFFCURVE",
"-51 -234 CURVE",
"-31 -250 OFFCURVE",
"-14 -267 OFFCURVE",
"4 -288 CURVE",
"27 -267 OFFCURVE",
"42 -252 OFFCURVE",
"56 -236 CURVE",
"44 -218 OFFCURVE",
"21 -196 OFFCURVE",
"0 -181 CURVE"
);
}
);
width = 0;
},
{
layerId = "0E844BAD-773F-41FF-B6D6-C35F1E5E991C";
name = Bold;
paths = (
{
closed = 1;
nodes = (
"-14 -159 OFFCURVE",
"-53 -200 OFFCURVE",
"-73 -216 CURVE",
"-42 -238 OFFCURVE",
"-16 -266 OFFCURVE",
"2 -289 CURVE",
"26 -271 OFFCURVE",
"61 -232 OFFCURVE",
"71 -220 CURVE",
"58 -194 OFFCURVE",
"29 -163 OFFCURVE",
"-3 -146 CURVE"
);
}
);
width = 0;
}
);
unicode = FBB3;
},
{
glyphname = "dotcenter-ar";
lastChange = "2015-10-09 17:54:23 +0000";
layers = (
{
layerId = "51F41761-070F-43EA-B302-C90910850260";
name = Regular;
paths = (
{
closed = 1;
nodes = (
"-14 192 OFFCURVE",
"-35 170 OFFCURVE",
"-51 155 CURVE",
"-31 139 OFFCURVE",
"-14 122 OFFCURVE",
"4 101 CURVE",
"27 122 OFFCURVE",
"42 137 OFFCURVE",
"56 153 CURVE",
"44 171 OFFCURVE",
"21 193 OFFCURVE",
"0 208 CURVE"
);
}
);
width = 0;
},
{
layerId = "0E844BAD-773F-41FF-B6D6-C35F1E5E991C";
name = Bold;
paths = (
{
closed = 1;
nodes = (
"-15 230 OFFCURVE",
"-54 189 OFFCURVE",
"-74 173 CURVE",
"-43 151 OFFCURVE",
"-17 123 OFFCURVE",
"1 100 CURVE",
"25 118 OFFCURVE",
"60 157 OFFCURVE",
"70 169 CURVE",
"57 195 OFFCURVE",
"28 226 OFFCURVE",
"-4 243 CURVE"
);
}
);
width = 0;
}
);
},
{
glyphname = "twodotsverticalabove-ar";
lastChange = "2015-10-09 17:54:35 +0000";
layers = (
{
layerId = "51F41761-070F-43EA-B302-C90910850260";
name = Regular;
paths = (
{
closed = 1;
nodes = (
"32 818 OFFCURVE",
"43 831 OFFCURVE",
"56 845 CURVE",
"44 863 OFFCURVE",
"21 886 OFFCURVE",
"1 900 CURVE",
"-13 885 OFFCURVE",
"-35 863 OFFCURVE",
"-51 848 CURVE",
"-35 834 OFFCURVE",
"-20 820 OFFCURVE",
"-5 804 CURVE",
"-19 789 OFFCURVE",
"-37 771 OFFCURVE",
"-51 757 CURVE",
"-31 741 OFFCURVE",
"-14 725 OFFCURVE",
"4 703 CURVE",
"28 725 OFFCURVE",
"42 739 OFFCURVE",
"56 755 CURVE",
"47 770 OFFCURVE",
"31 787 OFFCURVE",
"13 801 CURVE"
);
}
);
width = 0;
},
{
layerId = "0E844BAD-773F-41FF-B6D6-C35F1E5E991C";
name = Bold;
paths = (
{
closed = 1;
nodes = (
"42 849 OFFCURVE",
"66 876 OFFCURVE",
"73 886 CURVE",
"61 911 OFFCURVE",
"32 942 OFFCURVE",
"-1 960 CURVE",
"-11 947 OFFCURVE",
"-50 906 OFFCURVE",
"-70 890 CURVE",
"-46 873 OFFCURVE",
"-25 852 OFFCURVE",
"-9 833 CURVE",
"-24 816 OFFCURVE",
"-54 786 OFFCURVE",
"-70 773 CURVE",
"-39 751 OFFCURVE",
"-13 722 OFFCURVE",
"5 700 CURVE",
"29 718 OFFCURVE",
"64 756 OFFCURVE",
"73 769 CURVE",
"64 789 OFFCURVE",
"44 812 OFFCURVE",
"20 830 CURVE"
);
}
);
width = 0;
}
);
unicode = FBBD;
},
{
glyphname = "twodotsverticalbelow-ar";
lastChange = "2015-10-09 17:54:43 +0000";
layers = (
{
layerId = "51F41761-070F-43EA-B302-C90910850260";
name = Regular;
paths = (
{
closed = 1;
nodes = (
"32 -170 OFFCURVE",
"43 -157 OFFCURVE",
"56 -143 CURVE",
"44 -125 OFFCURVE",
"21 -102 OFFCURVE",
"1 -88 CURVE",
"-13 -103 OFFCURVE",
"-35 -125 OFFCURVE",
"-51 -140 CURVE",
"-35 -154 OFFCURVE",
"-20 -168 OFFCURVE",
"-5 -184 CURVE",
"-19 -199 OFFCURVE",
"-37 -217 OFFCURVE",
"-51 -231 CURVE",
"-31 -247 OFFCURVE",
"-14 -263 OFFCURVE",
"4 -285 CURVE",
"28 -263 OFFCURVE",
"42 -249 OFFCURVE",
"56 -233 CURVE",
"47 -218 OFFCURVE",
"31 -201 OFFCURVE",
"13 -187 CURVE"
);
}
);
width = 0;
},
{
layerId = "0E844BAD-773F-41FF-B6D6-C35F1E5E991C";
name = Bold;
paths = (
{
closed = 1;
nodes = (
"41 -136 OFFCURVE",
"65 -109 OFFCURVE",
"72 -99 CURVE",
"60 -74 OFFCURVE",
"31 -43 OFFCURVE",
"-2 -25 CURVE",
"-12 -38 OFFCURVE",
"-51 -79 OFFCURVE",
"-71 -95 CURVE",
"-47 -112 OFFCURVE",
"-26 -133 OFFCURVE",
"-10 -152 CURVE",
"-25 -169 OFFCURVE",
"-55 -199 OFFCURVE",
"-71 -212 CURVE",
"-40 -234 OFFCURVE",
"-14 -263 OFFCURVE",
"4 -285 CURVE",
"28 -267 OFFCURVE",
"63 -229 OFFCURVE",
"72 -216 CURVE",
"63 -196 OFFCURVE",
"43 -173 OFFCURVE",
"19 -155 CURVE"
);
}
);
width = 0;
}
);
unicode = FBBE;
},
{
glyphname = "twodotshorizontalabove-ar";
lastChange = "2015-10-09 17:54:50 +0000";
layers = (
{
layerId = "51F41761-070F-43EA-B302-C90910850260";
name = Regular;
paths = (
{
closed = 1;
nodes = (
"29 787 OFFCURVE",
"13 771 OFFCURVE",
"-1 757 CURVE",
"-14 772 OFFCURVE",
"-31 790 OFFCURVE",
"-47 800 CURVE",
"-61 785 OFFCURVE",
"-83 763 OFFCURVE",
"-99 747 CURVE",
"-79 731 OFFCURVE",
"-62 715 OFFCURVE",
"-43 693 CURVE",
"-24 710 OFFCURVE",
"-10 724 OFFCURVE",
"1 737 CURVE",
"16 724 OFFCURVE",
"30 710 OFFCURVE",
"44 693 CURVE",
"68 715 OFFCURVE",
"82 729 OFFCURVE",
"96 745 CURVE",
"84 763 OFFCURVE",
"61 786 OFFCURVE",
"40 800 CURVE"
);
}
);
width = 0;
},
{
layerId = "0E844BAD-773F-41FF-B6D6-C35F1E5E991C";
name = Bold;
paths = (
{
closed = 1;
nodes = (
"44 832 OFFCURVE",
"19 805 OFFCURVE",
"-2 786 CURVE",
"-17 807 OFFCURVE",
"-40 829 OFFCURVE",
"-66 843 CURVE",
"-76 830 OFFCURVE",
"-115 789 OFFCURVE",
"-135 773 CURVE",
"-104 751 OFFCURVE",
"-78 722 OFFCURVE",
"-60 700 CURVE",
"-41 715 OFFCURVE",
"-14 743 OFFCURVE",
"1 759 CURVE",
"24 740 OFFCURVE",
"44 718 OFFCURVE",
"58 700 CURVE",
"82 718 OFFCURVE",
"117 756 OFFCURVE",
"126 769 CURVE",
"114 794 OFFCURVE",
"85 825 OFFCURVE",
"52 843 CURVE"
);
}
);
width = 0;
}
);
unicode = FBB4;
},
{
glyphname = "twodotshorizontalbelow-ar";
lastChange = "2015-10-09 17:54:56 +0000";
layers = (
{
layerId = "51F41761-070F-43EA-B302-C90910850260";
name = Regular;
paths = (
{
closed = 1;
nodes = (
"29 -208 OFFCURVE",
"13 -224 OFFCURVE",
"-1 -238 CURVE",
"-14 -223 OFFCURVE",
"-31 -205 OFFCURVE",
"-47 -195 CURVE",
"-61 -210 OFFCURVE",
"-83 -232 OFFCURVE",
"-99 -248 CURVE",
"-79 -264 OFFCURVE",
"-62 -280 OFFCURVE",
"-43 -302 CURVE",
"-24 -285 OFFCURVE",
"-10 -271 OFFCURVE",
"1 -258 CURVE",
"16 -271 OFFCURVE",
"30 -285 OFFCURVE",
"44 -302 CURVE",
"68 -280 OFFCURVE",
"82 -266 OFFCURVE",
"96 -250 CURVE",
"84 -232 OFFCURVE",
"61 -209 OFFCURVE",
"40 -195 CURVE"
);
}
);
width = 0;
},
{
layerId = "0E844BAD-773F-41FF-B6D6-C35F1E5E991C";
name = Bold;
paths = (
{
closed = 1;
nodes = (
"46 -162 OFFCURVE",
"21 -189 OFFCURVE",
"0 -208 CURVE",
"-15 -187 OFFCURVE",
"-38 -165 OFFCURVE",
"-64 -151 CURVE",
"-74 -164 OFFCURVE",
"-113 -205 OFFCURVE",
"-133 -221 CURVE",
"-102 -243 OFFCURVE",
"-76 -272 OFFCURVE",
"-58 -294 CURVE",
"-39 -279 OFFCURVE",
"-12 -251 OFFCURVE",
"3 -235 CURVE",
"26 -254 OFFCURVE",
"46 -276 OFFCURVE",
"60 -294 CURVE",
"84 -276 OFFCURVE",
"119 -238 OFFCURVE",
"128 -225 CURVE",
"116 -200 OFFCURVE",
"87 -169 OFFCURVE",
"54 -151 CURVE"
);
}
);
width = 0;
}
);
unicode = FBB5;
},
{
glyphname = "threedotsdownabove-ar";
lastChange = "2015-10-09 17:55:08 +0000";
layers = (
{
layerId = "51F41761-070F-43EA-B302-C90910850260";
name = Regular;
paths = (
{
closed = 1;
nodes = (
"29 890 OFFCURVE",
"13 872 OFFCURVE",
"-1 859 CURVE",
"-14 875 OFFCURVE",
"-31 891 OFFCURVE",
"-47 901 CURVE",
"-61 886 OFFCURVE",
"-83 864 OFFCURVE",
"-99 849 CURVE",
"-79 833 OFFCURVE",
"-62 816 OFFCURVE",
"-43 794 CURVE",
"-24 813 OFFCURVE",
"-10 825 OFFCURVE",
"1 838 CURVE",
"16 825 OFFCURVE",
"30 811 OFFCURVE",
"44 794 CURVE",
"68 816 OFFCURVE",
"82 831 OFFCURVE",
"96 846 CURVE",
"84 864 OFFCURVE",
"61 887 OFFCURVE",
"40 901 CURVE"
);
},
{
closed = 1;
nodes = (
"-12 792 OFFCURVE",
"-34 770 OFFCURVE",
"-50 754 CURVE",
"-31 738 OFFCURVE",
"-14 722 OFFCURVE",
"5 700 CURVE",
"29 722 OFFCURVE",
"43 736 OFFCURVE",
"57 752 CURVE",
"45 770 OFFCURVE",
"22 793 OFFCURVE",
"1 807 CURVE"
);
}
);
width = 0;
},
{
layerId = "0E844BAD-773F-41FF-B6D6-C35F1E5E991C";
name = Bold;
paths = (
{
closed = 1;
nodes = (
"43 950 OFFCURVE",
"18 922 OFFCURVE",
"-3 903 CURVE",
"-18 924 OFFCURVE",
"-41 946 OFFCURVE",
"-67 960 CURVE",
"-77 947 OFFCURVE",
"-116 906 OFFCURVE",
"-136 890 CURVE",
"-105 868 OFFCURVE",
"-79 840 OFFCURVE",
"-61 817 CURVE",
"-42 832 OFFCURVE",
"-15 860 OFFCURVE",
"0 876 CURVE",
"23 857 OFFCURVE",
"43 835 OFFCURVE",
"57 817 CURVE",
"81 835 OFFCURVE",
"116 873 OFFCURVE",
"125 886 CURVE",
"113 912 OFFCURVE",
"84 943 OFFCURVE",
"51 960 CURVE"
);
},
{
closed = 1;
nodes = (
"26 718 OFFCURVE",
"61 756 OFFCURVE",
"70 769 CURVE",
"58 794 OFFCURVE",
"28 825 OFFCURVE",
"-4 843 CURVE",
"-14 830 OFFCURVE",
"-53 789 OFFCURVE",
"-73 773 CURVE",
"-42 751 OFFCURVE",
"-16 722 OFFCURVE",
"1 700 CURVE"
);
}
);
width = 0;
}
);
unicode = FBB8;
},
{
glyphname = "threedotsdownbelow-ar";
lastChange = "2015-10-09 17:55:16 +0000";
layers = (
{
layerId = "51F41761-070F-43EA-B302-C90910850260";
name = Regular;
paths = (
{
closed = 1;
nodes = (
"26 -20 OFFCURVE",
"10 -38 OFFCURVE",
"-4 -51 CURVE",
"-17 -35 OFFCURVE",
"-34 -19 OFFCURVE",
"-50 -9 CURVE",
"-64 -24 OFFCURVE",
"-86 -46 OFFCURVE",
"-102 -61 CURVE",
"-82 -77 OFFCURVE",
"-65 -94 OFFCURVE",
"-46 -116 CURVE",
"-27 -97 OFFCURVE",
"-13 -85 OFFCURVE",
"-2 -72 CURVE",
"13 -85 OFFCURVE",
"27 -99 OFFCURVE",
"41 -116 CURVE",
"65 -94 OFFCURVE",
"79 -79 OFFCURVE",
"93 -64 CURVE",
"81 -46 OFFCURVE",
"58 -23 OFFCURVE",
"37 -9 CURVE"
);
},
{
closed = 1;
nodes = (
"-15 -118 OFFCURVE",
"-37 -140 OFFCURVE",
"-53 -156 CURVE",
"-34 -172 OFFCURVE",
"-17 -188 OFFCURVE",
"2 -210 CURVE",
"26 -188 OFFCURVE",
"40 -174 OFFCURVE",
"54 -158 CURVE",
"42 -140 OFFCURVE",
"19 -117 OFFCURVE",
"-2 -103 CURVE"
);
}
);
width = 0;
},
{
layerId = "0E844BAD-773F-41FF-B6D6-C35F1E5E991C";
name = Bold;
paths = (
{
closed = 1;
nodes = (
"43 42 OFFCURVE",
"17 14 OFFCURVE",
"-3 -5 CURVE",
"-18 17 OFFCURVE",
"-41 39 OFFCURVE",
"-67 52 CURVE",
"-77 39 OFFCURVE",
"-116 -2 OFFCURVE",
"-136 -18 CURVE",
"-105 -40 OFFCURVE",
"-79 -68 OFFCURVE",
"-61 -91 CURVE",
"-42 -76 OFFCURVE",
"-15 -48 OFFCURVE",
"0 -31 CURVE",
"23 -51 OFFCURVE",
"42 -73 OFFCURVE",
"57 -91 CURVE",
"81 -73 OFFCURVE",
"116 -34 OFFCURVE",
"125 -22 CURVE",
"113 4 OFFCURVE",
"84 35 OFFCURVE",
"51 52 CURVE"
);
},
{
closed = 1;
nodes = (
"26 -190 OFFCURVE",
"61 -152 OFFCURVE",
"70 -139 CURVE",
"58 -113 OFFCURVE",
"28 -82 OFFCURVE",
"-4 -65 CURVE",
"-14 -78 OFFCURVE",
"-53 -119 OFFCURVE",
"-73 -135 CURVE",
"-42 -157 OFFCURVE",
"-16 -185 OFFCURVE",
"1 -208 CURVE"
);
}
);
width = 0;
}
);
unicode = FBB9;
},
{
glyphname = "threedotsupabove-ar";
lastChange = "2015-10-09 17:55:25 +0000";
layers = (
{
layerId = "51F41761-070F-43EA-B302-C90910850260";
name = Regular;
paths = (
{
closed = 1;
nodes = (
"29 794 OFFCURVE",
"13 778 OFFCURVE",
"-1 764 CURVE",
"-14 779 OFFCURVE",
"-31 796 OFFCURVE",
"-47 807 CURVE",
"-61 792 OFFCURVE",
"-83 770 OFFCURVE",
"-99 754 CURVE",
"-79 738 OFFCURVE",
"-62 722 OFFCURVE",
"-43 700 CURVE",
"-24 717 OFFCURVE",
"-10 731 OFFCURVE",
"1 744 CURVE",
"16 731 OFFCURVE",
"30 717 OFFCURVE",
"44 700 CURVE",
"68 722 OFFCURVE",
"82 736 OFFCURVE",
"96 752 CURVE",
"84 770 OFFCURVE",
"61 793 OFFCURVE",
"40 807 CURVE"
);
},
{
closed = 1;
nodes = (
"24 815 OFFCURVE",
"38 830 OFFCURVE",
"52 846 CURVE",
"40 864 OFFCURVE",
"17 887 OFFCURVE",
"-3 901 CURVE",
"-17 885 OFFCURVE",
"-39 863 OFFCURVE",
"-55 848 CURVE",
"-35 832 OFFCURVE",
"-18 815 OFFCURVE",
"0 794 CURVE"
);
}
);
width = 0;
},
{
layerId = "0E844BAD-773F-41FF-B6D6-C35F1E5E991C";
name = Bold;
paths = (
{
closed = 1;
nodes = (
"43 832 OFFCURVE",
"18 805 OFFCURVE",
"-3 786 CURVE",
"-18 807 OFFCURVE",
"-41 829 OFFCURVE",
"-67 843 CURVE",
"-77 830 OFFCURVE",
"-116 789 OFFCURVE",
"-136 773 CURVE",
"-105 751 OFFCURVE",
"-79 722 OFFCURVE",
"-61 700 CURVE",
"-42 715 OFFCURVE",
"-15 743 OFFCURVE",
"0 759 CURVE",
"23 740 OFFCURVE",
"43 718 OFFCURVE",
"57 700 CURVE",
"81 718 OFFCURVE",
"116 756 OFFCURVE",
"125 769 CURVE",
"113 794 OFFCURVE",
"84 825 OFFCURVE",
"51 843 CURVE"
);
},
{
closed = 1;
nodes = (
"22 836 OFFCURVE",
"57 875 OFFCURVE",
"66 887 CURVE",
"54 913 OFFCURVE",
"25 944 OFFCURVE",
"-8 961 CURVE",
"-18 948 OFFCURVE",
"-57 907 OFFCURVE",
"-77 891 CURVE",
"-46 869 OFFCURVE",
"-20 841 OFFCURVE",
"-2 818 CURVE"
);
}
);
width = 0;
}
);
unicode = FBB6;
},
{
glyphname = "threedotsupbelow-ar";
lastChange = "2015-10-09 17:55:33 +0000";
layers = (
{
layerId = "51F41761-070F-43EA-B302-C90910850260";
name = Regular;
paths = (
{
closed = 1;
nodes = (
"29 -231 OFFCURVE",
"13 -247 OFFCURVE",
"-1 -261 CURVE",
"-14 -246 OFFCURVE",
"-31 -229 OFFCURVE",
"-47 -218 CURVE",
"-61 -233 OFFCURVE",
"-83 -255 OFFCURVE",
"-99 -271 CURVE",
"-79 -287 OFFCURVE",
"-62 -303 OFFCURVE",
"-43 -325 CURVE",
"-24 -308 OFFCURVE",
"-10 -294 OFFCURVE",
"1 -281 CURVE",
"16 -294 OFFCURVE",
"30 -308 OFFCURVE",
"44 -325 CURVE",
"68 -303 OFFCURVE",
"82 -289 OFFCURVE",
"96 -273 CURVE",
"84 -255 OFFCURVE",
"61 -232 OFFCURVE",
"40 -218 CURVE"
);
},
{
closed = 1;
nodes = (
"24 -210 OFFCURVE",
"38 -195 OFFCURVE",
"52 -179 CURVE",
"40 -161 OFFCURVE",
"17 -138 OFFCURVE",
"-3 -124 CURVE",
"-17 -140 OFFCURVE",
"-39 -162 OFFCURVE",
"-55 -177 CURVE",
"-35 -193 OFFCURVE",
"-18 -210 OFFCURVE",
"0 -231 CURVE"
);
}
);
width = 0;
},
{
layerId = "0E844BAD-773F-41FF-B6D6-C35F1E5E991C";
name = Bold;
paths = (
{
closed = 1;
nodes = (
"42 -192 OFFCURVE",
"16 -219 OFFCURVE",
"-4 -239 CURVE",
"-19 -217 OFFCURVE",
"-43 -195 OFFCURVE",
"-68 -182 CURVE",
"-78 -195 OFFCURVE",
"-117 -236 OFFCURVE",
"-137 -252 CURVE",
"-107 -274 OFFCURVE",
"-80 -302 OFFCURVE",
"-63 -324 CURVE",
"-43 -310 OFFCURVE",
"-16 -282 OFFCURVE",
"-2 -265 CURVE",
"21 -284 OFFCURVE",
"41 -306 OFFCURVE",
"55 -324 CURVE",
"79 -306 OFFCURVE",
"114 -268 OFFCURVE",
"124 -256 CURVE",
"112 -230 OFFCURVE",
"82 -199 OFFCURVE",
"50 -182 CURVE"
);
},
{
closed = 1;
nodes = (
"20 -188 OFFCURVE",
"55 -150 OFFCURVE",
"65 -137 CURVE",
"53 -111 OFFCURVE",
"23 -80 OFFCURVE",
"-9 -63 CURVE",
"-19 -76 OFFCURVE",
"-58 -117 OFFCURVE",
"-78 -133 CURVE",
"-48 -155 OFFCURVE",
"-21 -183 OFFCURVE",
"-4 -206 CURVE"
);
}
);
width = 0;
}
);
unicode = FBB7;
},
{
glyphname = "alefabove-ar";
lastChange = "2015-10-09 19:51:58 +0000";
layers = (
{
layerId = "51F41761-070F-43EA-B302-C90910850260";
name = Regular;
paths = (
{
closed = 1;
nodes = (
"14 750 OFFCURVE",
"8 785 OFFCURVE",
"1 802 CURVE",
"-8 798 OFFCURVE",
"-12 795 OFFCURVE",
"-16 791 CURVE",
"-11 782 OFFCURVE",
"2 756 OFFCURVE",
"-1 715 CURVE",
"9 716 LINE"
);
}
);
width = 0;
},
{
layerId = "0E844BAD-773F-41FF-B6D6-C35F1E5E991C";
name = Bold;
paths = (
{
closed = 1;
nodes = (
"24 752 OFFCURVE",
"21 794 OFFCURVE",
"2 828 CURVE",
"-12 819 OFFCURVE",
"-20 812 OFFCURVE",
"-33 799 CURVE",
"-17 774 OFFCURVE",
"-7 746 OFFCURVE",
"-10 701 CURVE",
"17 710 LINE"
);
}
);
width = 0;
}
);
unicode = 0670;
},
{
glyphname = "alefbelow-ar";
lastChange = "2015-10-09 19:42:48 +0000";
layers = (
{
layerId = "51F41761-070F-43EA-B302-C90910850260";
name = Regular;
paths = (
{
closed = 1;
nodes = (
"13 -69 OFFCURVE",
"7 -34 OFFCURVE",
"0 -17 CURVE",
"-9 -21 OFFCURVE",
"-13 -24 OFFCURVE",
"-17 -28 CURVE",
"-12 -37 OFFCURVE",
"1 -63 OFFCURVE",
"-2 -104 CURVE",
"8 -103 LINE"
);
}
);
width = 0;
},
{
layerId = "0E844BAD-773F-41FF-B6D6-C35F1E5E991C";
name = Bold;
paths = (
{
closed = 1;
nodes = (
"26 -81 OFFCURVE",
"23 -39 OFFCURVE",
"4 -5 CURVE",
"-10 -14 OFFCURVE",
"-18 -21 OFFCURVE",
"-31 -34 CURVE",
"-15 -59 OFFCURVE",
"-5 -87 OFFCURVE",
"-8 -132 CURVE",
"19 -123 LINE"
);
}
);
width = 0;
}
);
unicode = 0656;
},
{
glyphname = "hamzaabove-ar";
lastChange = "2015-10-09 18:36:14 +0000";
layers = (
{
layerId = "51F41761-070F-43EA-B302-C90910850260";
name = Regular;
paths = (
{
closed = 1;
nodes = (
"62 721 OFFCURVE",
"56 738 OFFCURVE",
"24 738 CURVE SMOOTH",
"3 738 OFFCURVE",
"-17 731 OFFCURVE",
"-36 715 CURVE SMOOTH",
"-47 706 OFFCURVE",
"-60 692 OFFCURVE",
"-67 682 CURVE SMOOTH",
"-70 678 OFFCURVE",
"-71 675 OFFCURVE",
"-71 671 CURVE SMOOTH",
"-71 648 OFFCURVE",
"-45 633 OFFCURVE",
"-8 628 CURVE",
"-43 611 OFFCURVE",
"-73 596 OFFCURVE",
"-86 577 CURVE SMOOTH",
"-85 579 OFFCURVE",
"-88 572 OFFCURVE",
"-88 570 CURVE SMOOTH",
"-87 569 OFFCURVE",
"-86 568 OFFCURVE",
"-85 568 CURVE",
"-65 580 OFFCURVE",
"-42 593 OFFCURVE",
"0 607 CURVE SMOOTH",
"27 616 OFFCURVE",
"42 620 OFFCURVE",
"71 623 CURVE",
"78 632 OFFCURVE",
"83 642 OFFCURVE",
"88 653 CURVE",
"79 651 OFFCURVE",
"71 650 OFFCURVE",
"62 648 CURVE SMOOTH",
"41 645 OFFCURVE",
"29 645 OFFCURVE",
"9 650 CURVE SMOOTH",
"-25 659 OFFCURVE",
"-37 669 OFFCURVE",
"-37 692 CURVE SMOOTH",
"-16 705 OFFCURVE",
"3 714 OFFCURVE",
"28 714 CURVE SMOOTH",
"43 714 OFFCURVE",
"53 711 OFFCURVE",
"60 708 CURVE",
"64 712 LINE"
);
}
);
width = 0;
},
{
layerId = "0E844BAD-773F-41FF-B6D6-C35F1E5E991C";
name = Bold;
paths = (
{
closed = 1;
nodes = (
"76 734 OFFCURVE",
"61 757 OFFCURVE",
"22 757 CURVE SMOOTH",
"-2 757 OFFCURVE",
"-25 749 OFFCURVE",
"-47 731 CURVE SMOOTH",
"-63 718 OFFCURVE",
"-76 702 OFFCURVE",
"-81 696 CURVE SMOOTH",
"-86 689 OFFCURVE",
"-88 683 OFFCURVE",
"-88 675 CURVE SMOOTH",
"-88 660 OFFCURVE",
"-77 641 OFFCURVE",
"-50 629 CURVE",
"-67 619 OFFCURVE",
"-90 604 OFFCURVE",
"-100 589 CURVE SMOOTH",
"-106 581 OFFCURVE",
"-105 574 OFFCURVE",
"-104 570 CURVE SMOOTH",
"-100 557 OFFCURVE",
"-85 556 OFFCURVE",
"-85 556 CURVE SMOOTH",
"-85 556 OFFCURVE",
"-48 580 OFFCURVE",
"-5 594 CURVE SMOOTH",
"22 604 OFFCURVE",
"50 612 OFFCURVE",
"78 613 CURVE",
"92 634 OFFCURVE",
"101 653 OFFCURVE",
"110 676 CURVE",
"93 673 OFFCURVE",
"75 670 OFFCURVE",
"58 667 CURVE SMOOTH",
"38 665 OFFCURVE",
"29 664 OFFCURVE",
"11 669 CURVE SMOOTH",
"-14 676 OFFCURVE",
"-22 684 OFFCURVE",
"-24 689 CURVE",
"-17 694 OFFCURVE",
"2 703 OFFCURVE",
"26 703 CURVE SMOOTH",
"37 703 OFFCURVE",
"49 700 OFFCURVE",
"62 695 CURVE",
"78 711 LINE"
);
}
);
width = 0;
}
);
unicode = 0654;
},
{
glyphname = "hamzabelow-ar";
lastChange = "2015-10-09 19:15:03 +0000";
layers = (
{
layerId = "51F41761-070F-43EA-B302-C90910850260";
name = Regular;
paths = (
{
closed = 1;
nodes = (
"62 -218 OFFCURVE",
"56 -201 OFFCURVE",
"24 -201 CURVE SMOOTH",
"3 -201 OFFCURVE",
"-17 -208 OFFCURVE",
"-36 -224 CURVE SMOOTH",
"-47 -233 OFFCURVE",
"-60 -247 OFFCURVE",
"-67 -257 CURVE SMOOTH",
"-70 -261 OFFCURVE",
"-71 -264 OFFCURVE",
"-71 -268 CURVE SMOOTH",
"-71 -291 OFFCURVE",
"-45 -306 OFFCURVE",
"-8 -311 CURVE",
"-43 -328 OFFCURVE",
"-73 -343 OFFCURVE",
"-86 -362 CURVE SMOOTH",
"-85 -360 OFFCURVE",
"-88 -367 OFFCURVE",
"-88 -369 CURVE SMOOTH",
"-87 -370 OFFCURVE",
"-86 -371 OFFCURVE",
"-85 -371 CURVE",
"-65 -359 OFFCURVE",
"-42 -346 OFFCURVE",
"0 -332 CURVE SMOOTH",
"27 -323 OFFCURVE",
"42 -319 OFFCURVE",
"71 -316 CURVE",
"78 -307 OFFCURVE",
"83 -297 OFFCURVE",
"88 -286 CURVE",
"79 -288 OFFCURVE",
"71 -289 OFFCURVE",
"62 -291 CURVE SMOOTH",
"41 -294 OFFCURVE",
"29 -294 OFFCURVE",
"9 -289 CURVE SMOOTH",
"-25 -280 OFFCURVE",
"-37 -270 OFFCURVE",
"-37 -247 CURVE SMOOTH",
"-16 -234 OFFCURVE",
"3 -225 OFFCURVE",
"28 -225 CURVE SMOOTH",
"43 -225 OFFCURVE",
"53 -228 OFFCURVE",
"60 -231 CURVE",
"64 -227 LINE"
);
}
);
width = 0;
},
{
layerId = "0E844BAD-773F-41FF-B6D6-C35F1E5E991C";
name = Bold;
paths = (
{
closed = 1;
nodes = (
"75 -205 OFFCURVE",
"60 -182 OFFCURVE",
"21 -182 CURVE SMOOTH",
"-3 -182 OFFCURVE",
"-26 -190 OFFCURVE",
"-48 -208 CURVE SMOOTH",
"-64 -221 OFFCURVE",
"-77 -237 OFFCURVE",
"-82 -243 CURVE SMOOTH",
"-87 -250 OFFCURVE",
"-89 -256 OFFCURVE",
"-89 -264 CURVE SMOOTH",
"-89 -279 OFFCURVE",
"-78 -298 OFFCURVE",
"-51 -310 CURVE",
"-68 -320 OFFCURVE",
"-91 -335 OFFCURVE",
"-101 -350 CURVE SMOOTH",
"-107 -358 OFFCURVE",
"-106 -365 OFFCURVE",
"-105 -369 CURVE SMOOTH",
"-101 -382 OFFCURVE",
"-86 -383 OFFCURVE",
"-86 -383 CURVE SMOOTH",
"-86 -383 OFFCURVE",
"-49 -359 OFFCURVE",
"-6 -345 CURVE SMOOTH",
"21 -335 OFFCURVE",
"49 -327 OFFCURVE",
"77 -326 CURVE",
"91 -305 OFFCURVE",
"100 -286 OFFCURVE",
"109 -263 CURVE",
"92 -266 OFFCURVE",
"74 -269 OFFCURVE",
"57 -272 CURVE SMOOTH",
"37 -274 OFFCURVE",
"28 -275 OFFCURVE",
"10 -270 CURVE SMOOTH",
"-15 -263 OFFCURVE",
"-23 -255 OFFCURVE",
"-25 -250 CURVE",
"-18 -245 OFFCURVE",
"1 -236 OFFCURVE",
"25 -236 CURVE SMOOTH",
"36 -236 OFFCURVE",
"48 -239 OFFCURVE",
"61 -244 CURVE",
"77 -228 LINE"
);
}
);
width = 0;
}
);
unicode = 0655;
},
{
glyphname = "hamzacenter-ar";
lastChange = "2015-10-09 19:38:53 +0000";
layers = (
{
layerId = "51F41761-070F-43EA-B302-C90910850260";
name = Regular;
paths = (
{
closed = 1;
nodes = (
"62 253 OFFCURVE",
"56 270 OFFCURVE",
"24 270 CURVE SMOOTH",
"3 270 OFFCURVE",
"-17 263 OFFCURVE",
"-36 247 CURVE SMOOTH",
"-47 238 OFFCURVE",
"-60 224 OFFCURVE",
"-67 214 CURVE SMOOTH",
"-70 210 OFFCURVE",
"-71 207 OFFCURVE",
"-71 203 CURVE SMOOTH",
"-71 180 OFFCURVE",
"-45 165 OFFCURVE",
"-8 160 CURVE",
"-43 143 OFFCURVE",
"-73 128 OFFCURVE",
"-86 109 CURVE SMOOTH",
"-85 111 OFFCURVE",
"-88 104 OFFCURVE",
"-88 102 CURVE SMOOTH",
"-87 101 OFFCURVE",
"-86 100 OFFCURVE",
"-85 100 CURVE",
"-65 112 OFFCURVE",
"-42 125 OFFCURVE",
"0 139 CURVE SMOOTH",
"27 148 OFFCURVE",
"42 152 OFFCURVE",
"71 155 CURVE",
"78 164 OFFCURVE",
"83 174 OFFCURVE",
"88 185 CURVE",
"79 183 OFFCURVE",
"71 182 OFFCURVE",
"62 180 CURVE SMOOTH",
"41 177 OFFCURVE",
"29 177 OFFCURVE",
"9 182 CURVE SMOOTH",
"-25 191 OFFCURVE",
"-37 201 OFFCURVE",
"-37 224 CURVE SMOOTH",
"-16 237 OFFCURVE",
"3 246 OFFCURVE",
"28 246 CURVE SMOOTH",
"43 246 OFFCURVE",
"53 243 OFFCURVE",
"60 240 CURVE",
"64 244 LINE"
);
}
);
width = 0;
},
{
layerId = "0E844BAD-773F-41FF-B6D6-C35F1E5E991C";
name = Bold;
paths = (
{
closed = 1;
nodes = (
"75 272 OFFCURVE",
"60 295 OFFCURVE",
"21 295 CURVE SMOOTH",
"-3 295 OFFCURVE",
"-26 287 OFFCURVE",
"-48 269 CURVE SMOOTH",
"-64 256 OFFCURVE",
"-77 240 OFFCURVE",
"-82 234 CURVE SMOOTH",
"-87 227 OFFCURVE",
"-89 221 OFFCURVE",
"-89 213 CURVE SMOOTH",
"-89 198 OFFCURVE",
"-78 179 OFFCURVE",
"-51 167 CURVE",
"-68 157 OFFCURVE",
"-91 142 OFFCURVE",
"-101 127 CURVE SMOOTH",
"-107 119 OFFCURVE",
"-106 112 OFFCURVE",
"-105 108 CURVE SMOOTH",
"-101 95 OFFCURVE",
"-86 94 OFFCURVE",
"-86 94 CURVE SMOOTH",
"-86 94 OFFCURVE",
"-49 118 OFFCURVE",
"-6 132 CURVE SMOOTH",
"21 142 OFFCURVE",
"49 150 OFFCURVE",
"77 151 CURVE",
"91 172 OFFCURVE",
"100 191 OFFCURVE",
"109 214 CURVE",
"92 211 OFFCURVE",
"74 208 OFFCURVE",
"57 205 CURVE SMOOTH",
"37 203 OFFCURVE",
"28 202 OFFCURVE",
"10 207 CURVE SMOOTH",
"-15 214 OFFCURVE",
"-23 222 OFFCURVE",
"-25 227 CURVE",
"-18 232 OFFCURVE",
"1 241 OFFCURVE",
"25 241 CURVE SMOOTH",
"36 241 OFFCURVE",
"48 238 OFFCURVE",
"61 233 CURVE",
"77 249 LINE"
);
}
);
width = 0;
}
);
},
{
glyphname = "fathatan-ar";
lastChange = "2015-10-09 19:11:07 +0000";
layers = (
{
layerId = "51F41761-070F-43EA-B302-C90910850260";
name = Regular;
paths = (
{
closed = 1;
nodes = (
"26 833 OFFCURVE",
"-24 813 OFFCURVE",
"-80 785 CURVE",
"-83 779 OFFCURVE",
"-85 771 OFFCURVE",
"-87 760 CURVE",
"-87 760 OFFCURVE",
"20 807 OFFCURVE",
"81 827 CURVE",
"85 835 OFFCURVE",
"88 843 OFFCURVE",
"89 853 CURVE"
);
},
{
closed = 1;
nodes = (
"26 773 OFFCURVE",
"-24 753 OFFCURVE",
"-80 725 CURVE",
"-83 719 OFFCURVE",
"-85 711 OFFCURVE",
"-87 700 CURVE",
"-87 700 OFFCURVE",
"20 747 OFFCURVE",
"81 767 CURVE",
"85 775 OFFCURVE",
"88 783 OFFCURVE",
"89 793 CURVE"
);
}
);
width = 0;
},
{
layerId = "0E844BAD-773F-41FF-B6D6-C35F1E5E991C";
name = Bold;
paths = (
{
closed = 1;
nodes = (
"68 867 OFFCURVE",
"-47 823 OFFCURVE",
"-88 800 CURVE",
"-95 794 OFFCURVE",
"-102 750 OFFCURVE",
"-103 739 CURVE",
"-57 758 OFFCURVE",
"52 805 OFFCURVE",
"94 818 CURVE",
"102 832 OFFCURVE",
"107 855 OFFCURVE",
"108 877 CURVE"
);
},
{
closed = 1;
nodes = (
"68 772 OFFCURVE",
"-47 728 OFFCURVE",
"-88 705 CURVE",
"-95 699 OFFCURVE",
"-102 655 OFFCURVE",
"-103 644 CURVE",
"-57 663 OFFCURVE",
"52 710 OFFCURVE",
"94 723 CURVE",
"102 737 OFFCURVE",
"107 760 OFFCURVE",
"108 782 CURVE"
);
}
);
width = 0;
}
);
unicode = 064B;
},
{
glyphname = "dammatan-ar";
lastChange = "2015-10-09 19:48:16 +0000";
layers = (
{
layerId = "51F41761-070F-43EA-B302-C90910850260";
name = Regular;
paths = (
{
closed = 1;
nodes = (
"65 793 LINE",
"91 836 OFFCURVE",
"90 876 OFFCURVE",
"68 888 CURVE SMOOTH",
"49 898 OFFCURVE",
"24 888 OFFCURVE",
"1 860 CURVE SMOOTH",
"-12 844 OFFCURVE",
"-16 830 OFFCURVE",
"-13 817 CURVE SMOOTH",
"-9 800 OFFCURVE",
"5 788 OFFCURVE",
"34 777 CURVE",
"13 755 OFFCURVE",
"-1 742 OFFCURVE",
"-29 737 CURVE",
"-6 785 OFFCURVE",
"-24 800 OFFCURVE",
"-44 800 CURVE SMOOTH",
"-50 800 OFFCURVE",
"-67 795 OFFCURVE",
"-79 788 CURVE",
"-83 778 OFFCURVE",
"-84 770 OFFCURVE",
"-86 759 CURVE",
"-76 766 OFFCURVE",
"-52 776 OFFCURVE",
"-43 767 CURVE SMOOTH",
"-38 762 OFFCURVE",
"-38 745 OFFCURVE",
"-48 735 CURVE",
"-57 734 OFFCURVE",
"-67 734 OFFCURVE",
"-78 734 CURVE",
"-79 732 OFFCURVE",
"-85 722 OFFCURVE",
"-89 708 CURVE",
"-49 703 OFFCURVE",
"-13 711 OFFCURVE",
"16 732 CURVE SMOOTH",
"33 745 OFFCURVE",
"41 753 OFFCURVE",
"53 771 CURVE",
"84 758 LINE",
"84 769 OFFCURVE",
"83 776 OFFCURVE",
"80 785 CURVE"
);
},
{
closed = 1;
nodes = (
"28 814 LINE SMOOTH",
"10 824 OFFCURVE",
"8 835 OFFCURVE",
"9 842 CURVE SMOOTH",
"10 851 OFFCURVE",
"18 860 OFFCURVE",
"29 863 CURVE",
"39 865 OFFCURVE",
"49 863 OFFCURVE",
"56 854 CURVE",
"66 843 OFFCURVE",
"61 823 OFFCURVE",
"48 803 CURVE"
);
}
);
width = 0;
},
{
layerId = "0E844BAD-773F-41FF-B6D6-C35F1E5E991C";
name = Bold;
paths = (
{
closed = 1;
nodes = (
"87 804 LINE",
"103 841 OFFCURVE",
"115 891 OFFCURVE",
"78 909 CURVE",
"53 923 OFFCURVE",
"21 911 OFFCURVE",
"-7 877 CURVE SMOOTH",
"-23 857 OFFCURVE",
"-27 842 OFFCURVE",
"-22 824 CURVE SMOOTH",
"-16 803 OFFCURVE",
"2 789 OFFCURVE",
"17 781 CURVE",
"3 770 OFFCURVE",
"-15 760 OFFCURVE",
"-36 754 CURVE",
"-17 801 OFFCURVE",
"-40 821 OFFCURVE",
"-60 821 CURVE SMOOTH",
"-66 821 OFFCURVE",
"-85 815 OFFCURVE",
"-98 807 CURVE",
"-104 795 OFFCURVE",
"-105 787 OFFCURVE",
"-106 775 CURVE",
"-95 782 OFFCURVE",
"-69 794 OFFCURVE",
"-59 783 CURVE SMOOTH",
"-55 778 OFFCURVE",
"-54 761 OFFCURVE",
"-63 750 CURVE",
"-69 750 OFFCURVE",
"-76 750 OFFCURVE",
"-83 751 CURVE",
"-94 733 OFFCURVE",
"-98 725 OFFCURVE",
"-106 703 CURVE",
"-61 702 OFFCURVE",
"-19 707 OFFCURVE",
"14 723 CURVE",
"33 731 OFFCURVE",
"49 744 OFFCURVE",
"62 760 CURVE",
"102 743 LINE",
"104 770 OFFCURVE",
"104 778 OFFCURVE",
"102 797 CURVE"
);
},
{
closed = 1;
nodes = (
"36 830 LINE SMOOTH",
"24 836 OFFCURVE",
"19 843 OFFCURVE",
"19 849 CURVE",
"18 855 OFFCURVE",
"22 863 OFFCURVE",
"32 866 CURVE SMOOTH",
"39 868 OFFCURVE",
"45 867 OFFCURVE",
"53 860 CURVE",
"60 853 OFFCURVE",
"61 836 OFFCURVE",
"53 821 CURVE"
);
}
);
width = 0;
}
);
unicode = 064C;
},
{
glyphname = "kasratan-ar";
lastChange = "2015-10-09 18:53:32 +0000";
layers = (
{
layerId = "51F41761-070F-43EA-B302-C90910850260";
name = Regular;
paths = (
{
closed = 1;
nodes = (
"23 -222 OFFCURVE",
"-27 -242 OFFCURVE",
"-83 -270 CURVE",
"-86 -276 OFFCURVE",
"-88 -284 OFFCURVE",
"-90 -295 CURVE",
"-90 -295 OFFCURVE",
"17 -248 OFFCURVE",
"78 -228 CURVE",
"82 -220 OFFCURVE",
"85 -212 OFFCURVE",
"86 -202 CURVE"
);
},
{
closed = 1;
nodes = (
"23 -282 OFFCURVE",
"-27 -302 OFFCURVE",
"-83 -330 CURVE",
"-86 -336 OFFCURVE",
"-88 -344 OFFCURVE",
"-90 -355 CURVE",
"-90 -355 OFFCURVE",
"17 -308 OFFCURVE",
"78 -288 CURVE",
"82 -280 OFFCURVE",
"85 -272 OFFCURVE",
"86 -262 CURVE"
);
}
);
width = 0;
},
{
layerId = "0E844BAD-773F-41FF-B6D6-C35F1E5E991C";
name = Bold;
paths = (
{
closed = 1;
nodes = (
"68 -190 OFFCURVE",
"-47 -234 OFFCURVE",
"-88 -257 CURVE",
"-95 -263 OFFCURVE",
"-102 -307 OFFCURVE",
"-103 -318 CURVE",
"-57 -299 OFFCURVE",
"52 -252 OFFCURVE",
"94 -239 CURVE",
"102 -225 OFFCURVE",
"107 -202 OFFCURVE",
"108 -180 CURVE"
);
},
{
closed = 1;
nodes = (
"68 -285 OFFCURVE",
"-47 -329 OFFCURVE",
"-88 -352 CURVE",
"-95 -358 OFFCURVE",
"-102 -402 OFFCURVE",
"-103 -413 CURVE",
"-57 -394 OFFCURVE",
"52 -347 OFFCURVE",
"94 -334 CURVE",
"102 -320 OFFCURVE",
"107 -297 OFFCURVE",
"108 -275 CURVE"
);
}
);
width = 0;
}
);
unicode = 064D;
},
{
glyphname = "fatha-ar";
lastChange = "2015-10-09 18:56:29 +0000";
layers = (
{
layerId = "51F41761-070F-43EA-B302-C90910850260";
name = Regular;
paths = (
{
closed = 1;
nodes = (
"26 641 OFFCURVE",
"-24 621 OFFCURVE",
"-80 593 CURVE",
"-83 587 OFFCURVE",
"-85 577 OFFCURVE",
"-87 566 CURVE",
"-87 566 OFFCURVE",
"20 613 OFFCURVE",
"81 633 CURVE",
"85 641 OFFCURVE",
"88 651 OFFCURVE",
"89 661 CURVE"
);
}
);
width = 0;
},
{
layerId = "0E844BAD-773F-41FF-B6D6-C35F1E5E991C";
name = Bold;
paths = (
{
closed = 1;
nodes = (
"68 673 OFFCURVE",
"-47 629 OFFCURVE",
"-88 606 CURVE",
"-95 600 OFFCURVE",
"-102 556 OFFCURVE",
"-103 545 CURVE",
"-57 564 OFFCURVE",
"52 611 OFFCURVE",
"94 624 CURVE",
"102 638 OFFCURVE",
"107 661 OFFCURVE",
"108 683 CURVE"
);
}
);
width = 0;
}
);
unicode = 064E;
},
{
glyphname = "damma-ar";
lastChange = "2015-10-09 19:07:59 +0000";
layers = (
{
layerId = "51F41761-070F-43EA-B302-C90910850260";
name = Regular;
paths = (
{
closed = 1;
nodes = (
"54 785 LINE SMOOTH",
"80 828 OFFCURVE",
"79 868 OFFCURVE",
"57 880 CURVE SMOOTH",
"38 890 OFFCURVE",
"13 880 OFFCURVE",
"-10 852 CURVE SMOOTH",
"-23 836 OFFCURVE",
"-27 822 OFFCURVE",
"-24 809 CURVE SMOOTH",
"-20 792 OFFCURVE",
"-6 780 OFFCURVE",
"23 769 CURVE",
"-7 737 OFFCURVE",
"-35 724 OFFCURVE",
"-89 726 CURVE SMOOTH",
"-90 724 OFFCURVE",
"-96 714 OFFCURVE",
"-100 700 CURVE",
"-60 695 OFFCURVE",
"-24 703 OFFCURVE",
"5 724 CURVE SMOOTH",
"22 737 OFFCURVE",
"30 745 OFFCURVE",
"42 763 CURVE",
"73 750 LINE SMOOTH",
"73 761 OFFCURVE",
"72 768 OFFCURVE",
"69 777 CURVE SMOOTH"
);
},
{
closed = 1;
nodes = (
"17 806 LINE SMOOTH",
"-1 816 OFFCURVE",
"-3 827 OFFCURVE",
"-2 834 CURVE SMOOTH",
"-1 843 OFFCURVE",
"7 852 OFFCURVE",
"18 855 CURVE",
"28 857 OFFCURVE",
"38 855 OFFCURVE",
"45 846 CURVE",
"55 835 OFFCURVE",
"50 815 OFFCURVE",
"37 795 CURVE"
);
}
);
width = 0;
},
{
layerId = "0E844BAD-773F-41FF-B6D6-C35F1E5E991C";
name = Bold;
paths = (
{
closed = 1;
nodes = (
"73 797 LINE",
"89 834 OFFCURVE",
"101 884 OFFCURVE",
"64 902 CURVE SMOOTH",
"39 916 OFFCURVE",
"7 904 OFFCURVE",
"-21 870 CURVE SMOOTH",
"-37 850 OFFCURVE",
"-43 831 OFFCURVE",
"-38 813 CURVE SMOOTH",
"-32 792 OFFCURVE",
"-14 778 OFFCURVE",
"1 770 CURVE",
"-23 752 OFFCURVE",
"-56 745 OFFCURVE",
"-97 750 CURVE",
"-108 732 OFFCURVE",
"-112 718 OFFCURVE",
"-120 696 CURVE",
"-36 692 OFFCURVE",
"-5 707 OFFCURVE",
"14 721 CURVE SMOOTH",
"31 732 OFFCURVE",
"42 745 OFFCURVE",
"48 753 CURVE",
"88 736 LINE",
"90 763 OFFCURVE",
"90 771 OFFCURVE",
"88 790 CURVE"
);
},
{
closed = 1;
nodes = (
"22 823 LINE SMOOTH",
"10 829 OFFCURVE",
"5 836 OFFCURVE",
"5 842 CURVE SMOOTH",
"4 848 OFFCURVE",
"8 856 OFFCURVE",
"18 859 CURVE SMOOTH",
"25 861 OFFCURVE",
"31 860 OFFCURVE",
"39 853 CURVE SMOOTH",
"46 846 OFFCURVE",
"47 829 OFFCURVE",
"39 814 CURVE"
);
}
);
width = 0;
}
);
unicode = 064F;
},
{
glyphname = "kasra-ar";
lastChange = "2015-10-09 19:13:35 +0000";
layers = (
{
layerId = "51F41761-070F-43EA-B302-C90910850260";
name = Regular;
paths = (
{
closed = 1;
nodes = (
"29 -237 OFFCURVE",
"-21 -257 OFFCURVE",
"-77 -285 CURVE",
"-80 -291 OFFCURVE",
"-82 -301 OFFCURVE",
"-84 -312 CURVE",
"-84 -312 OFFCURVE",
"23 -265 OFFCURVE",
"84 -245 CURVE",
"88 -237 OFFCURVE",
"91 -227 OFFCURVE",
"92 -217 CURVE"
);
}
);
width = 0;
},
{
layerId = "0E844BAD-773F-41FF-B6D6-C35F1E5E991C";
name = Bold;
paths = (
{
closed = 1;
nodes = (
"68 -212 OFFCURVE",
"-47 -256 OFFCURVE",
"-88 -279 CURVE",
"-95 -285 OFFCURVE",
"-102 -329 OFFCURVE",
"-103 -340 CURVE",
"-57 -321 OFFCURVE",
"52 -274 OFFCURVE",
"94 -261 CURVE",
"102 -247 OFFCURVE",
"107 -224 OFFCURVE",
"108 -202 CURVE"
);
}
);
width = 0;
}
);
unicode = 0650;
},
{
glyphname = "shadda-ar";
lastChange = "2015-10-09 18:50:55 +0000";
layers = (
{
layerId = "51F41761-070F-43EA-B302-C90910850260";
name = Regular;
paths = (
{
closed = 1;
nodes = (
"89 817 OFFCURVE",
"86 816 OFFCURVE",
"84 815 CURVE",
"80 782 OFFCURVE",
"62 773 OFFCURVE",
"43 773 CURVE SMOOTH",
"16 773 OFFCURVE",
"5 791 OFFCURVE",
"5 807 CURVE",
"2 806 OFFCURVE",
"0 805 OFFCURVE",
"-3 804 CURVE",
"-4 774 OFFCURVE",
"-14 750 OFFCURVE",
"-50 750 CURVE SMOOTH",
"-70 750 OFFCURVE",
"-80 769 OFFCURVE",
"-77 785 CURVE",
"-80 784 OFFCURVE",
"-82 782 OFFCURVE",
"-85 781 CURVE",
"-88 765 OFFCURVE",
"-89 747 OFFCURVE",
"-84 732 CURVE SMOOTH",
"-79 716 OFFCURVE",
"-67 704 OFFCURVE",
"-47 704 CURVE SMOOTH",
"-27 704 OFFCURVE",
"-13 712 OFFCURVE",
"-6 727 CURVE SMOOTH",
"-1 736 OFFCURVE",
"1 746 OFFCURVE",
"1 758 CURVE",
"1 745 OFFCURVE",
"18 730 OFFCURVE",
"38 730 CURVE SMOOTH",
"48 730 OFFCURVE",
"60 731 OFFCURVE",
"73 745 CURVE SMOOTH",
"83 756 OFFCURVE",
"94 778 OFFCURVE",
"91 818 CURVE"
);
}
);
width = 0;
},
{
layerId = "0E844BAD-773F-41FF-B6D6-C35F1E5E991C";
name = Bold;
paths = (
{
closed = 1;
nodes = (
"88 824 OFFCURVE",
"85 823 OFFCURVE",
"81 822 CURVE",
"79 799 OFFCURVE",
"68 782 OFFCURVE",
"41 779 CURVE SMOOTH",
"22 777 OFFCURVE",
"9 787 OFFCURVE",
"6 815 CURVE",
"2 813 OFFCURVE",
"-2 812 OFFCURVE",
"-6 811 CURVE",
"-6 770 OFFCURVE",
"-34 756 OFFCURVE",
"-53 756 CURVE SMOOTH",
"-75 756 OFFCURVE",
"-78 768 OFFCURVE",
"-80 790 CURVE",
"-84 788 OFFCURVE",
"-88 786 OFFCURVE",
"-93 786 CURVE",
"-96 767 OFFCURVE",
"-95 751 OFFCURVE",
"-92 737 CURVE SMOOTH",
"-85 714 OFFCURVE",
"-69 700 OFFCURVE",
"-48 700 CURVE SMOOTH",
"-34 700 OFFCURVE",
"-17 707 OFFCURVE",
"-8 723 CURVE SMOOTH",
"-2 732 OFFCURVE",
"1 743 OFFCURVE",
"1 757 CURVE",
"8 737 OFFCURVE",
"21 726 OFFCURVE",
"40 726 CURVE SMOOTH",
"51 726 OFFCURVE",
"68 732 OFFCURVE",
"79 751 CURVE SMOOTH",
"89 766 OFFCURVE",
"96 790 OFFCURVE",
"92 826 CURVE"
);
}
);
width = 0;
}
);
unicode = 0651;
},
{
glyphname = "sukun-ar";
lastChange = "2015-10-09 19:35:58 +0000";
layers = (
{
layerId = "51F41761-070F-43EA-B302-C90910850260";
name = Regular;
paths = (
{
closed = 1;
nodes = (
"-27 814 OFFCURVE",
"-45 792 OFFCURVE",
"-45 761 CURVE SMOOTH",
"-45 749 OFFCURVE",
"-37 718 OFFCURVE",
"-2 718 CURVE SMOOTH",
"17 718 OFFCURVE",
"30 725 OFFCURVE",
"37 737 CURVE SMOOTH",
"43 747 OFFCURVE",
"44 759 OFFCURVE",
"44 767 CURVE SMOOTH",
"44 795 OFFCURVE",
"25 819 OFFCURVE",
"-8 832 CURVE"
);
},
{
closed = 1;
nodes = (
"13 792 OFFCURVE",
"32 780 OFFCURVE",
"32 766 CURVE SMOOTH",
"32 751 OFFCURVE",
"15 751 OFFCURVE",
"10 751 CURVE SMOOTH",
"-13 751 OFFCURVE",
"-30 763 OFFCURVE",
"-30 778 CURVE SMOOTH",
"-30 788 OFFCURVE",
"-23 798 OFFCURVE",
"-17 805 CURVE"
);
}
);
width = 0;
},
{
layerId = "0E844BAD-773F-41FF-B6D6-C35F1E5E991C";
name = Bold;
paths = (
{
closed = 1;
nodes = (
"-32 824 OFFCURVE",
"-56 796 OFFCURVE",
"-56 756 CURVE SMOOTH",
"-56 740 OFFCURVE",
"-46 700 OFFCURVE",
"0 700 CURVE SMOOTH",
"25 700 OFFCURVE",
"42 709 OFFCURVE",
"51 724 CURVE SMOOTH",
"59 738 OFFCURVE",
"60 754 OFFCURVE",
"60 764 CURVE SMOOTH",
"60 800 OFFCURVE",
"35 831 OFFCURVE",
"-8 848 CURVE"
);
},
{
closed = 1;
nodes = (
"15 788 OFFCURVE",
"33 777 OFFCURVE",
"33 764 CURVE SMOOTH",
"33 749 OFFCURVE",
"17 749 OFFCURVE",
"12 749 CURVE SMOOTH",
"-9 749 OFFCURVE",
"-26 761 OFFCURVE",
"-26 774 CURVE SMOOTH",
"-26 784 OFFCURVE",
"-19 794 OFFCURVE",
"-14 800 CURVE"
);
}
);
width = 0;
}
);
unicode = 0652;
},
{
glyphname = "madda-ar";
lastChange = "2015-10-09 19:28:57 +0000";
layers = (
{
layerId = "51F41761-070F-43EA-B302-C90910850260";
name = Regular;
paths = (
{
closed = 1;
nodes = (
"65 618 OFFCURVE",
"46 614 OFFCURVE",
"30 615 CURVE SMOOTH",
"-5 615 OFFCURVE",
"-16 635 OFFCURVE",
"-45 635 CURVE SMOOTH",
"-68 635 OFFCURVE",
"-85 603 OFFCURVE",
"-88 583 CURVE",
"-83 574 LINE",
"-75 588 OFFCURVE",
"-63 595 OFFCURVE",
"-55 595 CURVE SMOOTH",
"-42 595 OFFCURVE",
"-22 583 OFFCURVE",
"5 583 CURVE SMOOTH",
"54 583 OFFCURVE",
"83 609 OFFCURVE",
"88 614 CURVE",
"91 628 LINE"
);
}
);
width = 0;
},
{
layerId = "0E844BAD-773F-41FF-B6D6-C35F1E5E991C";
name = Bold;
paths = (
{
closed = 1;
nodes = (
"73 637 OFFCURVE",
"53 633 OFFCURVE",
"29 633 CURVE SMOOTH",
"-2 633 OFFCURVE",
"-15 650 OFFCURVE",
"-49 650 CURVE SMOOTH",
"-77 650 OFFCURVE",
"-98 623 OFFCURVE",
"-105 587 CURVE",
"-87 562 LINE",
"-79 578 OFFCURVE",
"-63 590 OFFCURVE",
"-53 590 CURVE SMOOTH",
"-29 590 OFFCURVE",
"-14 578 OFFCURVE",
"9 578 CURVE SMOOTH",
"47 578 OFFCURVE",
"79 597 OFFCURVE",
"97 615 CURVE",
"105 652 LINE"
);
}
);
width = 0;
}
);
unicode = 0653;
},
{
glyphname = "shaddaAlefabove-ar";
lastChange = "2015-10-09 20:04:16 +0000";
layers = (
{
components = (
{
name = "shadda-ar";
transform = "{1, 0, 0, 1, 0, -29}";
}
);
layerId = "51F41761-070F-43EA-B302-C90910850260";
name = Regular;
paths = (
{
closed = 1;
nodes = (
"9 825 OFFCURVE",
"3 856 OFFCURVE",
"-4 871 CURVE",
"-13 868 OFFCURVE",
"-17 865 OFFCURVE",
"-21 862 CURVE",
"-16 854 OFFCURVE",
"-3 830 OFFCURVE",
"-6 794 CURVE",
"4 795 LINE"
);
}
);
width = 0;
},
{
layerId = "0E844BAD-773F-41FF-B6D6-C35F1E5E991C";
name = Bold;
width = 600;
}
);
},
{
glyphname = "noonghunnaabove-ar";
lastChange = "2015-10-09 19:39:23 +0000";
layers = (
{
layerId = "51F41761-070F-43EA-B302-C90910850260";
name = Regular;
paths = (
{
closed = 1;
nodes = (
"70 888 OFFCURVE",
"60 877 OFFCURVE",
"54 865 CURVE",
"55 863 OFFCURVE",
"88 819 OFFCURVE",
"88 797 CURVE SMOOTH",
"88 785 OFFCURVE",
"79 773 OFFCURVE",
"62 764 CURVE SMOOTH",
"45 754 OFFCURVE",
"28 750 OFFCURVE",
"2 750 CURVE SMOOTH",
"-32 750 OFFCURVE",
"-55 758 OFFCURVE",
"-69 775 CURVE SMOOTH",
"-81 789 OFFCURVE",
"-80 807 OFFCURVE",
"-75 832 CURVE",
"-84 835 LINE",
"-91 818 OFFCURVE",
"-95 800 OFFCURVE",
"-96 786 CURVE SMOOTH",
"-97 771 OFFCURVE",
"-95 758 OFFCURVE",
"-91 747 CURVE SMOOTH",
"-84 732 OFFCURVE",
"-73 720 OFFCURVE",
"-58 712 CURVE SMOOTH",
"-43 704 OFFCURVE",
"-24 700 OFFCURVE",
"-2 700 CURVE SMOOTH",
"14 700 OFFCURVE",
"29 702 OFFCURVE",
"42 706 CURVE SMOOTH",
"55 710 OFFCURVE",
"66 717 OFFCURVE",
"76 726 CURVE SMOOTH",
"95 744 OFFCURVE",
"105 771 OFFCURVE",
"105 804 CURVE SMOOTH",
"105 827 OFFCURVE",
"101 848 OFFCURVE",
"92 868 CURVE SMOOTH",
"87 882 OFFCURVE",
"80 891 OFFCURVE",
"76 896 CURVE"
);
}
